<?xml version="1.0" standalone="no"?>
<!DOCTYPE svg PUBLIC "-//W3C//DTD SVG 1.1//EN" "http://www.w3.org/Graphics/SVG/1.1/DTD/svg11.dtd" >
<svg xmlns="http://www.w3.org/2000/svg" xmlns:xlink="http://www.w3.org/1999/xlink" version="1.1">
<metadata>
Created by FontForge 20201107 at Tue Apr 28 13:19:40 2020
 By 
Copyright (c) 2020 by Mariano Diez. All rights reserved.
</metadata>
<defs>
<font id="Lkdown" horiz-adv-x="772" >
  <font-face 
    font-family="Lkdown"
    font-weight="400"
    font-stretch="normal"
    units-per-em="1000"
    panose-1="0 0 0 0 0 0 0 0 0 0"
    ascent="800"
    descent="-200"
    x-height="686"
    cap-height="686"
    bbox="-126 -258 1244 945"
    underline-thickness="50"
    underline-position="-135"
    unicode-range="U+0020-25AF"
  />
<missing-glyph horiz-adv-x="540" 
d="M456 0h-372v700h372v-700zM159 628v-556h222v556h-222z" />
    <glyph glyph-name=".notdef" horiz-adv-x="540" 
d="M456 0h-372v700h372v-700zM159 628v-556h222v556h-222z" />
    <glyph glyph-name=".null" horiz-adv-x="0" 
 />
    <glyph glyph-name=".null" horiz-adv-x="0" 
 />
    <glyph glyph-name="uni000D" horiz-adv-x="540" 
 />
    <glyph glyph-name="space" unicode=" " horiz-adv-x="258" 
 />
    <glyph glyph-name="exclam" unicode="!" horiz-adv-x="258" 
d="M43 667q0 19 19 19h134q19 0 19 -19v-391q0 -19 -19 -19h-134q-19 0 -19 19v391zM62 171h134q19 0 19 -19v-133q0 -19 -19 -19h-134q-19 0 -19 19v133q0 19 19 19z" />
    <glyph glyph-name="quotedbl" unicode="&#x22;" 
d="M367 131q0 9 6.5 15t14.5 6h53q9 0 15 -6t6 -15v-93h19v93q0 9 6.5 15t15.5 6h53q8 0 14.5 -6t6.5 -15v-127l-34 -4l-4 114h-19v-93q0 -9 -6.5 -15t-15.5 -6h-53q-8 0 -14.5 6t-6.5 15v93h-19v-110l-34 -4zM215 473q0 8 6 14.5t15 6.5h110q9 0 15 -6.5t6 -14.5v-111
q0 -8 -6 -14.5t-15 -6.5h-110q-9 0 -15 6.5t-6 14.5v111zM196 21v110q0 9 6 15t15 6h110q9 0 15 -6t6 -15v-110q0 -9 -6 -15t-15 -6h-110q-9 0 -15 6t-6 15zM174 494q9 0 15.5 -6.5t6.5 -14.5v-53q0 -9 -6.5 -15.5t-15.5 -6.5h-36v-19h53l5 -33l-75 -5q-8 0 -14.5 6.5
t-6.5 14.5v70l57 5v19h-76v-110l-34 -5l-4 149zM541 323h110q9 0 15 -6t6 -15v-34l-37 -39l-54 -1l-4 34l57 4v19h-76v-76h110l4 -34l-131 -4q-9 0 -15 6t-6 15v110q0 9 6 15t15 6zM500 379v19h-74l-39 37l-1 38q0 8 6.5 14.5t14.5 6.5h127l5 -34l-115 -4v-19h75l38 -37
l2 -38q0 -8 -6.5 -14.5t-15.5 -6.5h-127l-4 34zM348 319l131 4q9 0 15 -6t6 -15v-53q0 -9 -6 -15t-15 -6h-36v-53l-34 -4l-4 91l57 4v19h-76v-110l-34 -4zM291 209v19h-75l-38 37l-2 54l34 4l5 -57h76v53l34 4l4 -131q0 -9 -6.5 -15t-14.5 -6h-127l-5 34zM43 131q0 9 6 15
t15 6h108l4 -33l-95 -5v-76h91l4 -34l-112 -4q-9 0 -15 6t-6 15v110zM153 323l4 -4v-30l-38 -4v-110l-34 -4l-4 114h-34l-4 34zM253 456v-77h76v77h-76zM234 38h76v76h-76v-76zM306 437l4 -34l-4 -5h-30l-4 34zM253 91l34 4l4 -34l-4 -4h-30zM725 209l4 -34l-34 -4l-4 34z
" />
    <glyph glyph-name="numbersign" unicode="#" 
d="M367 131q0 9 6.5 15t14.5 6h53q9 0 15 -6t6 -15v-93h19v93q0 9 6.5 15t15.5 6h53q8 0 14.5 -6t6.5 -15v-127l-34 -4l-4 114h-19v-93q0 -9 -6.5 -15t-15.5 -6h-53q-8 0 -14.5 6t-6.5 15v93h-19v-110l-34 -4zM215 473q0 8 6 14.5t15 6.5h110q9 0 15 -6.5t6 -14.5v-111
q0 -8 -6 -14.5t-15 -6.5h-110q-9 0 -15 6.5t-6 14.5v111zM196 21v110q0 9 6 15t15 6h110q9 0 15 -6t6 -15v-110q0 -9 -6 -15t-15 -6h-110q-9 0 -15 6t-6 15zM174 494q9 0 15.5 -6.5t6.5 -14.5v-53q0 -9 -6.5 -15.5t-15.5 -6.5h-36v-19h53l5 -33l-75 -5q-8 0 -14.5 6.5
t-6.5 14.5v70l57 5v19h-76v-110l-34 -5l-4 149zM541 323h110q9 0 15 -6t6 -15v-34l-37 -39l-54 -1l-4 34l57 4v19h-76v-76h110l4 -34l-131 -4q-9 0 -15 6t-6 15v110q0 9 6 15t15 6zM500 379v19h-74l-39 37l-1 38q0 8 6.5 14.5t14.5 6.5h127l5 -34l-115 -4v-19h75l38 -37
l2 -38q0 -8 -6.5 -14.5t-15.5 -6.5h-127l-4 34zM348 319l131 4q9 0 15 -6t6 -15v-53q0 -9 -6 -15t-15 -6h-36v-53l-34 -4l-4 91l57 4v19h-76v-110l-34 -4zM291 209v19h-75l-38 37l-2 54l34 4l5 -57h76v53l34 4l4 -131q0 -9 -6.5 -15t-14.5 -6h-127l-5 34zM43 131q0 9 6 15
t15 6h108l4 -33l-95 -5v-76h91l4 -34l-112 -4q-9 0 -15 6t-6 15v110zM153 323l4 -4v-30l-38 -4v-110l-34 -4l-4 114h-34l-4 34zM253 456v-77h76v77h-76zM234 38h76v76h-76v-76zM306 437l4 -34l-4 -5h-30l-4 34zM253 91l34 4l4 -34l-4 -4h-30zM725 209l4 -34l-34 -4l-4 34z
" />
    <glyph glyph-name="dollar" unicode="$" 
d="M367 131q0 9 6.5 15t14.5 6h53q9 0 15 -6t6 -15v-93h19v93q0 9 6.5 15t15.5 6h53q8 0 14.5 -6t6.5 -15v-127l-34 -4l-4 114h-19v-93q0 -9 -6.5 -15t-15.5 -6h-53q-8 0 -14.5 6t-6.5 15v93h-19v-110l-34 -4zM215 473q0 8 6 14.5t15 6.5h110q9 0 15 -6.5t6 -14.5v-111
q0 -8 -6 -14.5t-15 -6.5h-110q-9 0 -15 6.5t-6 14.5v111zM196 21v110q0 9 6 15t15 6h110q9 0 15 -6t6 -15v-110q0 -9 -6 -15t-15 -6h-110q-9 0 -15 6t-6 15zM174 494q9 0 15.5 -6.5t6.5 -14.5v-53q0 -9 -6.5 -15.5t-15.5 -6.5h-36v-19h53l5 -33l-75 -5q-8 0 -14.5 6.5
t-6.5 14.5v70l57 5v19h-76v-110l-34 -5l-4 149zM541 323h110q9 0 15 -6t6 -15v-34l-37 -39l-54 -1l-4 34l57 4v19h-76v-76h110l4 -34l-131 -4q-9 0 -15 6t-6 15v110q0 9 6 15t15 6zM500 379v19h-74l-39 37l-1 38q0 8 6.5 14.5t14.5 6.5h127l5 -34l-115 -4v-19h75l38 -37
l2 -38q0 -8 -6.5 -14.5t-15.5 -6.5h-127l-4 34zM348 319l131 4q9 0 15 -6t6 -15v-53q0 -9 -6 -15t-15 -6h-36v-53l-34 -4l-4 91l57 4v19h-76v-110l-34 -4zM291 209v19h-75l-38 37l-2 54l34 4l5 -57h76v53l34 4l4 -131q0 -9 -6.5 -15t-14.5 -6h-127l-5 34zM43 131q0 9 6 15
t15 6h108l4 -33l-95 -5v-76h91l4 -34l-112 -4q-9 0 -15 6t-6 15v110zM153 323l4 -4v-30l-38 -4v-110l-34 -4l-4 114h-34l-4 34zM253 456v-77h76v77h-76zM234 38h76v76h-76v-76zM306 437l4 -34l-4 -5h-30l-4 34zM253 91l34 4l4 -34l-4 -4h-30zM725 209l4 -34l-34 -4l-4 34z
" />
    <glyph glyph-name="percent" unicode="%" 
d="M367 131q0 9 6.5 15t14.5 6h53q9 0 15 -6t6 -15v-93h19v93q0 9 6.5 15t15.5 6h53q8 0 14.5 -6t6.5 -15v-127l-34 -4l-4 114h-19v-93q0 -9 -6.5 -15t-15.5 -6h-53q-8 0 -14.5 6t-6.5 15v93h-19v-110l-34 -4zM215 473q0 8 6 14.5t15 6.5h110q9 0 15 -6.5t6 -14.5v-111
q0 -8 -6 -14.5t-15 -6.5h-110q-9 0 -15 6.5t-6 14.5v111zM196 21v110q0 9 6 15t15 6h110q9 0 15 -6t6 -15v-110q0 -9 -6 -15t-15 -6h-110q-9 0 -15 6t-6 15zM174 494q9 0 15.5 -6.5t6.5 -14.5v-53q0 -9 -6.5 -15.5t-15.5 -6.5h-36v-19h53l5 -33l-75 -5q-8 0 -14.5 6.5
t-6.5 14.5v70l57 5v19h-76v-110l-34 -5l-4 149zM541 323h110q9 0 15 -6t6 -15v-34l-37 -39l-54 -1l-4 34l57 4v19h-76v-76h110l4 -34l-131 -4q-9 0 -15 6t-6 15v110q0 9 6 15t15 6zM500 379v19h-74l-39 37l-1 38q0 8 6.5 14.5t14.5 6.5h127l5 -34l-115 -4v-19h75l38 -37
l2 -38q0 -8 -6.5 -14.5t-15.5 -6.5h-127l-4 34zM348 319l131 4q9 0 15 -6t6 -15v-53q0 -9 -6 -15t-15 -6h-36v-53l-34 -4l-4 91l57 4v19h-76v-110l-34 -4zM291 209v19h-75l-38 37l-2 54l34 4l5 -57h76v53l34 4l4 -131q0 -9 -6.5 -15t-14.5 -6h-127l-5 34zM43 131q0 9 6 15
t15 6h108l4 -33l-95 -5v-76h91l4 -34l-112 -4q-9 0 -15 6t-6 15v110zM153 323l4 -4v-30l-38 -4v-110l-34 -4l-4 114h-34l-4 34zM253 456v-77h76v77h-76zM234 38h76v76h-76v-76zM306 437l4 -34l-4 -5h-30l-4 34zM253 91l34 4l4 -34l-4 -4h-30zM725 209l4 -34l-34 -4l-4 34z
" />
    <glyph glyph-name="ampersand" unicode="&#x26;" horiz-adv-x="815" 
d="M49 263l160 160q6 6 13 6h231q19 0 19 -19v-134q0 -19 -19 -19h-238v-85h343v162q0 20 7.5 37t20 30t30 20.5t37.5 7.5h143q19 0 19 -19v-134q0 -19 -19 -19h-67v-238q0 -19 -19 -19h-572q-19 0 -36.5 7.5t-30.5 20.5t-20.5 30.5t-7.5 36.5v154q0 8 6 14zM43 591
q0 20 7.5 37.5t20.5 30t30.5 20t36.5 7.5h572q19 0 19 -19v-133q0 -19 -19 -19h-495v-67q0 -19 -19 -19h-134q-19 0 -19 19v143z" />
    <glyph glyph-name="quotesingle" unicode="'" horiz-adv-x="258" 
d="M43 475v192q0 19 19 19h133q19 0 19 -19v-59q0 -8 -5 -13l-134 -134q-5 -5 -13 -5q-19 0 -19 19z" />
    <glyph glyph-name="parenleft" unicode="(" horiz-adv-x="300" 
d="M43 -172v1030q0 35 25 60t61 25h152q19 0 19 -19v-133q0 -19 -19 -19h-66v-858h66q19 0 19 -19v-134q0 -19 -19 -19h-152q-18 0 -33.5 7t-27.5 18.5t-18.5 27t-6.5 33.5z" />
    <glyph glyph-name="parenright" unicode=")" horiz-adv-x="300" 
d="M0 -105q0 19 19 19h67v858h-67q-19 0 -19 19v133q0 19 19 19h153q35 0 60 -25t25 -60v-1030q0 -18 -6.5 -33.5t-18 -27t-27 -18.5t-33.5 -7h-153q-19 0 -19 19v134z" />
    <glyph glyph-name="asterisk" unicode="*" horiz-adv-x="373" 
d="M52 494l72 39l-72 41q-6 3 -8 10t1 13l15 26q5 9 15 9q5 0 8 -2l74 -42l-2 80q0 18 18 18h32q18 0 18 -18l-2 -80l67 43q8 2 9 2q10 0 15 -8l16 -27q4 -7 2 -14t-8 -10l-73 -41l72 -40q7 -4 9 -11t-2 -13l-16 -26q-6 -9 -15 -9q-4 0 -9 3l-67 43l2 -80q0 -18 -18 -18h-32
q-18 0 -18 18l2 81l-72 -43q-4 -2 -9 -2q-10 0 -15 8l-15 26q-5 6 -3 13t9 11z" />
    <glyph glyph-name="plus" unicode="+" horiz-adv-x="601" 
d="M62 429h153v152q0 19 19 19h133q19 0 19 -19v-152h153q19 0 19 -19v-134q0 -19 -19 -19h-153v-152q0 -19 -19 -19h-133q-19 0 -19 19v152h-153q-19 0 -19 19v134q0 19 19 19z" />
    <glyph glyph-name="comma" unicode="," horiz-adv-x="258" 
d="M43 -40v192q0 19 19 19h134q19 0 19 -19v-59q0 -7 -6 -13l-133 -134q-8 -5 -14 -5q-19 0 -19 19z" />
    <glyph glyph-name="hyphen" unicode="-" horiz-adv-x="601" 
d="M62 429h477q19 0 19 -19v-134q0 -19 -19 -19h-477q-19 0 -19 19v134q0 19 19 19z" />
    <glyph glyph-name="period" unicode="." horiz-adv-x="258" 
d="M62 171h134q19 0 19 -19v-133q0 -19 -19 -19h-134q-19 0 -19 19v133q0 19 19 19z" />
    <glyph glyph-name="slash" unicode="/" horiz-adv-x="258" 
d="M62 858h134q8 0 13.5 -6t5.5 -14v-991q0 -19 -19 -19h-134q-19 0 -19 19v991q0 8 5.5 14t13.5 6z" />
    <glyph glyph-name="zero" unicode="0" 
d="M43 591q0 20 7.5 37.5t20.5 30t30.5 20t36.5 7.5h496q40 0 67.5 -27.5t27.5 -67.5v-496q0 -19 -7.5 -36.5t-20 -30.5t-30 -20.5t-37.5 -7.5h-496q-19 0 -36.5 7.5t-30.5 20.5t-20.5 30.5t-7.5 36.5v496zM558 172v343h-343v-343h343zM300 410q0 19 19 19h134q19 0 19 -19
v-134q0 -19 -19 -19h-134q-19 0 -19 19v134z" />
    <glyph glyph-name="one" unicode="1" horiz-adv-x="343" 
d="M43 667q0 19 19 19h219q19 0 19 -19v-648q0 -19 -19 -19h-133q-19 0 -19 19v496h-67q-19 0 -19 19v133z" />
    <glyph glyph-name="two" unicode="2" 
d="M62 686h572q40 0 67.5 -27.5t27.5 -67.5v-238q0 -40 -27.5 -68t-67.5 -28h-419v-85h495q8 0 13.5 -6t5.5 -14v-133q0 -19 -19 -19h-648q-19 0 -19 19v230q0 8 6 14l160 160q6 6 13 6h336v86h-496q-19 0 -19 19v133q0 19 19 19z" />
    <glyph glyph-name="three" unicode="3" 
d="M43 152q0 8 5.5 14t13.5 6h496v343h-496q-19 0 -19 19v133q0 19 19 19h572q40 0 67.5 -27.5t27.5 -67.5v-496q0 -19 -7.5 -36.5t-20 -30.5t-30 -20.5t-37.5 -7.5h-572q-19 0 -19 19v133zM146 429h309q7 0 12 -5t5 -12v-138q0 -7 -5 -12t-12 -5h-309q-8 0 -12.5 5t-4.5 12
v138q0 7 4.5 12t12.5 5z" />
    <glyph glyph-name="four" unicode="4" 
d="M43 353v314q0 19 19 19h134q19 0 19 -19v-238h343v238q0 19 19 19h133q19 0 19 -19v-648q0 -19 -19 -19h-133q-19 0 -19 19v238h-420q-19 0 -36.5 7.5t-30.5 20.5t-20.5 30.5t-7.5 37.5z" />
    <glyph glyph-name="five" unicode="5" 
d="M43 152q0 8 5.5 14t13.5 6h496v85h-336q-7 0 -13 6l-160 160q-6 6 -6 14v230q0 19 19 19h648q19 0 19 -19v-133q0 -19 -19 -19h-495v-86h419q20 0 37.5 -7.5t30 -20.5t20 -30t7.5 -37v-239q0 -19 -7.5 -36.5t-20 -30.5t-30 -20.5t-37.5 -7.5h-572q-19 0 -19 19v133z" />
    <glyph glyph-name="six" unicode="6" 
d="M43 95v496q0 20 7.5 37.5t20.5 30t30.5 20t36.5 7.5h572q19 0 19 -19v-133q0 -19 -19 -19h-495v-343h343v85h-239q-19 0 -19 19v134q0 19 19 19h315q20 0 37.5 -7.5t30 -20.5t20 -30t7.5 -37v-239q0 -19 -7.5 -36.5t-20 -30.5t-30 -20.5t-37.5 -7.5h-496q-19 0 -36.5 7.5
t-30.5 20.5t-20.5 30.5t-7.5 36.5z" />
    <glyph glyph-name="seven" unicode="7" 
d="M43 534v133q0 19 19 19h648q19 0 19 -19v-314q0 -40 -27.5 -68t-67.5 -28h-162v-238q0 -19 -19 -19h-134q-19 0 -19 19v391q0 19 19 19h239v86h-496q-19 0 -19 19z" />
    <glyph glyph-name="eight" unicode="8" 
d="M43 95v154q0 8 6 14l80 80l-80 80q-6 6 -6 14v154q0 20 7.5 37.5t20.5 30t30.5 20t36.5 7.5h496q40 0 67.5 -27.5t27.5 -67.5v-154q0 -6 -5 -14l-81 -80l81 -80q5 -8 5 -14v-154q0 -19 -7.5 -36.5t-20 -30.5t-30 -20.5t-37.5 -7.5h-496q-19 0 -36.5 7.5t-30.5 20.5
t-20.5 30.5t-7.5 36.5zM215 515v-86h343v86h-343zM215 257v-85h343v85h-343z" />
    <glyph glyph-name="nine" unicode="9" 
d="M43 152q0 8 5.5 14t13.5 6h496v343h-343v-86h238q19 0 19 -19v-134q0 -19 -19 -19h-231q-7 0 -13 6l-160 160q-6 6 -6 14v154q0 20 7.5 37.5t20.5 30t30.5 20t36.5 7.5h496q40 0 67.5 -27.5t27.5 -67.5v-496q0 -19 -7.5 -36.5t-20 -30.5t-30 -20.5t-37.5 -7.5h-572
q-19 0 -19 19v133z" />
    <glyph glyph-name="colon" unicode=":" horiz-adv-x="258" 
d="M43 152q0 19 19 19h134q19 0 19 -19v-133q0 -19 -19 -19h-134q-19 0 -19 19v133zM43 495q0 19 19 19h134q19 0 19 -19v-133q0 -19 -19 -19h-134q-19 0 -19 19v133z" />
    <glyph glyph-name="semicolon" unicode=";" horiz-adv-x="258" 
d="M43 495q0 19 19 19h134q19 0 19 -19v-133q0 -19 -19 -19h-134q-19 0 -19 19v133zM62 171h134q19 0 19 -19v-59q0 -7 -6 -13l-133 -134q-8 -5 -14 -5q-19 0 -19 19v192q0 19 19 19z" />
    <glyph glyph-name="less" unicode="&#x3c;" horiz-adv-x="495" 
d="M49 357l276 276q5 5 13 5q9 0 14 -5l94 -94q6 -6 5.5 -13.5t-5.5 -13.5l-168 -169l168 -168q6 -6 5.5 -13.5t-5.5 -13.5l-94 -95q-8 -5 -14 -5q-5 0 -13 5l-276 277q-13 14 0 27z" />
    <glyph glyph-name="equal" unicode="=" 
d="M367 131q0 9 6.5 15t14.5 6h53q9 0 15 -6t6 -15v-93h19v93q0 9 6.5 15t15.5 6h53q8 0 14.5 -6t6.5 -15v-127l-34 -4l-4 114h-19v-93q0 -9 -6.5 -15t-15.5 -6h-53q-8 0 -14.5 6t-6.5 15v93h-19v-110l-34 -4zM215 473q0 8 6 14.5t15 6.5h110q9 0 15 -6.5t6 -14.5v-111
q0 -8 -6 -14.5t-15 -6.5h-110q-9 0 -15 6.5t-6 14.5v111zM196 21v110q0 9 6 15t15 6h110q9 0 15 -6t6 -15v-110q0 -9 -6 -15t-15 -6h-110q-9 0 -15 6t-6 15zM174 494q9 0 15.5 -6.5t6.5 -14.5v-53q0 -9 -6.5 -15.5t-15.5 -6.5h-36v-19h53l5 -33l-75 -5q-8 0 -14.5 6.5
t-6.5 14.5v70l57 5v19h-76v-110l-34 -5l-4 149zM541 323h110q9 0 15 -6t6 -15v-34l-37 -39l-54 -1l-4 34l57 4v19h-76v-76h110l4 -34l-131 -4q-9 0 -15 6t-6 15v110q0 9 6 15t15 6zM500 379v19h-74l-39 37l-1 38q0 8 6.5 14.5t14.5 6.5h127l5 -34l-115 -4v-19h75l38 -37
l2 -38q0 -8 -6.5 -14.5t-15.5 -6.5h-127l-4 34zM348 319l131 4q9 0 15 -6t6 -15v-53q0 -9 -6 -15t-15 -6h-36v-53l-34 -4l-4 91l57 4v19h-76v-110l-34 -4zM291 209v19h-75l-38 37l-2 54l34 4l5 -57h76v53l34 4l4 -131q0 -9 -6.5 -15t-14.5 -6h-127l-5 34zM43 131q0 9 6 15
t15 6h108l4 -33l-95 -5v-76h91l4 -34l-112 -4q-9 0 -15 6t-6 15v110zM153 323l4 -4v-30l-38 -4v-110l-34 -4l-4 114h-34l-4 34zM253 456v-77h76v77h-76zM234 38h76v76h-76v-76zM306 437l4 -34l-4 -5h-30l-4 34zM253 91l34 4l4 -34l-4 -4h-30zM725 209l4 -34l-34 -4l-4 34z
" />
    <glyph glyph-name="greater" unicode="&#x3e;" horiz-adv-x="473" 
d="M49 175l168 168l-168 169q-5 6 -5.5 13.5t5.5 13.5l94 94q5 5 13 5q9 0 14 -5l276 -276q14 -13 0 -27l-276 -277q-8 -5 -14 -5q-5 0 -13 5l-94 95q-5 6 -5.5 13.5t5.5 13.5z" />
    <glyph glyph-name="question" unicode="?" 
d="M138 686h496q20 0 37.5 -7.5t30 -20.5t20 -30t7.5 -37v-239q0 -19 -7.5 -36.5t-20 -30.5t-30 -20.5t-37.5 -7.5h-315q-19 0 -19 19v134q0 19 19 19h239v85h-343v-152q0 -19 -19 -19h-134q-19 0 -19 19v229q0 20 7.5 37t20.5 30t30.5 20.5t36.5 7.5zM300 152q0 19 19 19
h134q19 0 19 -19v-133q0 -19 -19 -19h-134q-19 0 -19 19v133z" />
    <glyph glyph-name="at" unicode="@" horiz-adv-x="864" 
d="M35 380q0 89 30.5 161t84.5 123t127.5 78.5t158.5 27.5q84 0 156 -27t124.5 -76t82.5 -118.5t30 -153.5q0 -39 -7 -81t-25.5 -77t-49.5 -57.5t-79 -22.5q-39 0 -67 19t-40 56q-25 -38 -55 -56.5t-81 -18.5q-46 0 -84 18t-64 48t-40.5 69.5t-14.5 83.5t14 83t40 68.5
t62.5 47t81.5 17.5q37 0 71.5 -14.5t59.5 -45.5v50h93v-286q0 -21 9 -39.5t34 -18.5t39 18t21 42.5t9 51t2 43.5q0 72 -25 128.5t-68.5 96.5t-102 61t-126.5 21q-72 0 -132 -23.5t-102.5 -65.5t-66 -101t-23.5 -130q0 -72 23.5 -131.5t66 -101.5t101.5 -65t129 -23
q43 0 84 9t79 29l23 -69q-42 -22 -90 -31t-96 -9q-88 0 -161 29t-125.5 81t-81.5 124t-29 158zM318 376q0 -27 7.5 -51t22 -42t36.5 -29t50 -11q33 0 59.5 15t41.5 44q9 17 13.5 38.5t4.5 43.5t-5.5 43t-17.5 37q-16 22 -39 34t-49 12q-60 0 -92 -38.5t-32 -95.5z" />
    <glyph glyph-name="A" unicode="A" 
d="M43 249q0 6 5 14l161 160q6 6 13 6h231q19 0 19 -19v-134q0 -19 -19 -19h-239v-85h344v343h-496q-19 0 -19 19v133q0 19 19 19h572q20 0 37 -7.5t30 -20t20.5 -30t7.5 -37.5v-496q0 -19 -7.5 -36.5t-20.5 -30.5t-30 -20.5t-37 -7.5h-496q-19 0 -36.5 7.5t-30.5 20.5
t-20.5 30.5t-7.5 36.5v154z" />
    <glyph glyph-name="B" unicode="B" 
d="M43 667q0 19 19 19h572q40 0 67.5 -27.5t27.5 -67.5v-143q0 -19 -19 -19h-133q-19 0 -19 19v67h-343v-343h343v85h-239q-19 0 -19 19v134q0 19 19 19h231q7 0 13 -6l161 -160q5 -8 5 -14v-154q0 -19 -7.5 -36.5t-20 -30.5t-30 -20.5t-37.5 -7.5h-572q-19 0 -19 19v648z
" />
    <glyph glyph-name="C" unicode="C" horiz-adv-x="686" 
d="M43 95v496q0 20 7.5 37.5t20.5 30t30.5 20t36.5 7.5h486q19 0 19 -19v-133q0 -19 -19 -19h-409v-343h409q8 0 13.5 -6t5.5 -14v-133q0 -19 -19 -19h-486q-19 0 -36.5 7.5t-30.5 20.5t-20.5 30.5t-7.5 36.5z" />
    <glyph glyph-name="D" unicode="D" 
d="M43 19v648q0 19 19 19h572q40 0 67.5 -27.5t27.5 -67.5v-496q0 -19 -7.5 -36.5t-20 -30.5t-30 -20.5t-37.5 -7.5h-315q-19 0 -19 19v133q0 8 5.5 14t13.5 6h239v343h-343v-496q0 -19 -19 -19h-134q-19 0 -19 19z" />
    <glyph glyph-name="E" unicode="E" 
d="M43 591q0 20 7.5 37.5t20.5 30t30.5 20t36.5 7.5h496q40 0 67.5 -27.5t27.5 -67.5v-154q0 -6 -5 -14l-161 -160q-6 -6 -13 -6h-231q-19 0 -19 19v134q0 19 19 19h239v86h-343v-343h495q8 0 13.5 -6t5.5 -14v-133q0 -19 -19 -19h-572q-19 0 -36.5 7.5t-30.5 20.5
t-20.5 30.5t-7.5 36.5v496z" />
    <glyph glyph-name="F" unicode="F" 
d="M43 19v648q0 19 19 19h648q19 0 19 -19v-133q0 -19 -19 -19h-495v-86h495q19 0 19 -19v-134q0 -19 -19 -19h-495v-238q0 -19 -19 -19h-134q-19 0 -19 19z" />
    <glyph glyph-name="G" unicode="G" 
d="M43 95v496q0 20 7.5 37.5t20.5 30t30.5 20t36.5 7.5h572q19 0 19 -19v-133q0 -19 -19 -19h-495v-343h343v85h-239q-19 0 -19 19v134q0 19 19 19h231q7 0 13 -6l161 -160q5 -8 5 -14v-230q0 -19 -19 -19h-572q-19 0 -36.5 7.5t-30.5 20.5t-20.5 30.5t-7.5 36.5z" />
    <glyph glyph-name="H" unicode="H" 
d="M62 686h134q19 0 19 -19v-238h343v238q0 19 19 19h133q19 0 19 -19v-648q0 -19 -19 -19h-133q-19 0 -19 19v238h-343v-238q0 -19 -19 -19h-134q-19 0 -19 19v648q0 19 19 19z" />
    <glyph glyph-name="I" unicode="I" horiz-adv-x="258" 
d="M62 686h134q19 0 19 -19v-648q0 -19 -19 -19h-134q-19 0 -19 19v648q0 19 19 19z" />
    <glyph glyph-name="J" unicode="J" horiz-adv-x="515" 
d="M43 152q0 8 5.5 14t13.5 6h238v343h-238q-19 0 -19 19v133q0 19 19 19h391q19 0 19 -19v-572q0 -19 -7.5 -36.5t-20.5 -30.5t-30 -20.5t-37 -7.5h-315q-19 0 -19 19v133z" />
    <glyph glyph-name="K" unicode="K" 
d="M43 667q0 19 19 19h134q19 0 19 -19v-238h343v238q0 19 19 19h133q19 0 19 -19v-230q0 -6 -5 -14l-81 -80l81 -80q5 -8 5 -14v-230q0 -19 -19 -19h-133q-19 0 -19 19v238h-343v-238q0 -19 -19 -19h-134q-19 0 -19 19v648z" />
    <glyph glyph-name="L" unicode="L" horiz-adv-x="515" 
d="M43 95v572q0 19 19 19h134q19 0 19 -19v-495h238q8 0 13.5 -6t5.5 -14v-133q0 -19 -19 -19h-315q-19 0 -36.5 7.5t-30.5 20.5t-20.5 30.5t-7.5 36.5z" />
    <glyph glyph-name="M" unicode="M" horiz-adv-x="1030" 
d="M138 686h239q20 0 37 -7.5t30 -20t20.5 -30t7.5 -37.5v-419h86v419q0 40 27.5 67.5t67.5 27.5h238q40 0 68 -27.5t28 -67.5v-572q0 -19 -19 -19h-134q-19 0 -19 19v496h-86v-420q0 -19 -7.5 -36.5t-20 -30.5t-30 -20.5t-37.5 -7.5h-238q-20 0 -37.5 7.5t-30.5 20.5
t-20.5 30.5t-7.5 36.5v420h-85v-496q0 -19 -19 -19h-134q-19 0 -19 19v572q0 20 7.5 37.5t20.5 30t30.5 20t36.5 7.5z" />
    <glyph glyph-name="N" unicode="N" 
d="M43 19v572q0 20 7.5 37.5t20.5 30t30.5 20t36.5 7.5h154q6 0 14 -5l160 -161q6 -6 6 -13v-335h86v495q0 19 19 19h133q19 0 19 -19v-572q0 -19 -7.5 -36.5t-20 -30.5t-30 -20.5t-37.5 -7.5h-154q-8 0 -14 6l-160 160q-6 6 -6 13v336h-85v-496q0 -19 -19 -19h-134
q-19 0 -19 19z" />
    <glyph glyph-name="O" unicode="O" 
d="M43 591q0 20 7.5 37.5t20.5 30t30.5 20t36.5 7.5h496q40 0 67.5 -27.5t27.5 -67.5v-496q0 -19 -7.5 -36.5t-20 -30.5t-30 -20.5t-37.5 -7.5h-496q-19 0 -36.5 7.5t-30.5 20.5t-20.5 30.5t-7.5 36.5v496zM215 172h343v343h-343v-343z" />
    <glyph glyph-name="P" unicode="P" 
d="M43 19v648q0 19 19 19h572q40 0 67.5 -27.5t27.5 -67.5v-238q0 -40 -27.5 -68t-67.5 -28h-315q-19 0 -19 19v134q0 19 19 19h239v86h-343v-496q0 -19 -19 -19h-134q-19 0 -19 19z" />
    <glyph glyph-name="Q" unicode="Q" 
d="M43 95v496q0 20 7.5 37.5t20.5 30t30.5 20t36.5 7.5h496q40 0 67.5 -27.5t27.5 -67.5v-496q0 -19 -7.5 -36.5t-20 -30.5t-30 -20.5t-37.5 -7.5h-57q-19 0 -19 19v496h-343v-343h238q8 0 13.5 -6t5.5 -14v-305q0 -19 -19 -19h-134q-19 0 -19 19v153h-162q-19 0 -36.5 7.5
t-30.5 20.5t-20.5 30.5t-7.5 36.5z" />
    <glyph glyph-name="R" unicode="R" 
d="M43 667q0 19 19 19h572q40 0 67.5 -27.5t27.5 -67.5v-238q0 -40 -27.5 -68t-67.5 -28h-162v-85h238q8 0 13.5 -6t5.5 -14v-133q0 -19 -19 -19h-314q-20 0 -37.5 7.5t-30.5 20.5t-20.5 30.5t-7.5 36.5v315q0 19 19 19h239v86h-343v-496q0 -19 -19 -19h-134q-19 0 -19 19
v648z" />
    <glyph glyph-name="S" unicode="S" 
d="M43 591q0 20 7.5 37.5t20.5 30t30.5 20t36.5 7.5h572q19 0 19 -19v-133q0 -19 -19 -19h-495v-86h335q7 0 13 -6l161 -160q5 -8 5 -14v-154q0 -19 -7.5 -36.5t-20 -30.5t-30 -20.5t-37.5 -7.5h-572q-19 0 -19 19v133q0 8 5.5 14t13.5 6h496v85h-336q-7 0 -13 6l-160 160
q-6 6 -6 14v154z" />
    <glyph glyph-name="T" unicode="T" horiz-adv-x="601" 
d="M43 667q0 19 19 19h477q19 0 19 -19v-133q0 -19 -19 -19h-153v-496q0 -19 -19 -19h-133q-19 0 -19 19v496h-153q-19 0 -19 19v133z" />
    <glyph glyph-name="U" unicode="U" 
d="M43 95v572q0 19 19 19h134q19 0 19 -19v-495h343v495q0 19 19 19h133q19 0 19 -19v-572q0 -19 -7.5 -36.5t-20 -30.5t-30 -20.5t-37.5 -7.5h-496q-19 0 -36.5 7.5t-30.5 20.5t-20.5 30.5t-7.5 36.5z" />
    <glyph glyph-name="V" unicode="V" 
d="M43 19v648q0 19 19 19h134q19 0 19 -19v-495h343v495q0 19 19 19h133q19 0 19 -19v-488q0 -5 -5 -13l-161 -160q-6 -6 -13 -6h-488q-19 0 -19 19z" />
    <glyph glyph-name="W" unicode="W" horiz-adv-x="1030" 
d="M62 686h134q19 0 19 -19v-495h85v419q0 40 28 67.5t68 27.5h238q40 0 67.5 -27.5t27.5 -67.5v-419h86v495q0 19 19 19h134q19 0 19 -19v-572q0 -19 -7.5 -36.5t-20.5 -30.5t-30.5 -20.5t-37.5 -7.5h-238q-20 0 -37.5 7.5t-30 20.5t-20 30.5t-7.5 36.5v420h-86v-420
q0 -19 -7.5 -36.5t-20.5 -30.5t-30 -20.5t-37 -7.5h-239q-19 0 -36.5 7.5t-30.5 20.5t-20.5 30.5t-7.5 36.5v572q0 19 19 19z" />
    <glyph glyph-name="X" unicode="X" 
d="M43 667q0 19 19 19h134q19 0 19 -19v-238h343v238q0 19 19 19h133q19 0 19 -19v-238l-86 -86l86 -86v-238q0 -19 -19 -19h-133q-19 0 -19 19v238h-343v-238q0 -19 -19 -19h-134q-19 0 -19 19v238l86 86l-86 86v238z" />
    <glyph glyph-name="Y" unicode="Y" 
d="M43 437v230q0 19 19 19h134q19 0 19 -19v-238h343v238q0 19 19 19h133q19 0 19 -19v-572q0 -19 -7.5 -36.5t-20 -30.5t-30 -20.5t-37.5 -7.5h-572q-19 0 -19 19v133q0 8 5.5 14t13.5 6h496v85h-336q-7 0 -13 6l-160 160q-6 6 -6 14z" />
    <glyph glyph-name="Z" unicode="Z" 
d="M43 19v230q0 8 6 14l160 160q6 6 13 6h336v86h-496q-19 0 -19 19v133q0 19 19 19h648q19 0 19 -19v-230q0 -6 -5 -14l-161 -160q-6 -6 -13 -6h-335v-85h495q8 0 13.5 -6t5.5 -14v-133q0 -19 -19 -19h-648q-19 0 -19 19z" />
    <glyph glyph-name="bracketleft" unicode="[" horiz-adv-x="300" 
d="M43 -239v1163q0 19 19 19h219q19 0 19 -19v-133q0 -19 -19 -19h-66v-858h66q19 0 19 -19v-134q0 -19 -19 -19h-219q-19 0 -19 19z" />
    <glyph glyph-name="backslash" unicode="\" horiz-adv-x="258" 
d="M62 858h134q8 0 13.5 -6t5.5 -14v-991q0 -19 -19 -19h-134q-19 0 -19 19v991q0 8 5.5 14t13.5 6z" />
    <glyph glyph-name="bracketright" unicode="]" horiz-adv-x="300" 
d="M0 -105q0 19 19 19h67v858h-67q-19 0 -19 19v133q0 19 19 19h219q19 0 19 -19v-1163q0 -19 -19 -19h-219q-19 0 -19 19v134z" />
    <glyph glyph-name="asciicircum" unicode="^" 
d="M367 131q0 9 6.5 15t14.5 6h53q9 0 15 -6t6 -15v-93h19v93q0 9 6.5 15t15.5 6h53q8 0 14.5 -6t6.5 -15v-127l-34 -4l-4 114h-19v-93q0 -9 -6.5 -15t-15.5 -6h-53q-8 0 -14.5 6t-6.5 15v93h-19v-110l-34 -4zM215 473q0 8 6 14.5t15 6.5h110q9 0 15 -6.5t6 -14.5v-111
q0 -8 -6 -14.5t-15 -6.5h-110q-9 0 -15 6.5t-6 14.5v111zM196 21v110q0 9 6 15t15 6h110q9 0 15 -6t6 -15v-110q0 -9 -6 -15t-15 -6h-110q-9 0 -15 6t-6 15zM174 494q9 0 15.5 -6.5t6.5 -14.5v-53q0 -9 -6.5 -15.5t-15.5 -6.5h-36v-19h53l5 -33l-75 -5q-8 0 -14.5 6.5
t-6.5 14.5v70l57 5v19h-76v-110l-34 -5l-4 149zM541 323h110q9 0 15 -6t6 -15v-34l-37 -39l-54 -1l-4 34l57 4v19h-76v-76h110l4 -34l-131 -4q-9 0 -15 6t-6 15v110q0 9 6 15t15 6zM500 379v19h-74l-39 37l-1 38q0 8 6.5 14.5t14.5 6.5h127l5 -34l-115 -4v-19h75l38 -37
l2 -38q0 -8 -6.5 -14.5t-15.5 -6.5h-127l-4 34zM348 319l131 4q9 0 15 -6t6 -15v-53q0 -9 -6 -15t-15 -6h-36v-53l-34 -4l-4 91l57 4v19h-76v-110l-34 -4zM291 209v19h-75l-38 37l-2 54l34 4l5 -57h76v53l34 4l4 -131q0 -9 -6.5 -15t-14.5 -6h-127l-5 34zM43 131q0 9 6 15
t15 6h108l4 -33l-95 -5v-76h91l4 -34l-112 -4q-9 0 -15 6t-6 15v110zM153 323l4 -4v-30l-38 -4v-110l-34 -4l-4 114h-34l-4 34zM253 456v-77h76v77h-76zM234 38h76v76h-76v-76zM306 437l4 -34l-4 -5h-30l-4 34zM253 91l34 4l4 -34l-4 -4h-30zM725 209l4 -34l-34 -4l-4 34z
" />
    <glyph glyph-name="underscore" unicode="_" 
d="M43 -153v134q0 19 19 19h648q19 0 19 -19v-134q0 -19 -19 -19h-648q-19 0 -19 19z" />
    <glyph glyph-name="grave" unicode="`" horiz-adv-x="402" 
d="M62 944h145q7 0 13 -6l134 -133q9 -9 4 -21t-18 -12h-278q-19 0 -19 19v133q0 8 5.5 14t13.5 6z" />
    <glyph glyph-name="a" unicode="a" 
d="M43 249q0 8 6 14l160 160q6 6 13 6h231q19 0 19 -19v-134q0 -19 -19 -19h-238v-85h343v343h-496q-19 0 -19 19v133q0 19 19 19h572q40 0 67.5 -27.5t27.5 -67.5v-496q0 -19 -7.5 -36.5t-20 -30.5t-30 -20.5t-37.5 -7.5h-496q-19 0 -36.5 7.5t-30.5 20.5t-20.5 30.5
t-7.5 36.5v154z" />
    <glyph glyph-name="b" unicode="b" 
d="M43 667q0 19 19 19h572q40 0 67.5 -27.5t27.5 -67.5v-143q0 -19 -19 -19h-133q-19 0 -19 19v67h-343v-343h343v85h-239q-19 0 -19 19v134q0 19 19 19h231q7 0 13 -6l161 -160q5 -8 5 -14v-154q0 -19 -7.5 -36.5t-20 -30.5t-30 -20.5t-37.5 -7.5h-572q-19 0 -19 19v648z
" />
    <glyph glyph-name="c" unicode="c" horiz-adv-x="686" 
d="M43 95v496q0 20 7.5 37.5t20.5 30t30.5 20t36.5 7.5h486q19 0 19 -19v-133q0 -19 -19 -19h-409v-343h409q8 0 13.5 -6t5.5 -14v-133q0 -19 -19 -19h-486q-19 0 -36.5 7.5t-30.5 20.5t-20.5 30.5t-7.5 36.5z" />
    <glyph glyph-name="d" unicode="d" 
d="M43 152q0 8 5.5 14t13.5 6h496v343h-343v-86h238q19 0 19 -19v-134q0 -19 -19 -19h-391q-19 0 -19 19v391q0 19 19 19h572q40 0 67.5 -27.5t27.5 -67.5v-496q0 -19 -7.5 -36.5t-20 -30.5t-30 -20.5t-37.5 -7.5h-572q-19 0 -19 19v133z" />
    <glyph glyph-name="e" unicode="e" 
d="M43 591q0 20 7.5 37.5t20.5 30t30.5 20t36.5 7.5h496q40 0 67.5 -27.5t27.5 -67.5v-154q0 -6 -5 -14l-161 -160q-6 -6 -13 -6h-231q-19 0 -19 19v134q0 19 19 19h239v86h-343v-343h495q8 0 13.5 -6t5.5 -14v-133q0 -19 -19 -19h-572q-19 0 -36.5 7.5t-30.5 20.5
t-20.5 30.5t-7.5 36.5v496z" />
    <glyph glyph-name="f" unicode="f" 
d="M43 19v648q0 19 19 19h648q19 0 19 -19v-133q0 -19 -19 -19h-495v-496q0 -19 -19 -19h-134q-19 0 -19 19zM300 19v391q0 19 19 19h391q19 0 19 -19v-134q0 -19 -19 -19h-238v-238q0 -19 -19 -19h-134q-19 0 -19 19z" />
    <glyph glyph-name="g" unicode="g" 
d="M43 95v496q0 20 7.5 37.5t20.5 30t30.5 20t36.5 7.5h572q19 0 19 -19v-133q0 -19 -19 -19h-495v-343h343v85h-239q-19 0 -19 19v134q0 19 19 19h391q19 0 19 -19v-315q0 -19 -7.5 -36.5t-20 -30.5t-30 -20.5t-37.5 -7.5h-496q-19 0 -36.5 7.5t-30.5 20.5t-20.5 30.5
t-7.5 36.5z" />
    <glyph glyph-name="h" unicode="h" 
d="M62 686h134q19 0 19 -19v-648q0 -19 -19 -19h-134q-19 0 -19 19v648q0 19 19 19zM558 19v648q0 19 19 19h133q19 0 19 -19v-648q0 -19 -19 -19h-133q-19 0 -19 19zM319 515h134q19 0 19 -19v-305q0 -19 -19 -19h-134q-19 0 -19 19v305q0 19 19 19z" />
    <glyph glyph-name="i" unicode="i" horiz-adv-x="258" 
d="M62 686h134q19 0 19 -19v-648q0 -19 -19 -19h-134q-19 0 -19 19v648q0 19 19 19z" />
    <glyph glyph-name="j" unicode="j" 
d="M43 95v315q0 19 19 19h391q19 0 19 -19v-134q0 -19 -19 -19h-238v-85h343v343h-496q-19 0 -19 19v133q0 19 19 19h667v-591q0 -19 -7.5 -36.5t-20 -30.5t-30 -20.5t-37.5 -7.5h-496q-19 0 -36.5 7.5t-30.5 20.5t-20.5 30.5t-7.5 36.5z" />
    <glyph glyph-name="k" unicode="k" 
d="M43 667q0 19 19 19h134q19 0 19 -19v-238h85v162q0 40 28 67.5t68 27.5h314q19 0 19 -19v-133q0 -19 -19 -19h-238v-86h162q20 0 37.5 -7.5t30 -20.5t20 -30t7.5 -37v-239q0 -19 -7.5 -36.5t-20 -30.5t-30 -20.5t-37.5 -7.5h-315q-19 0 -19 19v133q0 8 5.5 14t13.5 6h239
v85h-343v-238q0 -19 -19 -19h-134q-19 0 -19 19v648z" />
    <glyph glyph-name="l" unicode="l" 
d="M62 686h134q19 0 19 -19v-495h495q8 0 13.5 -6t5.5 -14v-133q0 -19 -19 -19h-572q-19 0 -36.5 7.5t-30.5 20.5t-20.5 30.5t-7.5 36.5v572q0 19 19 19zM319 686h134q19 0 19 -19v-238h238q19 0 19 -19v-134q0 -19 -19 -19h-387q-10 0 -16.5 6.5t-6.5 16.5v387q0 19 19 19z
" />
    <glyph glyph-name="m" unicode="m" horiz-adv-x="1030" 
d="M138 686h239q20 0 37 -7.5t30 -20t20.5 -30t7.5 -37.5v-419h86v419q0 40 27.5 67.5t67.5 27.5h238q40 0 68 -27.5t28 -67.5v-572q0 -19 -19 -19h-134q-19 0 -19 19v496h-86v-420q0 -19 -7.5 -36.5t-20 -30.5t-30 -20.5t-37.5 -7.5h-238q-20 0 -37.5 7.5t-30.5 20.5
t-20.5 30.5t-7.5 36.5v420h-85v-496q0 -19 -19 -19h-134q-19 0 -19 19v572q0 20 7.5 37.5t20.5 30t30.5 20t36.5 7.5z" />
    <glyph glyph-name="n" unicode="n" 
d="M43 19v572q0 20 7.5 37.5t20.5 30t30.5 20t36.5 7.5h239q20 0 37 -7.5t30 -20t20.5 -30t7.5 -37.5v-419h86v495q0 19 19 19h133q19 0 19 -19v-572q0 -19 -7.5 -36.5t-20 -30.5t-30 -20.5t-37.5 -7.5h-238q-20 0 -37.5 7.5t-30.5 20.5t-20.5 30.5t-7.5 36.5v420h-85v-496
q0 -19 -19 -19h-134q-19 0 -19 19z" />
    <glyph glyph-name="o" unicode="o" 
d="M43 591q0 20 7.5 37.5t20.5 30t30.5 20t36.5 7.5h496q40 0 67.5 -27.5t27.5 -67.5v-496q0 -19 -7.5 -36.5t-20 -30.5t-30 -20.5t-37.5 -7.5h-496q-19 0 -36.5 7.5t-30.5 20.5t-20.5 30.5t-7.5 36.5v496zM558 172v343h-343v-343h343zM300 410q0 19 19 19h134q19 0 19 -19
v-134q0 -19 -19 -19h-134q-19 0 -19 19v134z" />
    <glyph glyph-name="p" unicode="p" 
d="M43 19v648q0 19 19 19h572q40 0 67.5 -27.5t27.5 -67.5v-238q0 -40 -27.5 -68t-67.5 -28h-162v-238q0 -19 -19 -19h-134q-19 0 -19 19v391q0 19 19 19h239v86h-343v-496q0 -19 -19 -19h-134q-19 0 -19 19z" />
    <glyph glyph-name="q" unicode="q" 
d="M43 95v496q0 20 7.5 37.5t20.5 30t30.5 20t36.5 7.5h496q40 0 67.5 -27.5t27.5 -67.5v-496q0 -19 -7.5 -36.5t-20 -30.5t-30 -20.5t-37.5 -7.5h-57q-19 0 -19 19v496h-343v-343h238q8 0 13.5 -6t5.5 -14v-305q0 -19 -19 -19h-134q-19 0 -19 19v153h-162q-19 0 -36.5 7.5
t-30.5 20.5t-20.5 30.5t-7.5 36.5z" />
    <glyph glyph-name="r" unicode="r" 
d="M43 667q0 19 19 19h572q40 0 67.5 -27.5t27.5 -67.5v-238q0 -40 -27.5 -68t-67.5 -28h-162v-85h238q8 0 13.5 -6t5.5 -14v-133q0 -19 -19 -19h-314q-20 0 -37.5 7.5t-30.5 20.5t-20.5 30.5t-7.5 36.5v315q0 19 19 19h239v86h-343v-496q0 -19 -19 -19h-134q-19 0 -19 19
v648z" />
    <glyph glyph-name="s" unicode="s" 
d="M43 591q0 20 7.5 37.5t20.5 30t30.5 20t36.5 7.5h572q19 0 19 -19v-133q0 -19 -19 -19h-495v-86h335q7 0 13 -6l161 -160q5 -8 5 -14v-154q0 -19 -7.5 -36.5t-20 -30.5t-30 -20.5t-37.5 -7.5h-572q-19 0 -19 19v133q0 8 5.5 14t13.5 6h496v85h-336q-7 0 -13 6l-160 160
q-6 6 -6 14v154z" />
    <glyph glyph-name="t" unicode="t" horiz-adv-x="601" 
d="M43 667q0 19 19 19h477q19 0 19 -19v-133q0 -19 -19 -19h-153v-496q0 -19 -19 -19h-133q-19 0 -19 19v496h-153q-19 0 -19 19v133z" />
    <glyph glyph-name="u" unicode="u" 
d="M62 686h134q19 0 19 -19v-495h343v343h-86v-239q0 -19 -19 -19h-134q-19 0 -19 19v391q0 19 19 19h391q19 0 19 -19v-572q0 -19 -7.5 -36.5t-20 -30.5t-30 -20.5t-37.5 -7.5h-496q-19 0 -36.5 7.5t-30.5 20.5t-20.5 30.5t-7.5 36.5v572q0 19 19 19z" />
    <glyph glyph-name="v" unicode="v" 
d="M43 19v648q0 19 19 19h134q19 0 19 -19v-495h343v343h-86v-239q0 -19 -19 -19h-134q-19 0 -19 19v391q0 19 19 19h391q19 0 19 -19v-488q0 -5 -5 -13l-161 -160q-6 -6 -13 -6h-488q-19 0 -19 19z" />
    <glyph glyph-name="w" unicode="w" horiz-adv-x="1030" 
d="M62 686h134q19 0 19 -19v-495h85v419q0 40 28 67.5t68 27.5h238q40 0 67.5 -27.5t27.5 -67.5v-419h86v495q0 19 19 19h134q19 0 19 -19v-572q0 -19 -7.5 -36.5t-20.5 -30.5t-30.5 -20.5t-37.5 -7.5h-238q-20 0 -37.5 7.5t-30 20.5t-20 30.5t-7.5 36.5v420h-86v-420
q0 -19 -7.5 -36.5t-20.5 -30.5t-30 -20.5t-37 -7.5h-239q-19 0 -36.5 7.5t-30.5 20.5t-20.5 30.5t-7.5 36.5v572q0 19 19 19z" />
    <glyph glyph-name="x" unicode="x" 
d="M43 19v230q0 8 6 14l80 80l-80 80q-6 6 -6 14v230q0 19 19 19h134q19 0 19 -19v-238h343v86h-239q-19 0 -19 19v133q0 19 19 19h391q19 0 19 -19v-230q0 -6 -5 -14l-81 -80l81 -80q5 -8 5 -14v-230q0 -19 -19 -19h-133q-19 0 -19 19v238h-343v-85h238q8 0 13.5 -6
t5.5 -14v-133q0 -19 -19 -19h-391q-19 0 -19 19z" />
    <glyph glyph-name="y" unicode="y" 
d="M43 667q0 19 19 19h391q19 0 19 -19v-152h-257v-86h343v238q0 19 19 19h133q19 0 19 -19v-572q0 -19 -7.5 -36.5t-20 -30.5t-30 -20.5t-37.5 -7.5h-572q-19 0 -19 19v133q0 8 5.5 14t13.5 6h496v85h-336q-7 0 -13 6l-160 160q-6 6 -6 14v230z" />
    <glyph glyph-name="z" unicode="z" 
d="M43 19v230q0 8 6 14l160 160q6 6 13 6h336v86h-496q-19 0 -19 19v133q0 19 19 19h648q19 0 19 -19v-230q0 -6 -5 -14l-161 -160q-6 -6 -13 -6h-335v-85h495q8 0 13.5 -6t5.5 -14v-133q0 -19 -19 -19h-648q-19 0 -19 19z" />
    <glyph glyph-name="braceleft" unicode="{" horiz-adv-x="300" 
d="M43 -172v1030q0 35 25 60t61 25h152q19 0 19 -19v-133q0 -19 -19 -19h-66v-858h66q19 0 19 -19v-134q0 -19 -19 -19h-152q-18 0 -33.5 7t-27.5 18.5t-18.5 27t-6.5 33.5z" />
    <glyph glyph-name="bar" unicode="|" horiz-adv-x="258" 
d="M62 858h134q8 0 13.5 -6t5.5 -14v-991q0 -19 -19 -19h-134q-19 0 -19 19v991q0 8 5.5 14t13.5 6z" />
    <glyph glyph-name="braceright" unicode="}" horiz-adv-x="300" 
d="M0 -105q0 19 19 19h67v858h-67q-19 0 -19 19v133q0 19 19 19h153q35 0 60 -25t25 -60v-1030q0 -18 -6.5 -33.5t-18 -27t-27 -18.5t-33.5 -7h-153q-19 0 -19 19v134z" />
    <glyph glyph-name="asciitilde" unicode="~" 
d="M43 792v134q0 19 19 19h648q19 0 19 -19v-134q0 -19 -19 -19h-648q-19 0 -19 19z" />
    <glyph glyph-name="uni00A0" unicode="&#xa0;" horiz-adv-x="540" 
 />
    <glyph glyph-name="exclamdown" unicode="&#xa1;" horiz-adv-x="258" 
d="M62 429h134q19 0 19 -19v-391q0 -19 -19 -19h-134q-19 0 -19 19v391q0 19 19 19zM62 686h134q19 0 19 -19v-134q0 -19 -19 -19h-134q-19 0 -19 19v134q0 19 19 19z" />
    <glyph glyph-name="cent" unicode="&#xa2;" 
d="M367 131q0 9 6.5 15t14.5 6h53q9 0 15 -6t6 -15v-93h19v93q0 9 6.5 15t15.5 6h53q8 0 14.5 -6t6.5 -15v-127l-34 -4l-4 114h-19v-93q0 -9 -6.5 -15t-15.5 -6h-53q-8 0 -14.5 6t-6.5 15v93h-19v-110l-34 -4zM215 473q0 8 6 14.5t15 6.5h110q9 0 15 -6.5t6 -14.5v-111
q0 -8 -6 -14.5t-15 -6.5h-110q-9 0 -15 6.5t-6 14.5v111zM196 21v110q0 9 6 15t15 6h110q9 0 15 -6t6 -15v-110q0 -9 -6 -15t-15 -6h-110q-9 0 -15 6t-6 15zM174 494q9 0 15.5 -6.5t6.5 -14.5v-53q0 -9 -6.5 -15.5t-15.5 -6.5h-36v-19h53l5 -33l-75 -5q-8 0 -14.5 6.5
t-6.5 14.5v70l57 5v19h-76v-110l-34 -5l-4 149zM541 323h110q9 0 15 -6t6 -15v-34l-37 -39l-54 -1l-4 34l57 4v19h-76v-76h110l4 -34l-131 -4q-9 0 -15 6t-6 15v110q0 9 6 15t15 6zM500 379v19h-74l-39 37l-1 38q0 8 6.5 14.5t14.5 6.5h127l5 -34l-115 -4v-19h75l38 -37
l2 -38q0 -8 -6.5 -14.5t-15.5 -6.5h-127l-4 34zM348 319l131 4q9 0 15 -6t6 -15v-53q0 -9 -6 -15t-15 -6h-36v-53l-34 -4l-4 91l57 4v19h-76v-110l-34 -4zM291 209v19h-75l-38 37l-2 54l34 4l5 -57h76v53l34 4l4 -131q0 -9 -6.5 -15t-14.5 -6h-127l-5 34zM43 131q0 9 6 15
t15 6h108l4 -33l-95 -5v-76h91l4 -34l-112 -4q-9 0 -15 6t-6 15v110zM153 323l4 -4v-30l-38 -4v-110l-34 -4l-4 114h-34l-4 34zM253 456v-77h76v77h-76zM234 38h76v76h-76v-76zM306 437l4 -34l-4 -5h-30l-4 34zM253 91l34 4l4 -34l-4 -4h-30zM725 209l4 -34l-34 -4l-4 34z
" />
    <glyph glyph-name="sterling" unicode="&#xa3;" 
d="M367 131q0 9 6.5 15t14.5 6h53q9 0 15 -6t6 -15v-93h19v93q0 9 6.5 15t15.5 6h53q8 0 14.5 -6t6.5 -15v-127l-34 -4l-4 114h-19v-93q0 -9 -6.5 -15t-15.5 -6h-53q-8 0 -14.5 6t-6.5 15v93h-19v-110l-34 -4zM215 473q0 8 6 14.5t15 6.5h110q9 0 15 -6.5t6 -14.5v-111
q0 -8 -6 -14.5t-15 -6.5h-110q-9 0 -15 6.5t-6 14.5v111zM196 21v110q0 9 6 15t15 6h110q9 0 15 -6t6 -15v-110q0 -9 -6 -15t-15 -6h-110q-9 0 -15 6t-6 15zM174 494q9 0 15.5 -6.5t6.5 -14.5v-53q0 -9 -6.5 -15.5t-15.5 -6.5h-36v-19h53l5 -33l-75 -5q-8 0 -14.5 6.5
t-6.5 14.5v70l57 5v19h-76v-110l-34 -5l-4 149zM541 323h110q9 0 15 -6t6 -15v-34l-37 -39l-54 -1l-4 34l57 4v19h-76v-76h110l4 -34l-131 -4q-9 0 -15 6t-6 15v110q0 9 6 15t15 6zM500 379v19h-74l-39 37l-1 38q0 8 6.5 14.5t14.5 6.5h127l5 -34l-115 -4v-19h75l38 -37
l2 -38q0 -8 -6.5 -14.5t-15.5 -6.5h-127l-4 34zM348 319l131 4q9 0 15 -6t6 -15v-53q0 -9 -6 -15t-15 -6h-36v-53l-34 -4l-4 91l57 4v19h-76v-110l-34 -4zM291 209v19h-75l-38 37l-2 54l34 4l5 -57h76v53l34 4l4 -131q0 -9 -6.5 -15t-14.5 -6h-127l-5 34zM43 131q0 9 6 15
t15 6h108l4 -33l-95 -5v-76h91l4 -34l-112 -4q-9 0 -15 6t-6 15v110zM153 323l4 -4v-30l-38 -4v-110l-34 -4l-4 114h-34l-4 34zM253 456v-77h76v77h-76zM234 38h76v76h-76v-76zM306 437l4 -34l-4 -5h-30l-4 34zM253 91l34 4l4 -34l-4 -4h-30zM725 209l4 -34l-34 -4l-4 34z
" />
    <glyph glyph-name="yen" unicode="&#xa5;" 
d="M367 131q0 9 6.5 15t14.5 6h53q9 0 15 -6t6 -15v-93h19v93q0 9 6.5 15t15.5 6h53q8 0 14.5 -6t6.5 -15v-127l-34 -4l-4 114h-19v-93q0 -9 -6.5 -15t-15.5 -6h-53q-8 0 -14.5 6t-6.5 15v93h-19v-110l-34 -4zM215 473q0 8 6 14.5t15 6.5h110q9 0 15 -6.5t6 -14.5v-111
q0 -8 -6 -14.5t-15 -6.5h-110q-9 0 -15 6.5t-6 14.5v111zM196 21v110q0 9 6 15t15 6h110q9 0 15 -6t6 -15v-110q0 -9 -6 -15t-15 -6h-110q-9 0 -15 6t-6 15zM174 494q9 0 15.5 -6.5t6.5 -14.5v-53q0 -9 -6.5 -15.5t-15.5 -6.5h-36v-19h53l5 -33l-75 -5q-8 0 -14.5 6.5
t-6.5 14.5v70l57 5v19h-76v-110l-34 -5l-4 149zM541 323h110q9 0 15 -6t6 -15v-34l-37 -39l-54 -1l-4 34l57 4v19h-76v-76h110l4 -34l-131 -4q-9 0 -15 6t-6 15v110q0 9 6 15t15 6zM500 379v19h-74l-39 37l-1 38q0 8 6.5 14.5t14.5 6.5h127l5 -34l-115 -4v-19h75l38 -37
l2 -38q0 -8 -6.5 -14.5t-15.5 -6.5h-127l-4 34zM348 319l131 4q9 0 15 -6t6 -15v-53q0 -9 -6 -15t-15 -6h-36v-53l-34 -4l-4 91l57 4v19h-76v-110l-34 -4zM291 209v19h-75l-38 37l-2 54l34 4l5 -57h76v53l34 4l4 -131q0 -9 -6.5 -15t-14.5 -6h-127l-5 34zM43 131q0 9 6 15
t15 6h108l4 -33l-95 -5v-76h91l4 -34l-112 -4q-9 0 -15 6t-6 15v110zM153 323l4 -4v-30l-38 -4v-110l-34 -4l-4 114h-34l-4 34zM253 456v-77h76v77h-76zM234 38h76v76h-76v-76zM306 437l4 -34l-4 -5h-30l-4 34zM253 91l34 4l4 -34l-4 -4h-30zM725 209l4 -34l-34 -4l-4 34z
" />
    <glyph glyph-name="dieresis" unicode="&#xa8;" horiz-adv-x="601" 
d="M386 791v133q0 8 5.5 14t13.5 6h134q8 0 13.5 -6t5.5 -14v-133q0 -19 -19 -19h-134q-19 0 -19 19zM62 944h134q8 0 13.5 -6t5.5 -14v-133q0 -19 -19 -19h-134q-19 0 -19 19v133q0 8 5.5 14t13.5 6z" />
    <glyph glyph-name="uni00AD" unicode="&#xad;" horiz-adv-x="332" 
d="M62 429h477q19 0 19 -19v-134q0 -19 -19 -19h-477q-19 0 -19 19v134q0 19 19 19z" />
    <glyph glyph-name="macron" unicode="&#xaf;" 
d="M43 792v134q0 19 19 19h648q19 0 19 -19v-134q0 -19 -19 -19h-648q-19 0 -19 19z" />
    <glyph glyph-name="plusminus" unicode="&#xb1;" 
d="M367 131q0 9 6.5 15t14.5 6h53q9 0 15 -6t6 -15v-93h19v93q0 9 6.5 15t15.5 6h53q8 0 14.5 -6t6.5 -15v-127l-34 -4l-4 114h-19v-93q0 -9 -6.5 -15t-15.5 -6h-53q-8 0 -14.5 6t-6.5 15v93h-19v-110l-34 -4zM215 473q0 8 6 14.5t15 6.5h110q9 0 15 -6.5t6 -14.5v-111
q0 -8 -6 -14.5t-15 -6.5h-110q-9 0 -15 6.5t-6 14.5v111zM196 21v110q0 9 6 15t15 6h110q9 0 15 -6t6 -15v-110q0 -9 -6 -15t-15 -6h-110q-9 0 -15 6t-6 15zM174 494q9 0 15.5 -6.5t6.5 -14.5v-53q0 -9 -6.5 -15.5t-15.5 -6.5h-36v-19h53l5 -33l-75 -5q-8 0 -14.5 6.5
t-6.5 14.5v70l57 5v19h-76v-110l-34 -5l-4 149zM541 323h110q9 0 15 -6t6 -15v-34l-37 -39l-54 -1l-4 34l57 4v19h-76v-76h110l4 -34l-131 -4q-9 0 -15 6t-6 15v110q0 9 6 15t15 6zM500 379v19h-74l-39 37l-1 38q0 8 6.5 14.5t14.5 6.5h127l5 -34l-115 -4v-19h75l38 -37
l2 -38q0 -8 -6.5 -14.5t-15.5 -6.5h-127l-4 34zM348 319l131 4q9 0 15 -6t6 -15v-53q0 -9 -6 -15t-15 -6h-36v-53l-34 -4l-4 91l57 4v19h-76v-110l-34 -4zM291 209v19h-75l-38 37l-2 54l34 4l5 -57h76v53l34 4l4 -131q0 -9 -6.5 -15t-14.5 -6h-127l-5 34zM43 131q0 9 6 15
t15 6h108l4 -33l-95 -5v-76h91l4 -34l-112 -4q-9 0 -15 6t-6 15v110zM153 323l4 -4v-30l-38 -4v-110l-34 -4l-4 114h-34l-4 34zM253 456v-77h76v77h-76zM234 38h76v76h-76v-76zM306 437l4 -34l-4 -5h-30l-4 34zM253 91l34 4l4 -34l-4 -4h-30zM725 209l4 -34l-34 -4l-4 34z
" />
    <glyph glyph-name="acute" unicode="&#xb4;" 
d="M233 805l134 133q6 6 13 6h145q8 0 13.5 -6t5.5 -14v-133q0 -19 -19 -19h-278q-13 0 -18 12t4 21z" />
    <glyph glyph-name="periodcentered" unicode="&#xb7;" horiz-adv-x="258" 
d="M62 429h134q19 0 19 -19v-134q0 -19 -19 -19h-134q-19 0 -19 19v134q0 19 19 19z" />
    <glyph glyph-name="cedilla" unicode="&#xb8;" horiz-adv-x="258" 
d="M215 0v-153q0 -19 -19 -19h-134q-19 0 -19 19v153h172z" />
    <glyph glyph-name="questiondown" unicode="&#xbf;" 
d="M43 95v238q0 20 7.5 37.5t20.5 30.5t30.5 20.5t36.5 7.5h315q19 0 19 -19v-134q0 -19 -19 -19h-238v-86h343v153q0 19 19 19h133q19 0 19 -19v-229q0 -40 -27.5 -67.5t-67.5 -27.5h-496q-19 0 -36.5 7.5t-30.5 20t-20.5 30t-7.5 37.5zM319 686h134q19 0 19 -19v-134
q0 -19 -19 -19h-134q-19 0 -19 19v134q0 19 19 19z" />
    <glyph glyph-name="Agrave" unicode="&#xc0;" 
d="M43 249q0 8 6 14l160 160q6 6 13 6h231q19 0 19 -19v-134q0 -19 -19 -19h-238v-85h343v343h-496q-19 0 -19 19v133q0 19 19 19h572q40 0 67.5 -27.5t27.5 -67.5v-496q0 -19 -7.5 -36.5t-20 -30.5t-30 -20.5t-37.5 -7.5h-496q-19 0 -36.5 7.5t-30.5 20.5t-20.5 30.5
t-7.5 36.5v154zM228 924q0 8 5.5 14t13.5 6h145q7 0 13 -6l134 -133q9 -9 4 -21t-18 -12h-278q-19 0 -19 19v133z" />
    <glyph glyph-name="Aacute" unicode="&#xc1;" 
d="M43 249q0 8 6 14l160 160q6 6 13 6h231q19 0 19 -19v-134q0 -19 -19 -19h-238v-85h343v343h-496q-19 0 -19 19v133q0 19 19 19h572q40 0 67.5 -27.5t27.5 -67.5v-496q0 -19 -7.5 -36.5t-20 -30.5t-30 -20.5t-37.5 -7.5h-496q-19 0 -36.5 7.5t-30.5 20.5t-20.5 30.5
t-7.5 36.5v154zM234 805l133 133q6 6 14 6h144q8 0 13.5 -6t5.5 -14v-133q0 -19 -19 -19h-278q-13 0 -17.5 12t4.5 21z" />
    <glyph glyph-name="Acircumflex" unicode="&#xc2;" 
d="M43 249q0 8 6 14l160 160q6 6 13 6h231q19 0 19 -19v-134q0 -19 -19 -19h-238v-85h343v343h-496q-19 0 -19 19v133q0 19 19 19h572q40 0 67.5 -27.5t27.5 -67.5v-496q0 -19 -7.5 -36.5t-20 -30.5t-30 -20.5t-37.5 -7.5h-496q-19 0 -36.5 7.5t-30.5 20.5t-20.5 30.5
t-7.5 36.5v154zM162 805l134 133q6 6 13 6h154q8 0 14 -6l133 -133q9 -9 4.5 -21t-17.5 -12h-421q-13 0 -18 12t4 21z" />
    <glyph glyph-name="Atilde" unicode="&#xc3;" 
d="M43 95v154q0 8 6 14l160 160q6 6 13 6h231q19 0 19 -19v-134q0 -19 -19 -19h-238v-85h343v343h-496q-19 0 -19 19v133q0 19 19 19h572q40 0 67.5 -27.5t27.5 -67.5v-496q0 -19 -7.5 -36.5t-20 -30.5t-30 -20.5t-37.5 -7.5h-496q-19 0 -36.5 7.5t-30.5 20.5t-20.5 30.5
t-7.5 36.5zM43 926q0 19 19 19h648q19 0 19 -19v-134q0 -19 -19 -19h-648q-19 0 -19 19v134z" />
    <glyph glyph-name="Adieresis" unicode="&#xc4;" 
d="M49 263l160 160q6 6 13 6h231q19 0 19 -19v-134q0 -19 -19 -19h-238v-85h343v343h-496q-19 0 -19 19v133q0 19 19 19h572q40 0 67.5 -27.5t27.5 -67.5v-496q0 -19 -7.5 -36.5t-20 -30.5t-30 -20.5t-37.5 -7.5h-496q-19 0 -36.5 7.5t-30.5 20.5t-20.5 30.5t-7.5 36.5v154
q0 8 6 14zM491 944h133q8 0 13.5 -6t5.5 -14v-133q0 -19 -19 -19h-133q-19 0 -19 19v133q0 8 5.5 14t13.5 6zM129 791v133q0 8 5.5 14t13.5 6h133q8 0 13.5 -6t5.5 -14v-133q0 -19 -19 -19h-133q-19 0 -19 19z" />
    <glyph glyph-name="Aring" unicode="&#xc5;" 
d="M49 263l160 160q6 6 13 6h231q19 0 19 -19v-134q0 -19 -19 -19h-238v-85h343v343h-496q-19 0 -19 19v133q0 19 19 19h572q40 0 67.5 -27.5t27.5 -67.5v-496q0 -19 -7.5 -36.5t-20 -30.5t-30 -20.5t-37.5 -7.5h-496q-19 0 -36.5 7.5t-30.5 20.5t-20.5 30.5t-7.5 36.5v154
q0 8 6 14zM300 791v133q0 8 5.5 14t13.5 6h134q8 0 13.5 -6t5.5 -14v-133q0 -19 -19 -19h-134q-19 0 -19 19z" />
    <glyph glyph-name="AE" unicode="&#xc6;" horiz-adv-x="1287" 
d="M62 665h1087q20 0 37 -7.5t30 -20.5t20.5 -30.5t7.5 -37.5v-154q0 -7 -6 -13l-160 -161q-8 -5 -14 -5h-230q-19 0 -19 19v133q0 19 19 19h238v86h-343v-343h496q19 0 19 -19v-134q0 -19 -19 -19h-1087q-19 0 -36.5 7.5t-30.5 20.5t-20.5 30.5t-7.5 37.5v154q0 7 6 13
l160 161q8 5 13 5h231q19 0 19 -19v-133q0 -19 -19 -19h-238v-86h343v343h-496q-19 0 -19 19v134q0 19 19 19z" />
    <glyph glyph-name="Ccedilla" unicode="&#xc7;" horiz-adv-x="686" 
d="M43 95v496q0 20 7.5 37.5t20.5 30t30.5 20t36.5 7.5h486q19 0 19 -19v-133q0 -19 -19 -19h-409v-343h409q8 0 13.5 -6t5.5 -14v-133q0 -19 -19 -19h-195v-153q0 -19 -19 -19h-133q-8 0 -14 5.5t-6 13.5v153h-119q-19 0 -36.5 7.5t-30.5 20.5t-20.5 30.5t-7.5 36.5z" />
    <glyph glyph-name="Egrave" unicode="&#xc8;" 
d="M43 591q0 20 7.5 37.5t20.5 30t30.5 20t36.5 7.5h496q40 0 67.5 -27.5t27.5 -67.5v-154q0 -6 -5 -14l-161 -160q-6 -6 -13 -6h-231q-19 0 -19 19v134q0 19 19 19h239v86h-343v-343h495q8 0 13.5 -6t5.5 -14v-133q0 -19 -19 -19h-572q-19 0 -36.5 7.5t-30.5 20.5
t-20.5 30.5t-7.5 36.5v496zM247 944h145q7 0 13 -6l134 -133q9 -9 4 -21t-18 -12h-278q-19 0 -19 19v133q0 8 5.5 14t13.5 6z" />
    <glyph glyph-name="Eacute" unicode="&#xc9;" 
d="M43 95v496q0 20 7.5 37.5t20.5 30t30.5 20t36.5 7.5h496q40 0 67.5 -27.5t27.5 -67.5v-154q0 -6 -5 -14l-161 -160q-6 -6 -13 -6h-231q-19 0 -19 19v134q0 19 19 19h239v86h-343v-343h495q8 0 13.5 -6t5.5 -14v-133q0 -19 -19 -19h-572q-19 0 -36.5 7.5t-30.5 20.5
t-20.5 30.5t-7.5 36.5zM234 805l133 133q6 6 14 6h144q8 0 13.5 -6t5.5 -14v-133q0 -19 -19 -19h-278q-13 0 -17.5 12t4.5 21z" />
    <glyph glyph-name="Ecircumflex" unicode="&#xca;" 
d="M43 95v496q0 20 7.5 37.5t20.5 30t30.5 20t36.5 7.5h496q40 0 67.5 -27.5t27.5 -67.5v-154q0 -6 -5 -14l-161 -160q-6 -6 -13 -6h-231q-19 0 -19 19v134q0 19 19 19h239v86h-343v-343h495q8 0 13.5 -6t5.5 -14v-133q0 -19 -19 -19h-572q-19 0 -36.5 7.5t-30.5 20.5
t-20.5 30.5t-7.5 36.5zM162 805l134 133q6 6 13 6h154q8 0 14 -6l133 -133q9 -9 4.5 -21t-17.5 -12h-421q-13 0 -18 12t4 21z" />
    <glyph glyph-name="Edieresis" unicode="&#xcb;" 
d="M43 95v496q0 20 7.5 37.5t20.5 30t30.5 20t36.5 7.5h496q40 0 67.5 -27.5t27.5 -67.5v-154q0 -6 -5 -14l-161 -160q-6 -6 -13 -6h-231q-19 0 -19 19v134q0 19 19 19h239v86h-343v-343h495q8 0 13.5 -6t5.5 -14v-133q0 -19 -19 -19h-572q-19 0 -36.5 7.5t-30.5 20.5
t-20.5 30.5t-7.5 36.5zM491 944h133q8 0 13.5 -6t5.5 -14v-133q0 -19 -19 -19h-133q-19 0 -19 19v133q0 8 5.5 14t13.5 6zM148 944h133q8 0 13.5 -6t5.5 -14v-133q0 -19 -19 -19h-133q-19 0 -19 19v133q0 8 5.5 14t13.5 6z" />
    <glyph glyph-name="Igrave" unicode="&#xcc;" horiz-adv-x="272" 
d="M50 667q0 19 19 19h134q19 0 19 -19v-648q0 -19 -19 -19h-134q-19 0 -19 19v648zM-3 944h145q7 0 13 -6l134 -133q9 -9 4 -21t-18 -12h-278q-19 0 -19 19v133q0 8 5.5 14t13.5 6z" />
    <glyph glyph-name="Iacute" unicode="&#xcd;" horiz-adv-x="272" 
d="M50 19v648q0 19 19 19h134q19 0 19 -19v-648q0 -19 -19 -19h-134q-19 0 -19 19zM-16 805l133 133q6 6 14 6h144q8 0 13.5 -6t5.5 -14v-133q0 -19 -19 -19h-278q-13 0 -17.5 12t4.5 21z" />
    <glyph glyph-name="Icircumflex" unicode="&#xce;" horiz-adv-x="259" 
d="M44 19v648q0 19 19 19h133q19 0 19 -19v-648q0 -19 -19 -19h-133q-19 0 -19 19zM-94 805l133 133q6 6 14 6h154q7 0 13 -6l134 -133q9 -9 4 -21t-18 -12h-421q-13 0 -17.5 12t4.5 21z" />
    <glyph glyph-name="Idieresis" unicode="&#xcf;" horiz-adv-x="263" 
d="M46 19v648q0 19 19 19h133q19 0 19 -19v-648q0 -19 -19 -19h-133q-19 0 -19 19zM217 791v133q0 8 5.5 14t13.5 6h134q8 0 13.5 -6t5.5 -14v-133q0 -19 -19 -19h-134q-19 0 -19 19zM-126 924q0 8 5.5 14t13.5 6h134q8 0 13.5 -6t5.5 -14v-133q0 -19 -19 -19h-134
q-19 0 -19 19v133z" />
    <glyph glyph-name="Eth" unicode="&#xd0;" 
d="M367 131q0 9 6.5 15t14.5 6h53q9 0 15 -6t6 -15v-93h19v93q0 9 6.5 15t15.5 6h53q8 0 14.5 -6t6.5 -15v-127l-34 -4l-4 114h-19v-93q0 -9 -6.5 -15t-15.5 -6h-53q-8 0 -14.5 6t-6.5 15v93h-19v-110l-34 -4zM215 473q0 8 6 14.5t15 6.5h110q9 0 15 -6.5t6 -14.5v-111
q0 -8 -6 -14.5t-15 -6.5h-110q-9 0 -15 6.5t-6 14.5v111zM196 21v110q0 9 6 15t15 6h110q9 0 15 -6t6 -15v-110q0 -9 -6 -15t-15 -6h-110q-9 0 -15 6t-6 15zM174 494q9 0 15.5 -6.5t6.5 -14.5v-53q0 -9 -6.5 -15.5t-15.5 -6.5h-36v-19h53l5 -33l-75 -5q-8 0 -14.5 6.5
t-6.5 14.5v70l57 5v19h-76v-110l-34 -5l-4 149zM541 323h110q9 0 15 -6t6 -15v-34l-37 -39l-54 -1l-4 34l57 4v19h-76v-76h110l4 -34l-131 -4q-9 0 -15 6t-6 15v110q0 9 6 15t15 6zM500 379v19h-74l-39 37l-1 38q0 8 6.5 14.5t14.5 6.5h127l5 -34l-115 -4v-19h75l38 -37
l2 -38q0 -8 -6.5 -14.5t-15.5 -6.5h-127l-4 34zM348 319l131 4q9 0 15 -6t6 -15v-53q0 -9 -6 -15t-15 -6h-36v-53l-34 -4l-4 91l57 4v19h-76v-110l-34 -4zM291 209v19h-75l-38 37l-2 54l34 4l5 -57h76v53l34 4l4 -131q0 -9 -6.5 -15t-14.5 -6h-127l-5 34zM43 131q0 9 6 15
t15 6h108l4 -33l-95 -5v-76h91l4 -34l-112 -4q-9 0 -15 6t-6 15v110zM153 323l4 -4v-30l-38 -4v-110l-34 -4l-4 114h-34l-4 34zM253 456v-77h76v77h-76zM234 38h76v76h-76v-76zM306 437l4 -34l-4 -5h-30l-4 34zM253 91l34 4l4 -34l-4 -4h-30zM725 209l4 -34l-34 -4l-4 34z
" />
    <glyph glyph-name="Ntilde" unicode="&#xd1;" 
d="M43 19v572q0 20 7.5 37.5t20.5 30t30.5 20t36.5 7.5h239q20 0 37 -7.5t30 -20t20.5 -30t7.5 -37.5v-419h86v495q0 19 19 19h133q19 0 19 -19v-572q0 -19 -7.5 -36.5t-20 -30.5t-30 -20.5t-37.5 -7.5h-238q-20 0 -37.5 7.5t-30.5 20.5t-20.5 30.5t-7.5 36.5v420h-85v-496
q0 -19 -19 -19h-134q-19 0 -19 19zM43 792v134q0 19 19 19h648q19 0 19 -19v-134q0 -19 -19 -19h-648q-19 0 -19 19z" />
    <glyph glyph-name="Ograve" unicode="&#xd2;" 
d="M43 591q0 20 7.5 37.5t20.5 30t30.5 20t36.5 7.5h496q40 0 67.5 -27.5t27.5 -67.5v-496q0 -19 -7.5 -36.5t-20 -30.5t-30 -20.5t-37.5 -7.5h-496q-19 0 -36.5 7.5t-30.5 20.5t-20.5 30.5t-7.5 36.5v496zM215 172h343v343h-343v-343zM228 791v133q0 8 5.5 14t13.5 6h145
q7 0 13 -6l134 -133q9 -9 4 -21t-18 -12h-278q-19 0 -19 19z" />
    <glyph glyph-name="Oacute" unicode="&#xd3;" 
d="M43 591q0 20 7.5 37.5t20.5 30t30.5 20t36.5 7.5h496q40 0 67.5 -27.5t27.5 -67.5v-496q0 -19 -7.5 -36.5t-20 -30.5t-30 -20.5t-37.5 -7.5h-496q-19 0 -36.5 7.5t-30.5 20.5t-20.5 30.5t-7.5 36.5v496zM215 515v-343h343v343h-343zM234 805l133 133q6 6 14 6h144
q8 0 13.5 -6t5.5 -14v-133q0 -19 -19 -19h-278q-13 0 -17.5 12t4.5 21z" />
    <glyph glyph-name="Ocircumflex" unicode="&#xd4;" 
d="M43 591q0 20 7.5 37.5t20.5 30t30.5 20t36.5 7.5h496q40 0 67.5 -27.5t27.5 -67.5v-496q0 -19 -7.5 -36.5t-20 -30.5t-30 -20.5t-37.5 -7.5h-496q-19 0 -36.5 7.5t-30.5 20.5t-20.5 30.5t-7.5 36.5v496zM558 172v343h-343v-343h343zM162 805l134 133q6 6 13 6h154
q8 0 14 -6l133 -133q9 -9 4.5 -21t-17.5 -12h-421q-13 0 -18 12t4 21z" />
    <glyph glyph-name="Otilde" unicode="&#xd5;" 
d="M43 591q0 20 7.5 37.5t20.5 30t30.5 20t36.5 7.5h496q40 0 67.5 -27.5t27.5 -67.5v-496q0 -19 -7.5 -36.5t-20 -30.5t-30 -20.5t-37.5 -7.5h-496q-19 0 -36.5 7.5t-30.5 20.5t-20.5 30.5t-7.5 36.5v496zM62 945h648q19 0 19 -19v-134q0 -19 -19 -19h-648q-19 0 -19 19
v134q0 19 19 19zM215 172h343v343h-343v-343z" />
    <glyph glyph-name="Odieresis" unicode="&#xd6;" 
d="M43 591q0 20 7.5 37.5t20.5 30t30.5 20t36.5 7.5h496q40 0 67.5 -27.5t27.5 -67.5v-496q0 -19 -7.5 -36.5t-20 -30.5t-30 -20.5t-37.5 -7.5h-496q-19 0 -36.5 7.5t-30.5 20.5t-20.5 30.5t-7.5 36.5v496zM215 172h343v343h-343v-343zM472 791v133q0 8 5.5 14t13.5 6h133
q8 0 13.5 -6t5.5 -14v-133q0 -19 -19 -19h-133q-19 0 -19 19zM148 944h133q8 0 13.5 -6t5.5 -14v-133q0 -19 -19 -19h-133q-19 0 -19 19v133q0 8 5.5 14t13.5 6z" />
    <glyph glyph-name="multiply" unicode="&#xd7;" horiz-adv-x="562" 
d="M49 232l111 111l-111 111q-6 6 -5.5 13.5t5.5 13.5l94 95q8 5 13 5q6 0 14 -5l111 -112l111 112q8 5 14 5q8 0 13 -5l95 -95q5 -5 5.5 -13.5t-5.5 -13.5l-112 -111l112 -111q6 -5 5.5 -13.5t-5.5 -13.5l-95 -94q-6 -6 -13 -6q-8 0 -14 6l-111 111l-111 -111q-6 -6 -14 -6
q-7 0 -13 6l-94 94q-13 14 0 27z" />
    <glyph glyph-name="Oslash" unicode="&#xd8;" 
d="M367 131q0 9 6.5 15t14.5 6h53q9 0 15 -6t6 -15v-93h19v93q0 9 6.5 15t15.5 6h53q8 0 14.5 -6t6.5 -15v-127l-34 -4l-4 114h-19v-93q0 -9 -6.5 -15t-15.5 -6h-53q-8 0 -14.5 6t-6.5 15v93h-19v-110l-34 -4zM215 473q0 8 6 14.5t15 6.5h110q9 0 15 -6.5t6 -14.5v-111
q0 -8 -6 -14.5t-15 -6.5h-110q-9 0 -15 6.5t-6 14.5v111zM196 21v110q0 9 6 15t15 6h110q9 0 15 -6t6 -15v-110q0 -9 -6 -15t-15 -6h-110q-9 0 -15 6t-6 15zM174 494q9 0 15.5 -6.5t6.5 -14.5v-53q0 -9 -6.5 -15.5t-15.5 -6.5h-36v-19h53l5 -33l-75 -5q-8 0 -14.5 6.5
t-6.5 14.5v70l57 5v19h-76v-110l-34 -5l-4 149zM541 323h110q9 0 15 -6t6 -15v-34l-37 -39l-54 -1l-4 34l57 4v19h-76v-76h110l4 -34l-131 -4q-9 0 -15 6t-6 15v110q0 9 6 15t15 6zM500 379v19h-74l-39 37l-1 38q0 8 6.5 14.5t14.5 6.5h127l5 -34l-115 -4v-19h75l38 -37
l2 -38q0 -8 -6.5 -14.5t-15.5 -6.5h-127l-4 34zM348 319l131 4q9 0 15 -6t6 -15v-53q0 -9 -6 -15t-15 -6h-36v-53l-34 -4l-4 91l57 4v19h-76v-110l-34 -4zM291 209v19h-75l-38 37l-2 54l34 4l5 -57h76v53l34 4l4 -131q0 -9 -6.5 -15t-14.5 -6h-127l-5 34zM43 131q0 9 6 15
t15 6h108l4 -33l-95 -5v-76h91l4 -34l-112 -4q-9 0 -15 6t-6 15v110zM153 323l4 -4v-30l-38 -4v-110l-34 -4l-4 114h-34l-4 34zM253 456v-77h76v77h-76zM234 38h76v76h-76v-76zM306 437l4 -34l-4 -5h-30l-4 34zM253 91l34 4l4 -34l-4 -4h-30zM725 209l4 -34l-34 -4l-4 34z
" />
    <glyph glyph-name="Ugrave" unicode="&#xd9;" 
d="M43 95v572q0 19 19 19h134q19 0 19 -19v-495h343v495q0 19 19 19h133q19 0 19 -19v-572q0 -19 -7.5 -36.5t-20 -30.5t-30 -20.5t-37.5 -7.5h-496q-19 0 -36.5 7.5t-30.5 20.5t-20.5 30.5t-7.5 36.5zM247 944h145q7 0 13 -6l134 -133q9 -9 4 -21t-18 -12h-278
q-19 0 -19 19v133q0 8 5.5 14t13.5 6z" />
    <glyph glyph-name="Uacute" unicode="&#xda;" 
d="M62 686h134q19 0 19 -19v-495h343v495q0 19 19 19h133q19 0 19 -19v-572q0 -19 -7.5 -36.5t-20 -30.5t-30 -20.5t-37.5 -7.5h-496q-19 0 -36.5 7.5t-30.5 20.5t-20.5 30.5t-7.5 36.5v572q0 19 19 19zM234 805l133 133q6 6 14 6h144q8 0 13.5 -6t5.5 -14v-133
q0 -19 -19 -19h-278q-13 0 -17.5 12t4.5 21z" />
    <glyph glyph-name="Ucircumflex" unicode="&#xdb;" 
d="M62 686h134q19 0 19 -19v-495h343v495q0 19 19 19h133q19 0 19 -19v-572q0 -19 -7.5 -36.5t-20 -30.5t-30 -20.5t-37.5 -7.5h-496q-19 0 -36.5 7.5t-30.5 20.5t-20.5 30.5t-7.5 36.5v572q0 19 19 19zM162 805l134 133q6 6 13 6h154q8 0 14 -6l133 -133q9 -9 4.5 -21
t-17.5 -12h-421q-13 0 -18 12t4 21z" />
    <glyph glyph-name="Udieresis" unicode="&#xdc;" 
d="M62 686h134q19 0 19 -19v-495h343v495q0 19 19 19h133q19 0 19 -19v-572q0 -19 -7.5 -36.5t-20 -30.5t-30 -20.5t-37.5 -7.5h-496q-19 0 -36.5 7.5t-30.5 20.5t-20.5 30.5t-7.5 36.5v572q0 19 19 19zM472 924q0 8 5.5 14t13.5 6h133q8 0 13.5 -6t5.5 -14v-133
q0 -19 -19 -19h-133q-19 0 -19 19v133zM129 924q0 8 5.5 14t13.5 6h133q8 0 13.5 -6t5.5 -14v-133q0 -19 -19 -19h-133q-19 0 -19 19v133z" />
    <glyph glyph-name="Yacute" unicode="&#xdd;" 
d="M43 437v230q0 19 19 19h134q19 0 19 -19v-238h343v238q0 19 19 19h133q19 0 19 -19v-572q0 -19 -7.5 -36.5t-20 -30.5t-30 -20.5t-37.5 -7.5h-572q-19 0 -19 19v133q0 8 5.5 14t13.5 6h496v85h-336q-7 0 -13 6l-160 160q-6 6 -6 14zM234 805l133 133q6 6 14 6h144
q8 0 13.5 -6t5.5 -14v-133q0 -19 -19 -19h-278q-13 0 -17.5 12t4.5 21z" />
    <glyph glyph-name="Thorn" unicode="&#xde;" 
d="M367 131q0 9 6.5 15t14.5 6h53q9 0 15 -6t6 -15v-93h19v93q0 9 6.5 15t15.5 6h53q8 0 14.5 -6t6.5 -15v-127l-34 -4l-4 114h-19v-93q0 -9 -6.5 -15t-15.5 -6h-53q-8 0 -14.5 6t-6.5 15v93h-19v-110l-34 -4zM215 473q0 8 6 14.5t15 6.5h110q9 0 15 -6.5t6 -14.5v-111
q0 -8 -6 -14.5t-15 -6.5h-110q-9 0 -15 6.5t-6 14.5v111zM196 21v110q0 9 6 15t15 6h110q9 0 15 -6t6 -15v-110q0 -9 -6 -15t-15 -6h-110q-9 0 -15 6t-6 15zM174 494q9 0 15.5 -6.5t6.5 -14.5v-53q0 -9 -6.5 -15.5t-15.5 -6.5h-36v-19h53l5 -33l-75 -5q-8 0 -14.5 6.5
t-6.5 14.5v70l57 5v19h-76v-110l-34 -5l-4 149zM541 323h110q9 0 15 -6t6 -15v-34l-37 -39l-54 -1l-4 34l57 4v19h-76v-76h110l4 -34l-131 -4q-9 0 -15 6t-6 15v110q0 9 6 15t15 6zM500 379v19h-74l-39 37l-1 38q0 8 6.5 14.5t14.5 6.5h127l5 -34l-115 -4v-19h75l38 -37
l2 -38q0 -8 -6.5 -14.5t-15.5 -6.5h-127l-4 34zM348 319l131 4q9 0 15 -6t6 -15v-53q0 -9 -6 -15t-15 -6h-36v-53l-34 -4l-4 91l57 4v19h-76v-110l-34 -4zM291 209v19h-75l-38 37l-2 54l34 4l5 -57h76v53l34 4l4 -131q0 -9 -6.5 -15t-14.5 -6h-127l-5 34zM43 131q0 9 6 15
t15 6h108l4 -33l-95 -5v-76h91l4 -34l-112 -4q-9 0 -15 6t-6 15v110zM153 323l4 -4v-30l-38 -4v-110l-34 -4l-4 114h-34l-4 34zM253 456v-77h76v77h-76zM234 38h76v76h-76v-76zM306 437l4 -34l-4 -5h-30l-4 34zM253 91l34 4l4 -34l-4 -4h-30zM725 209l4 -34l-34 -4l-4 34z
" />
    <glyph glyph-name="germandbls" unicode="&#xdf;" 
d="M43 19v572q0 20 7.5 37.5t20.5 30t30.5 20t36.5 7.5h324q40 0 68 -27.5t28 -67.5v-164l166 -164q5 -8 5 -14v-154q0 -19 -7.5 -36.5t-20 -30.5t-30 -20.5t-37.5 -7.5h-315q-19 0 -19 19v133q0 8 5.5 14t13.5 6h239v85h-239q-19 0 -19 19v134q0 19 19 19h67v86h-171v-496
q0 -19 -19 -19h-134q-19 0 -19 19z" />
    <glyph glyph-name="agrave" unicode="&#xe0;" 
d="M43 249q0 8 6 14l160 160q6 6 13 6h231q19 0 19 -19v-134q0 -19 -19 -19h-238v-85h343v343h-496q-19 0 -19 19v133q0 19 19 19h572q40 0 67.5 -27.5t27.5 -67.5v-496q0 -19 -7.5 -36.5t-20 -30.5t-30 -20.5t-37.5 -7.5h-496q-19 0 -36.5 7.5t-30.5 20.5t-20.5 30.5
t-7.5 36.5v154zM228 924q0 8 5.5 14t13.5 6h145q7 0 13 -6l134 -133q9 -9 4 -21t-18 -12h-278q-19 0 -19 19v133z" />
    <glyph glyph-name="aacute" unicode="&#xe1;" 
d="M43 249q0 8 6 14l160 160q6 6 13 6h231q19 0 19 -19v-134q0 -19 -19 -19h-238v-85h343v343h-496q-19 0 -19 19v133q0 19 19 19h572q40 0 67.5 -27.5t27.5 -67.5v-496q0 -19 -7.5 -36.5t-20 -30.5t-30 -20.5t-37.5 -7.5h-496q-19 0 -36.5 7.5t-30.5 20.5t-20.5 30.5
t-7.5 36.5v154zM234 805l133 133q6 6 14 6h144q8 0 13.5 -6t5.5 -14v-133q0 -19 -19 -19h-278q-13 0 -17.5 12t4.5 21z" />
    <glyph glyph-name="acircumflex" unicode="&#xe2;" 
d="M43 249q0 8 6 14l160 160q6 6 13 6h231q19 0 19 -19v-134q0 -19 -19 -19h-238v-85h343v343h-496q-19 0 -19 19v133q0 19 19 19h572q40 0 67.5 -27.5t27.5 -67.5v-496q0 -19 -7.5 -36.5t-20 -30.5t-30 -20.5t-37.5 -7.5h-496q-19 0 -36.5 7.5t-30.5 20.5t-20.5 30.5
t-7.5 36.5v154zM162 805l134 133q6 6 13 6h154q8 0 14 -6l133 -133q9 -9 4.5 -21t-17.5 -12h-421q-13 0 -18 12t4 21z" />
    <glyph glyph-name="atilde" unicode="&#xe3;" 
d="M43 95v154q0 8 6 14l160 160q6 6 13 6h231q19 0 19 -19v-134q0 -19 -19 -19h-238v-85h343v343h-496q-19 0 -19 19v133q0 19 19 19h572q40 0 67.5 -27.5t27.5 -67.5v-496q0 -19 -7.5 -36.5t-20 -30.5t-30 -20.5t-37.5 -7.5h-496q-19 0 -36.5 7.5t-30.5 20.5t-20.5 30.5
t-7.5 36.5zM43 926q0 19 19 19h648q19 0 19 -19v-134q0 -19 -19 -19h-648q-19 0 -19 19v134z" />
    <glyph glyph-name="adieresis" unicode="&#xe4;" 
d="M49 263l160 160q6 6 13 6h231q19 0 19 -19v-134q0 -19 -19 -19h-238v-85h343v343h-496q-19 0 -19 19v133q0 19 19 19h572q40 0 67.5 -27.5t27.5 -67.5v-496q0 -19 -7.5 -36.5t-20 -30.5t-30 -20.5t-37.5 -7.5h-496q-19 0 -36.5 7.5t-30.5 20.5t-20.5 30.5t-7.5 36.5v154
q0 8 6 14zM491 944h133q8 0 13.5 -6t5.5 -14v-133q0 -19 -19 -19h-133q-19 0 -19 19v133q0 8 5.5 14t13.5 6zM129 791v133q0 8 5.5 14t13.5 6h133q8 0 13.5 -6t5.5 -14v-133q0 -19 -19 -19h-133q-19 0 -19 19z" />
    <glyph glyph-name="aring" unicode="&#xe5;" 
d="M49 263l160 160q6 6 13 6h231q19 0 19 -19v-134q0 -19 -19 -19h-238v-85h343v343h-496q-19 0 -19 19v133q0 19 19 19h572q40 0 67.5 -27.5t27.5 -67.5v-496q0 -19 -7.5 -36.5t-20 -30.5t-30 -20.5t-37.5 -7.5h-496q-19 0 -36.5 7.5t-30.5 20.5t-20.5 30.5t-7.5 36.5v154
q0 8 6 14zM300 791v133q0 8 5.5 14t13.5 6h134q8 0 13.5 -6t5.5 -14v-133q0 -19 -19 -19h-134q-19 0 -19 19z" />
    <glyph glyph-name="ae" unicode="&#xe6;" horiz-adv-x="1287" 
d="M62 665h1087q20 0 37 -7.5t30 -20.5t20.5 -30.5t7.5 -37.5v-154q0 -7 -6 -13l-160 -161q-8 -5 -14 -5h-230q-19 0 -19 19v133q0 19 19 19h238v86h-343v-343h496q19 0 19 -19v-134q0 -19 -19 -19h-1087q-19 0 -36.5 7.5t-30.5 20.5t-20.5 30.5t-7.5 37.5v154q0 7 6 13
l160 161q8 5 13 5h231q19 0 19 -19v-133q0 -19 -19 -19h-238v-86h343v343h-496q-19 0 -19 19v134q0 19 19 19z" />
    <glyph glyph-name="ccedilla" unicode="&#xe7;" horiz-adv-x="686" 
d="M43 95v496q0 20 7.5 37.5t20.5 30t30.5 20t36.5 7.5h486q19 0 19 -19v-133q0 -19 -19 -19h-409v-343h409q8 0 13.5 -6t5.5 -14v-133q0 -19 -19 -19h-195v-153q0 -19 -19 -19h-133q-8 0 -14 5.5t-6 13.5v153h-119q-19 0 -36.5 7.5t-30.5 20.5t-20.5 30.5t-7.5 36.5z" />
    <glyph glyph-name="egrave" unicode="&#xe8;" 
d="M43 591q0 20 7.5 37.5t20.5 30t30.5 20t36.5 7.5h496q40 0 67.5 -27.5t27.5 -67.5v-154q0 -6 -5 -14l-161 -160q-6 -6 -13 -6h-231q-19 0 -19 19v134q0 19 19 19h239v86h-343v-343h495q8 0 13.5 -6t5.5 -14v-133q0 -19 -19 -19h-572q-19 0 -36.5 7.5t-30.5 20.5
t-20.5 30.5t-7.5 36.5v496zM247 944h145q7 0 13 -6l134 -133q9 -9 4 -21t-18 -12h-278q-19 0 -19 19v133q0 8 5.5 14t13.5 6z" />
    <glyph glyph-name="eacute" unicode="&#xe9;" 
d="M43 95v496q0 20 7.5 37.5t20.5 30t30.5 20t36.5 7.5h496q40 0 67.5 -27.5t27.5 -67.5v-154q0 -6 -5 -14l-161 -160q-6 -6 -13 -6h-231q-19 0 -19 19v134q0 19 19 19h239v86h-343v-343h495q8 0 13.5 -6t5.5 -14v-133q0 -19 -19 -19h-572q-19 0 -36.5 7.5t-30.5 20.5
t-20.5 30.5t-7.5 36.5zM234 805l133 133q6 6 14 6h144q8 0 13.5 -6t5.5 -14v-133q0 -19 -19 -19h-278q-13 0 -17.5 12t4.5 21z" />
    <glyph glyph-name="ecircumflex" unicode="&#xea;" 
d="M43 95v496q0 20 7.5 37.5t20.5 30t30.5 20t36.5 7.5h496q40 0 67.5 -27.5t27.5 -67.5v-154q0 -6 -5 -14l-161 -160q-6 -6 -13 -6h-231q-19 0 -19 19v134q0 19 19 19h239v86h-343v-343h495q8 0 13.5 -6t5.5 -14v-133q0 -19 -19 -19h-572q-19 0 -36.5 7.5t-30.5 20.5
t-20.5 30.5t-7.5 36.5zM162 805l134 133q6 6 13 6h154q8 0 14 -6l133 -133q9 -9 4.5 -21t-17.5 -12h-421q-13 0 -18 12t4 21z" />
    <glyph glyph-name="edieresis" unicode="&#xeb;" 
d="M43 95v496q0 20 7.5 37.5t20.5 30t30.5 20t36.5 7.5h496q40 0 67.5 -27.5t27.5 -67.5v-154q0 -6 -5 -14l-161 -160q-6 -6 -13 -6h-231q-19 0 -19 19v134q0 19 19 19h239v86h-343v-343h495q8 0 13.5 -6t5.5 -14v-133q0 -19 -19 -19h-572q-19 0 -36.5 7.5t-30.5 20.5
t-20.5 30.5t-7.5 36.5zM491 944h133q8 0 13.5 -6t5.5 -14v-133q0 -19 -19 -19h-133q-19 0 -19 19v133q0 8 5.5 14t13.5 6zM148 944h133q8 0 13.5 -6t5.5 -14v-133q0 -19 -19 -19h-133q-19 0 -19 19v133q0 8 5.5 14t13.5 6z" />
    <glyph glyph-name="igrave" unicode="&#xec;" horiz-adv-x="272" 
d="M50 667q0 19 19 19h134q19 0 19 -19v-648q0 -19 -19 -19h-134q-19 0 -19 19v648zM-3 944h145q7 0 13 -6l134 -133q9 -9 4 -21t-18 -12h-278q-19 0 -19 19v133q0 8 5.5 14t13.5 6z" />
    <glyph glyph-name="iacute" unicode="&#xed;" horiz-adv-x="272" 
d="M50 19v648q0 19 19 19h134q19 0 19 -19v-648q0 -19 -19 -19h-134q-19 0 -19 19zM-16 805l133 133q6 6 14 6h144q8 0 13.5 -6t5.5 -14v-133q0 -19 -19 -19h-278q-13 0 -17.5 12t4.5 21z" />
    <glyph glyph-name="icircumflex" unicode="&#xee;" horiz-adv-x="259" 
d="M44 19v648q0 19 19 19h133q19 0 19 -19v-648q0 -19 -19 -19h-133q-19 0 -19 19zM-94 805l133 133q6 6 14 6h154q7 0 13 -6l134 -133q9 -9 4 -21t-18 -12h-421q-13 0 -17.5 12t4.5 21z" />
    <glyph glyph-name="idieresis" unicode="&#xef;" horiz-adv-x="263" 
d="M46 19v648q0 19 19 19h133q19 0 19 -19v-648q0 -19 -19 -19h-133q-19 0 -19 19zM217 791v133q0 8 5.5 14t13.5 6h134q8 0 13.5 -6t5.5 -14v-133q0 -19 -19 -19h-134q-19 0 -19 19zM-126 924q0 8 5.5 14t13.5 6h134q8 0 13.5 -6t5.5 -14v-133q0 -19 -19 -19h-134
q-19 0 -19 19v133z" />
    <glyph glyph-name="eth" unicode="&#xf0;" 
d="M367 131q0 9 6.5 15t14.5 6h53q9 0 15 -6t6 -15v-93h19v93q0 9 6.5 15t15.5 6h53q8 0 14.5 -6t6.5 -15v-127l-34 -4l-4 114h-19v-93q0 -9 -6.5 -15t-15.5 -6h-53q-8 0 -14.5 6t-6.5 15v93h-19v-110l-34 -4zM215 473q0 8 6 14.5t15 6.5h110q9 0 15 -6.5t6 -14.5v-111
q0 -8 -6 -14.5t-15 -6.5h-110q-9 0 -15 6.5t-6 14.5v111zM196 21v110q0 9 6 15t15 6h110q9 0 15 -6t6 -15v-110q0 -9 -6 -15t-15 -6h-110q-9 0 -15 6t-6 15zM174 494q9 0 15.5 -6.5t6.5 -14.5v-53q0 -9 -6.5 -15.5t-15.5 -6.5h-36v-19h53l5 -33l-75 -5q-8 0 -14.5 6.5
t-6.5 14.5v70l57 5v19h-76v-110l-34 -5l-4 149zM541 323h110q9 0 15 -6t6 -15v-34l-37 -39l-54 -1l-4 34l57 4v19h-76v-76h110l4 -34l-131 -4q-9 0 -15 6t-6 15v110q0 9 6 15t15 6zM500 379v19h-74l-39 37l-1 38q0 8 6.5 14.5t14.5 6.5h127l5 -34l-115 -4v-19h75l38 -37
l2 -38q0 -8 -6.5 -14.5t-15.5 -6.5h-127l-4 34zM348 319l131 4q9 0 15 -6t6 -15v-53q0 -9 -6 -15t-15 -6h-36v-53l-34 -4l-4 91l57 4v19h-76v-110l-34 -4zM291 209v19h-75l-38 37l-2 54l34 4l5 -57h76v53l34 4l4 -131q0 -9 -6.5 -15t-14.5 -6h-127l-5 34zM43 131q0 9 6 15
t15 6h108l4 -33l-95 -5v-76h91l4 -34l-112 -4q-9 0 -15 6t-6 15v110zM153 323l4 -4v-30l-38 -4v-110l-34 -4l-4 114h-34l-4 34zM253 456v-77h76v77h-76zM234 38h76v76h-76v-76zM306 437l4 -34l-4 -5h-30l-4 34zM253 91l34 4l4 -34l-4 -4h-30zM725 209l4 -34l-34 -4l-4 34z
" />
    <glyph glyph-name="ntilde" unicode="&#xf1;" 
d="M43 591q0 20 7.5 37.5t20.5 30t30.5 20t36.5 7.5h154q6 0 14 -5l160 -161q6 -6 6 -13v-335h86v495q0 19 19 19h133q19 0 19 -19v-572q0 -19 -7.5 -36.5t-20 -30.5t-30 -20.5t-37.5 -7.5h-154q-8 0 -14 6l-160 160q-6 6 -6 13v336h-85v-496q0 -19 -19 -19h-134
q-19 0 -19 19v572zM43 792v134q0 19 19 19h648q19 0 19 -19v-134q0 -19 -19 -19h-648q-19 0 -19 19z" />
    <glyph glyph-name="ograve" unicode="&#xf2;" 
d="M43 591q0 20 7.5 37.5t20.5 30t30.5 20t36.5 7.5h496q40 0 67.5 -27.5t27.5 -67.5v-496q0 -19 -7.5 -36.5t-20 -30.5t-30 -20.5t-37.5 -7.5h-496q-19 0 -36.5 7.5t-30.5 20.5t-20.5 30.5t-7.5 36.5v496zM215 172h343v343h-343v-343zM228 924q0 8 5.5 14t13.5 6h145
q7 0 13 -6l134 -133q9 -9 4 -21t-18 -12h-278q-19 0 -19 19v133zM300 276v134q0 19 19 19h134q19 0 19 -19v-134q0 -19 -19 -19h-134q-19 0 -19 19z" />
    <glyph glyph-name="oacute" unicode="&#xf3;" 
d="M43 591q0 20 7.5 37.5t20.5 30t30.5 20t36.5 7.5h496q40 0 67.5 -27.5t27.5 -67.5v-496q0 -19 -7.5 -36.5t-20 -30.5t-30 -20.5t-37.5 -7.5h-496q-19 0 -36.5 7.5t-30.5 20.5t-20.5 30.5t-7.5 36.5v496zM215 172h343v343h-343v-343zM234 805l133 133q6 6 14 6h144
q8 0 13.5 -6t5.5 -14v-133q0 -19 -19 -19h-278q-13 0 -17.5 12t4.5 21zM300 410q0 19 19 19h134q19 0 19 -19v-134q0 -19 -19 -19h-134q-19 0 -19 19v134z" />
    <glyph glyph-name="ocircumflex" unicode="&#xf4;" 
d="M43 591q0 20 7.5 37.5t20.5 30t30.5 20t36.5 7.5h496q40 0 67.5 -27.5t27.5 -67.5v-496q0 -19 -7.5 -36.5t-20 -30.5t-30 -20.5t-37.5 -7.5h-496q-19 0 -36.5 7.5t-30.5 20.5t-20.5 30.5t-7.5 36.5v496zM215 172h343v343h-343v-343zM162 805l134 133q6 6 13 6h154
q8 0 14 -6l133 -133q9 -9 4.5 -21t-17.5 -12h-421q-13 0 -18 12t4 21zM300 410q0 19 19 19h134q19 0 19 -19v-134q0 -19 -19 -19h-134q-19 0 -19 19v134z" />
    <glyph glyph-name="otilde" unicode="&#xf5;" 
d="M43 591q0 20 7.5 37.5t20.5 30t30.5 20t36.5 7.5h496q40 0 67.5 -27.5t27.5 -67.5v-496q0 -19 -7.5 -36.5t-20 -30.5t-30 -20.5t-37.5 -7.5h-496q-19 0 -36.5 7.5t-30.5 20.5t-20.5 30.5t-7.5 36.5v496zM62 945h648q19 0 19 -19v-134q0 -19 -19 -19h-648q-19 0 -19 19
v134q0 19 19 19zM558 172v343h-343v-343h343zM300 276v134q0 19 19 19h134q19 0 19 -19v-134q0 -19 -19 -19h-134q-19 0 -19 19z" />
    <glyph glyph-name="odieresis" unicode="&#xf6;" 
d="M43 591q0 20 7.5 37.5t20.5 30t30.5 20t36.5 7.5h496q40 0 67.5 -27.5t27.5 -67.5v-496q0 -19 -7.5 -36.5t-20 -30.5t-30 -20.5t-37.5 -7.5h-496q-19 0 -36.5 7.5t-30.5 20.5t-20.5 30.5t-7.5 36.5v496zM215 515v-343h343v343h-343zM300 410q0 19 19 19h134q19 0 19 -19
v-134q0 -19 -19 -19h-134q-19 0 -19 19v134zM472 791v133q0 8 5.5 14t13.5 6h133q8 0 13.5 -6t5.5 -14v-133q0 -19 -19 -19h-133q-19 0 -19 19zM148 944h133q8 0 13.5 -6t5.5 -14v-133q0 -19 -19 -19h-133q-19 0 -19 19v133q0 8 5.5 14t13.5 6z" />
    <glyph glyph-name="divide" unicode="&#xf7;" 
d="M367 131q0 9 6.5 15t14.5 6h53q9 0 15 -6t6 -15v-93h19v93q0 9 6.5 15t15.5 6h53q8 0 14.5 -6t6.5 -15v-127l-34 -4l-4 114h-19v-93q0 -9 -6.5 -15t-15.5 -6h-53q-8 0 -14.5 6t-6.5 15v93h-19v-110l-34 -4zM215 473q0 8 6 14.5t15 6.5h110q9 0 15 -6.5t6 -14.5v-111
q0 -8 -6 -14.5t-15 -6.5h-110q-9 0 -15 6.5t-6 14.5v111zM196 21v110q0 9 6 15t15 6h110q9 0 15 -6t6 -15v-110q0 -9 -6 -15t-15 -6h-110q-9 0 -15 6t-6 15zM174 494q9 0 15.5 -6.5t6.5 -14.5v-53q0 -9 -6.5 -15.5t-15.5 -6.5h-36v-19h53l5 -33l-75 -5q-8 0 -14.5 6.5
t-6.5 14.5v70l57 5v19h-76v-110l-34 -5l-4 149zM541 323h110q9 0 15 -6t6 -15v-34l-37 -39l-54 -1l-4 34l57 4v19h-76v-76h110l4 -34l-131 -4q-9 0 -15 6t-6 15v110q0 9 6 15t15 6zM500 379v19h-74l-39 37l-1 38q0 8 6.5 14.5t14.5 6.5h127l5 -34l-115 -4v-19h75l38 -37
l2 -38q0 -8 -6.5 -14.5t-15.5 -6.5h-127l-4 34zM348 319l131 4q9 0 15 -6t6 -15v-53q0 -9 -6 -15t-15 -6h-36v-53l-34 -4l-4 91l57 4v19h-76v-110l-34 -4zM291 209v19h-75l-38 37l-2 54l34 4l5 -57h76v53l34 4l4 -131q0 -9 -6.5 -15t-14.5 -6h-127l-5 34zM43 131q0 9 6 15
t15 6h108l4 -33l-95 -5v-76h91l4 -34l-112 -4q-9 0 -15 6t-6 15v110zM153 323l4 -4v-30l-38 -4v-110l-34 -4l-4 114h-34l-4 34zM253 456v-77h76v77h-76zM234 38h76v76h-76v-76zM306 437l4 -34l-4 -5h-30l-4 34zM253 91l34 4l4 -34l-4 -4h-30zM725 209l4 -34l-34 -4l-4 34z
" />
    <glyph glyph-name="oslash" unicode="&#xf8;" 
d="M367 131q0 9 6.5 15t14.5 6h53q9 0 15 -6t6 -15v-93h19v93q0 9 6.5 15t15.5 6h53q8 0 14.5 -6t6.5 -15v-127l-34 -4l-4 114h-19v-93q0 -9 -6.5 -15t-15.5 -6h-53q-8 0 -14.5 6t-6.5 15v93h-19v-110l-34 -4zM215 473q0 8 6 14.5t15 6.5h110q9 0 15 -6.5t6 -14.5v-111
q0 -8 -6 -14.5t-15 -6.5h-110q-9 0 -15 6.5t-6 14.5v111zM196 21v110q0 9 6 15t15 6h110q9 0 15 -6t6 -15v-110q0 -9 -6 -15t-15 -6h-110q-9 0 -15 6t-6 15zM174 494q9 0 15.5 -6.5t6.5 -14.5v-53q0 -9 -6.5 -15.5t-15.5 -6.5h-36v-19h53l5 -33l-75 -5q-8 0 -14.5 6.5
t-6.5 14.5v70l57 5v19h-76v-110l-34 -5l-4 149zM541 323h110q9 0 15 -6t6 -15v-34l-37 -39l-54 -1l-4 34l57 4v19h-76v-76h110l4 -34l-131 -4q-9 0 -15 6t-6 15v110q0 9 6 15t15 6zM500 379v19h-74l-39 37l-1 38q0 8 6.5 14.5t14.5 6.5h127l5 -34l-115 -4v-19h75l38 -37
l2 -38q0 -8 -6.5 -14.5t-15.5 -6.5h-127l-4 34zM348 319l131 4q9 0 15 -6t6 -15v-53q0 -9 -6 -15t-15 -6h-36v-53l-34 -4l-4 91l57 4v19h-76v-110l-34 -4zM291 209v19h-75l-38 37l-2 54l34 4l5 -57h76v53l34 4l4 -131q0 -9 -6.5 -15t-14.5 -6h-127l-5 34zM43 131q0 9 6 15
t15 6h108l4 -33l-95 -5v-76h91l4 -34l-112 -4q-9 0 -15 6t-6 15v110zM153 323l4 -4v-30l-38 -4v-110l-34 -4l-4 114h-34l-4 34zM253 456v-77h76v77h-76zM234 38h76v76h-76v-76zM306 437l4 -34l-4 -5h-30l-4 34zM253 91l34 4l4 -34l-4 -4h-30zM725 209l4 -34l-34 -4l-4 34z
" />
    <glyph glyph-name="ugrave" unicode="&#xf9;" 
d="M43 95v572q0 19 19 19h134q19 0 19 -19v-495h343v495q0 19 19 19h133q19 0 19 -19v-572q0 -19 -7.5 -36.5t-20 -30.5t-30 -20.5t-37.5 -7.5h-496q-19 0 -36.5 7.5t-30.5 20.5t-20.5 30.5t-7.5 36.5zM247 944h145q7 0 13 -6l134 -133q9 -9 4 -21t-18 -12h-278
q-19 0 -19 19v133q0 8 5.5 14t13.5 6z" />
    <glyph glyph-name="uacute" unicode="&#xfa;" 
d="M62 686h134q19 0 19 -19v-495h343v495q0 19 19 19h133q19 0 19 -19v-572q0 -19 -7.5 -36.5t-20 -30.5t-30 -20.5t-37.5 -7.5h-496q-19 0 -36.5 7.5t-30.5 20.5t-20.5 30.5t-7.5 36.5v572q0 19 19 19zM234 805l133 133q6 6 14 6h144q8 0 13.5 -6t5.5 -14v-133
q0 -19 -19 -19h-278q-13 0 -17.5 12t4.5 21z" />
    <glyph glyph-name="ucircumflex" unicode="&#xfb;" 
d="M62 686h134q19 0 19 -19v-495h343v495q0 19 19 19h133q19 0 19 -19v-572q0 -19 -7.5 -36.5t-20 -30.5t-30 -20.5t-37.5 -7.5h-496q-19 0 -36.5 7.5t-30.5 20.5t-20.5 30.5t-7.5 36.5v572q0 19 19 19zM162 805l134 133q6 6 13 6h154q8 0 14 -6l133 -133q9 -9 4.5 -21
t-17.5 -12h-421q-13 0 -18 12t4 21z" />
    <glyph glyph-name="udieresis" unicode="&#xfc;" 
d="M62 686h134q19 0 19 -19v-495h343v495q0 19 19 19h133q19 0 19 -19v-572q0 -19 -7.5 -36.5t-20 -30.5t-30 -20.5t-37.5 -7.5h-496q-19 0 -36.5 7.5t-30.5 20.5t-20.5 30.5t-7.5 36.5v572q0 19 19 19zM472 924q0 8 5.5 14t13.5 6h133q8 0 13.5 -6t5.5 -14v-133
q0 -19 -19 -19h-133q-19 0 -19 19v133zM129 924q0 8 5.5 14t13.5 6h133q8 0 13.5 -6t5.5 -14v-133q0 -19 -19 -19h-133q-19 0 -19 19v133z" />
    <glyph glyph-name="yacute" unicode="&#xfd;" 
d="M43 437v230q0 19 19 19h134q19 0 19 -19v-238h343v238q0 19 19 19h133q19 0 19 -19v-572q0 -19 -7.5 -36.5t-20 -30.5t-30 -20.5t-37.5 -7.5h-572q-19 0 -19 19v133q0 8 5.5 14t13.5 6h496v85h-336q-7 0 -13 6l-160 160q-6 6 -6 14zM234 805l133 133q6 6 14 6h144
q8 0 13.5 -6t5.5 -14v-133q0 -19 -19 -19h-278q-13 0 -17.5 12t4.5 21z" />
    <glyph glyph-name="thorn" unicode="&#xfe;" 
d="M367 131q0 9 6.5 15t14.5 6h53q9 0 15 -6t6 -15v-93h19v93q0 9 6.5 15t15.5 6h53q8 0 14.5 -6t6.5 -15v-127l-34 -4l-4 114h-19v-93q0 -9 -6.5 -15t-15.5 -6h-53q-8 0 -14.5 6t-6.5 15v93h-19v-110l-34 -4zM215 473q0 8 6 14.5t15 6.5h110q9 0 15 -6.5t6 -14.5v-111
q0 -8 -6 -14.5t-15 -6.5h-110q-9 0 -15 6.5t-6 14.5v111zM196 21v110q0 9 6 15t15 6h110q9 0 15 -6t6 -15v-110q0 -9 -6 -15t-15 -6h-110q-9 0 -15 6t-6 15zM174 494q9 0 15.5 -6.5t6.5 -14.5v-53q0 -9 -6.5 -15.5t-15.5 -6.5h-36v-19h53l5 -33l-75 -5q-8 0 -14.5 6.5
t-6.5 14.5v70l57 5v19h-76v-110l-34 -5l-4 149zM541 323h110q9 0 15 -6t6 -15v-34l-37 -39l-54 -1l-4 34l57 4v19h-76v-76h110l4 -34l-131 -4q-9 0 -15 6t-6 15v110q0 9 6 15t15 6zM500 379v19h-74l-39 37l-1 38q0 8 6.5 14.5t14.5 6.5h127l5 -34l-115 -4v-19h75l38 -37
l2 -38q0 -8 -6.5 -14.5t-15.5 -6.5h-127l-4 34zM348 319l131 4q9 0 15 -6t6 -15v-53q0 -9 -6 -15t-15 -6h-36v-53l-34 -4l-4 91l57 4v19h-76v-110l-34 -4zM291 209v19h-75l-38 37l-2 54l34 4l5 -57h76v53l34 4l4 -131q0 -9 -6.5 -15t-14.5 -6h-127l-5 34zM43 131q0 9 6 15
t15 6h108l4 -33l-95 -5v-76h91l4 -34l-112 -4q-9 0 -15 6t-6 15v110zM153 323l4 -4v-30l-38 -4v-110l-34 -4l-4 114h-34l-4 34zM253 456v-77h76v77h-76zM234 38h76v76h-76v-76zM306 437l4 -34l-4 -5h-30l-4 34zM253 91l34 4l4 -34l-4 -4h-30zM725 209l4 -34l-34 -4l-4 34z
" />
    <glyph glyph-name="ydieresis" unicode="&#xff;" 
d="M62 686h134q19 0 19 -19v-238h343v238q0 19 19 19h133q19 0 19 -19v-572q0 -19 -7.5 -36.5t-20 -30.5t-30 -20.5t-37.5 -7.5h-572q-19 0 -19 19v133q0 8 5.5 14t13.5 6h496v85h-336q-7 0 -13 6l-160 160q-6 6 -6 14v230q0 19 19 19zM491 944h133q8 0 13.5 -6t5.5 -14
v-133q0 -19 -19 -19h-133q-19 0 -19 19v133q0 8 5.5 14t13.5 6zM129 924q0 8 5.5 14t13.5 6h133q8 0 13.5 -6t5.5 -14v-133q0 -19 -19 -19h-133q-19 0 -19 19v133z" />
    <glyph glyph-name="Lslash" unicode="&#x141;" 
d="M367 131q0 9 6.5 15t14.5 6h53q9 0 15 -6t6 -15v-93h19v93q0 9 6.5 15t15.5 6h53q8 0 14.5 -6t6.5 -15v-127l-34 -4l-4 114h-19v-93q0 -9 -6.5 -15t-15.5 -6h-53q-8 0 -14.5 6t-6.5 15v93h-19v-110l-34 -4zM215 473q0 8 6 14.5t15 6.5h110q9 0 15 -6.5t6 -14.5v-111
q0 -8 -6 -14.5t-15 -6.5h-110q-9 0 -15 6.5t-6 14.5v111zM196 21v110q0 9 6 15t15 6h110q9 0 15 -6t6 -15v-110q0 -9 -6 -15t-15 -6h-110q-9 0 -15 6t-6 15zM174 494q9 0 15.5 -6.5t6.5 -14.5v-53q0 -9 -6.5 -15.5t-15.5 -6.5h-36v-19h53l5 -33l-75 -5q-8 0 -14.5 6.5
t-6.5 14.5v70l57 5v19h-76v-110l-34 -5l-4 149zM541 323h110q9 0 15 -6t6 -15v-34l-37 -39l-54 -1l-4 34l57 4v19h-76v-76h110l4 -34l-131 -4q-9 0 -15 6t-6 15v110q0 9 6 15t15 6zM500 379v19h-74l-39 37l-1 38q0 8 6.5 14.5t14.5 6.5h127l5 -34l-115 -4v-19h75l38 -37
l2 -38q0 -8 -6.5 -14.5t-15.5 -6.5h-127l-4 34zM348 319l131 4q9 0 15 -6t6 -15v-53q0 -9 -6 -15t-15 -6h-36v-53l-34 -4l-4 91l57 4v19h-76v-110l-34 -4zM291 209v19h-75l-38 37l-2 54l34 4l5 -57h76v53l34 4l4 -131q0 -9 -6.5 -15t-14.5 -6h-127l-5 34zM43 131q0 9 6 15
t15 6h108l4 -33l-95 -5v-76h91l4 -34l-112 -4q-9 0 -15 6t-6 15v110zM153 323l4 -4v-30l-38 -4v-110l-34 -4l-4 114h-34l-4 34zM253 456v-77h76v77h-76zM234 38h76v76h-76v-76zM306 437l4 -34l-4 -5h-30l-4 34zM253 91l34 4l4 -34l-4 -4h-30zM725 209l4 -34l-34 -4l-4 34z
" />
    <glyph glyph-name="lslash" unicode="&#x142;" 
d="M367 131q0 9 6.5 15t14.5 6h53q9 0 15 -6t6 -15v-93h19v93q0 9 6.5 15t15.5 6h53q8 0 14.5 -6t6.5 -15v-127l-34 -4l-4 114h-19v-93q0 -9 -6.5 -15t-15.5 -6h-53q-8 0 -14.5 6t-6.5 15v93h-19v-110l-34 -4zM215 473q0 8 6 14.5t15 6.5h110q9 0 15 -6.5t6 -14.5v-111
q0 -8 -6 -14.5t-15 -6.5h-110q-9 0 -15 6.5t-6 14.5v111zM196 21v110q0 9 6 15t15 6h110q9 0 15 -6t6 -15v-110q0 -9 -6 -15t-15 -6h-110q-9 0 -15 6t-6 15zM174 494q9 0 15.5 -6.5t6.5 -14.5v-53q0 -9 -6.5 -15.5t-15.5 -6.5h-36v-19h53l5 -33l-75 -5q-8 0 -14.5 6.5
t-6.5 14.5v70l57 5v19h-76v-110l-34 -5l-4 149zM541 323h110q9 0 15 -6t6 -15v-34l-37 -39l-54 -1l-4 34l57 4v19h-76v-76h110l4 -34l-131 -4q-9 0 -15 6t-6 15v110q0 9 6 15t15 6zM500 379v19h-74l-39 37l-1 38q0 8 6.5 14.5t14.5 6.5h127l5 -34l-115 -4v-19h75l38 -37
l2 -38q0 -8 -6.5 -14.5t-15.5 -6.5h-127l-4 34zM348 319l131 4q9 0 15 -6t6 -15v-53q0 -9 -6 -15t-15 -6h-36v-53l-34 -4l-4 91l57 4v19h-76v-110l-34 -4zM291 209v19h-75l-38 37l-2 54l34 4l5 -57h76v53l34 4l4 -131q0 -9 -6.5 -15t-14.5 -6h-127l-5 34zM43 131q0 9 6 15
t15 6h108l4 -33l-95 -5v-76h91l4 -34l-112 -4q-9 0 -15 6t-6 15v110zM153 323l4 -4v-30l-38 -4v-110l-34 -4l-4 114h-34l-4 34zM253 456v-77h76v77h-76zM234 38h76v76h-76v-76zM306 437l4 -34l-4 -5h-30l-4 34zM253 91l34 4l4 -34l-4 -4h-30zM725 209l4 -34l-34 -4l-4 34z
" />
    <glyph glyph-name="OE" unicode="&#x152;" horiz-adv-x="1287" 
d="M43 95v496q0 20 7.5 37.5t20.5 30t30.5 20t36.5 7.5h1011q20 0 37 -7.5t30 -20t20.5 -30t7.5 -37.5v-154q0 -8 -6 -14l-160 -160q-6 -6 -14 -6h-230q-19 0 -19 19v134q0 19 19 19h238v86h-343v-343h496q8 0 13.5 -6t5.5 -14v-133q0 -19 -19 -19h-1087q-19 0 -36.5 7.5
t-30.5 20.5t-20.5 30.5t-7.5 36.5zM558 172v343h-343v-343h343zM319 429h134q19 0 19 -19v-134q0 -19 -19 -19h-134q-19 0 -19 19v134q0 19 19 19z" />
    <glyph glyph-name="oe" unicode="&#x153;" horiz-adv-x="1287" 
d="M43 95v496q0 20 7.5 37.5t20.5 30t30.5 20t36.5 7.5h1011q20 0 37 -7.5t30 -20t20.5 -30t7.5 -37.5v-154q0 -8 -6 -14l-160 -160q-6 -6 -14 -6h-230q-19 0 -19 19v134q0 19 19 19h238v86h-343v-343h496q8 0 13.5 -6t5.5 -14v-133q0 -19 -19 -19h-1087q-19 0 -36.5 7.5
t-30.5 20.5t-20.5 30.5t-7.5 36.5zM558 172v343h-343v-343h343zM319 429h134q19 0 19 -19v-134q0 -19 -19 -19h-134q-19 0 -19 19v134q0 19 19 19z" />
    <glyph glyph-name="Scaron" unicode="&#x160;" 
d="M367 131q0 9 6.5 15t14.5 6h53q9 0 15 -6t6 -15v-93h19v93q0 9 6.5 15t15.5 6h53q8 0 14.5 -6t6.5 -15v-127l-34 -4l-4 114h-19v-93q0 -9 -6.5 -15t-15.5 -6h-53q-8 0 -14.5 6t-6.5 15v93h-19v-110l-34 -4zM215 473q0 8 6 14.5t15 6.5h110q9 0 15 -6.5t6 -14.5v-111
q0 -8 -6 -14.5t-15 -6.5h-110q-9 0 -15 6.5t-6 14.5v111zM196 21v110q0 9 6 15t15 6h110q9 0 15 -6t6 -15v-110q0 -9 -6 -15t-15 -6h-110q-9 0 -15 6t-6 15zM174 494q9 0 15.5 -6.5t6.5 -14.5v-53q0 -9 -6.5 -15.5t-15.5 -6.5h-36v-19h53l5 -33l-75 -5q-8 0 -14.5 6.5
t-6.5 14.5v70l57 5v19h-76v-110l-34 -5l-4 149zM541 323h110q9 0 15 -6t6 -15v-34l-37 -39l-54 -1l-4 34l57 4v19h-76v-76h110l4 -34l-131 -4q-9 0 -15 6t-6 15v110q0 9 6 15t15 6zM500 379v19h-74l-39 37l-1 38q0 8 6.5 14.5t14.5 6.5h127l5 -34l-115 -4v-19h75l38 -37
l2 -38q0 -8 -6.5 -14.5t-15.5 -6.5h-127l-4 34zM348 319l131 4q9 0 15 -6t6 -15v-53q0 -9 -6 -15t-15 -6h-36v-53l-34 -4l-4 91l57 4v19h-76v-110l-34 -4zM291 209v19h-75l-38 37l-2 54l34 4l5 -57h76v53l34 4l4 -131q0 -9 -6.5 -15t-14.5 -6h-127l-5 34zM43 131q0 9 6 15
t15 6h108l4 -33l-95 -5v-76h91l4 -34l-112 -4q-9 0 -15 6t-6 15v110zM153 323l4 -4v-30l-38 -4v-110l-34 -4l-4 114h-34l-4 34zM253 456v-77h76v77h-76zM234 38h76v76h-76v-76zM306 437l4 -34l-4 -5h-30l-4 34zM253 91l34 4l4 -34l-4 -4h-30zM725 209l4 -34l-34 -4l-4 34z
" />
    <glyph glyph-name="scaron" unicode="&#x161;" 
d="M367 131q0 9 6.5 15t14.5 6h53q9 0 15 -6t6 -15v-93h19v93q0 9 6.5 15t15.5 6h53q8 0 14.5 -6t6.5 -15v-127l-34 -4l-4 114h-19v-93q0 -9 -6.5 -15t-15.5 -6h-53q-8 0 -14.5 6t-6.5 15v93h-19v-110l-34 -4zM215 473q0 8 6 14.5t15 6.5h110q9 0 15 -6.5t6 -14.5v-111
q0 -8 -6 -14.5t-15 -6.5h-110q-9 0 -15 6.5t-6 14.5v111zM196 21v110q0 9 6 15t15 6h110q9 0 15 -6t6 -15v-110q0 -9 -6 -15t-15 -6h-110q-9 0 -15 6t-6 15zM174 494q9 0 15.5 -6.5t6.5 -14.5v-53q0 -9 -6.5 -15.5t-15.5 -6.5h-36v-19h53l5 -33l-75 -5q-8 0 -14.5 6.5
t-6.5 14.5v70l57 5v19h-76v-110l-34 -5l-4 149zM541 323h110q9 0 15 -6t6 -15v-34l-37 -39l-54 -1l-4 34l57 4v19h-76v-76h110l4 -34l-131 -4q-9 0 -15 6t-6 15v110q0 9 6 15t15 6zM500 379v19h-74l-39 37l-1 38q0 8 6.5 14.5t14.5 6.5h127l5 -34l-115 -4v-19h75l38 -37
l2 -38q0 -8 -6.5 -14.5t-15.5 -6.5h-127l-4 34zM348 319l131 4q9 0 15 -6t6 -15v-53q0 -9 -6 -15t-15 -6h-36v-53l-34 -4l-4 91l57 4v19h-76v-110l-34 -4zM291 209v19h-75l-38 37l-2 54l34 4l5 -57h76v53l34 4l4 -131q0 -9 -6.5 -15t-14.5 -6h-127l-5 34zM43 131q0 9 6 15
t15 6h108l4 -33l-95 -5v-76h91l4 -34l-112 -4q-9 0 -15 6t-6 15v110zM153 323l4 -4v-30l-38 -4v-110l-34 -4l-4 114h-34l-4 34zM253 456v-77h76v77h-76zM234 38h76v76h-76v-76zM306 437l4 -34l-4 -5h-30l-4 34zM253 91l34 4l4 -34l-4 -4h-30zM725 209l4 -34l-34 -4l-4 34z
" />
    <glyph glyph-name="Ydieresis" unicode="&#x178;" 
d="M62 686h134q19 0 19 -19v-238h343v238q0 19 19 19h133q19 0 19 -19v-572q0 -19 -7.5 -36.5t-20 -30.5t-30 -20.5t-37.5 -7.5h-572q-19 0 -19 19v133q0 8 5.5 14t13.5 6h496v85h-336q-7 0 -13 6l-160 160q-6 6 -6 14v230q0 19 19 19zM491 944h133q8 0 13.5 -6t5.5 -14
v-133q0 -19 -19 -19h-133q-19 0 -19 19v133q0 8 5.5 14t13.5 6zM129 924q0 8 5.5 14t13.5 6h133q8 0 13.5 -6t5.5 -14v-133q0 -19 -19 -19h-133q-19 0 -19 19v133z" />
    <glyph glyph-name="Zcaron" unicode="&#x17d;" 
d="M367 131q0 9 6.5 15t14.5 6h53q9 0 15 -6t6 -15v-93h19v93q0 9 6.5 15t15.5 6h53q8 0 14.5 -6t6.5 -15v-127l-34 -4l-4 114h-19v-93q0 -9 -6.5 -15t-15.5 -6h-53q-8 0 -14.5 6t-6.5 15v93h-19v-110l-34 -4zM215 473q0 8 6 14.5t15 6.5h110q9 0 15 -6.5t6 -14.5v-111
q0 -8 -6 -14.5t-15 -6.5h-110q-9 0 -15 6.5t-6 14.5v111zM196 21v110q0 9 6 15t15 6h110q9 0 15 -6t6 -15v-110q0 -9 -6 -15t-15 -6h-110q-9 0 -15 6t-6 15zM174 494q9 0 15.5 -6.5t6.5 -14.5v-53q0 -9 -6.5 -15.5t-15.5 -6.5h-36v-19h53l5 -33l-75 -5q-8 0 -14.5 6.5
t-6.5 14.5v70l57 5v19h-76v-110l-34 -5l-4 149zM541 323h110q9 0 15 -6t6 -15v-34l-37 -39l-54 -1l-4 34l57 4v19h-76v-76h110l4 -34l-131 -4q-9 0 -15 6t-6 15v110q0 9 6 15t15 6zM500 379v19h-74l-39 37l-1 38q0 8 6.5 14.5t14.5 6.5h127l5 -34l-115 -4v-19h75l38 -37
l2 -38q0 -8 -6.5 -14.5t-15.5 -6.5h-127l-4 34zM348 319l131 4q9 0 15 -6t6 -15v-53q0 -9 -6 -15t-15 -6h-36v-53l-34 -4l-4 91l57 4v19h-76v-110l-34 -4zM291 209v19h-75l-38 37l-2 54l34 4l5 -57h76v53l34 4l4 -131q0 -9 -6.5 -15t-14.5 -6h-127l-5 34zM43 131q0 9 6 15
t15 6h108l4 -33l-95 -5v-76h91l4 -34l-112 -4q-9 0 -15 6t-6 15v110zM153 323l4 -4v-30l-38 -4v-110l-34 -4l-4 114h-34l-4 34zM253 456v-77h76v77h-76zM234 38h76v76h-76v-76zM306 437l4 -34l-4 -5h-30l-4 34zM253 91l34 4l4 -34l-4 -4h-30zM725 209l4 -34l-34 -4l-4 34z
" />
    <glyph glyph-name="zcaron" unicode="&#x17e;" 
d="M367 131q0 9 6.5 15t14.5 6h53q9 0 15 -6t6 -15v-93h19v93q0 9 6.5 15t15.5 6h53q8 0 14.5 -6t6.5 -15v-127l-34 -4l-4 114h-19v-93q0 -9 -6.5 -15t-15.5 -6h-53q-8 0 -14.5 6t-6.5 15v93h-19v-110l-34 -4zM215 473q0 8 6 14.5t15 6.5h110q9 0 15 -6.5t6 -14.5v-111
q0 -8 -6 -14.5t-15 -6.5h-110q-9 0 -15 6.5t-6 14.5v111zM196 21v110q0 9 6 15t15 6h110q9 0 15 -6t6 -15v-110q0 -9 -6 -15t-15 -6h-110q-9 0 -15 6t-6 15zM174 494q9 0 15.5 -6.5t6.5 -14.5v-53q0 -9 -6.5 -15.5t-15.5 -6.5h-36v-19h53l5 -33l-75 -5q-8 0 -14.5 6.5
t-6.5 14.5v70l57 5v19h-76v-110l-34 -5l-4 149zM541 323h110q9 0 15 -6t6 -15v-34l-37 -39l-54 -1l-4 34l57 4v19h-76v-76h110l4 -34l-131 -4q-9 0 -15 6t-6 15v110q0 9 6 15t15 6zM500 379v19h-74l-39 37l-1 38q0 8 6.5 14.5t14.5 6.5h127l5 -34l-115 -4v-19h75l38 -37
l2 -38q0 -8 -6.5 -14.5t-15.5 -6.5h-127l-4 34zM348 319l131 4q9 0 15 -6t6 -15v-53q0 -9 -6 -15t-15 -6h-36v-53l-34 -4l-4 91l57 4v19h-76v-110l-34 -4zM291 209v19h-75l-38 37l-2 54l34 4l5 -57h76v53l34 4l4 -131q0 -9 -6.5 -15t-14.5 -6h-127l-5 34zM43 131q0 9 6 15
t15 6h108l4 -33l-95 -5v-76h91l4 -34l-112 -4q-9 0 -15 6t-6 15v110zM153 323l4 -4v-30l-38 -4v-110l-34 -4l-4 114h-34l-4 34zM253 456v-77h76v77h-76zM234 38h76v76h-76v-76zM306 437l4 -34l-4 -5h-30l-4 34zM253 91l34 4l4 -34l-4 -4h-30zM725 209l4 -34l-34 -4l-4 34z
" />
    <glyph glyph-name="florin" unicode="&#x192;" 
d="M367 131q0 9 6.5 15t14.5 6h53q9 0 15 -6t6 -15v-93h19v93q0 9 6.5 15t15.5 6h53q8 0 14.5 -6t6.5 -15v-127l-34 -4l-4 114h-19v-93q0 -9 -6.5 -15t-15.5 -6h-53q-8 0 -14.5 6t-6.5 15v93h-19v-110l-34 -4zM215 473q0 8 6 14.5t15 6.5h110q9 0 15 -6.5t6 -14.5v-111
q0 -8 -6 -14.5t-15 -6.5h-110q-9 0 -15 6.5t-6 14.5v111zM196 21v110q0 9 6 15t15 6h110q9 0 15 -6t6 -15v-110q0 -9 -6 -15t-15 -6h-110q-9 0 -15 6t-6 15zM174 494q9 0 15.5 -6.5t6.5 -14.5v-53q0 -9 -6.5 -15.5t-15.5 -6.5h-36v-19h53l5 -33l-75 -5q-8 0 -14.5 6.5
t-6.5 14.5v70l57 5v19h-76v-110l-34 -5l-4 149zM541 323h110q9 0 15 -6t6 -15v-34l-37 -39l-54 -1l-4 34l57 4v19h-76v-76h110l4 -34l-131 -4q-9 0 -15 6t-6 15v110q0 9 6 15t15 6zM500 379v19h-74l-39 37l-1 38q0 8 6.5 14.5t14.5 6.5h127l5 -34l-115 -4v-19h75l38 -37
l2 -38q0 -8 -6.5 -14.5t-15.5 -6.5h-127l-4 34zM348 319l131 4q9 0 15 -6t6 -15v-53q0 -9 -6 -15t-15 -6h-36v-53l-34 -4l-4 91l57 4v19h-76v-110l-34 -4zM291 209v19h-75l-38 37l-2 54l34 4l5 -57h76v53l34 4l4 -131q0 -9 -6.5 -15t-14.5 -6h-127l-5 34zM43 131q0 9 6 15
t15 6h108l4 -33l-95 -5v-76h91l4 -34l-112 -4q-9 0 -15 6t-6 15v110zM153 323l4 -4v-30l-38 -4v-110l-34 -4l-4 114h-34l-4 34zM253 456v-77h76v77h-76zM234 38h76v76h-76v-76zM306 437l4 -34l-4 -5h-30l-4 34zM253 91l34 4l4 -34l-4 -4h-30zM725 209l4 -34l-34 -4l-4 34z
" />
    <glyph glyph-name="circumflex" unicode="&#x2c6;" horiz-adv-x="545" 
d="M49 805l133 133q6 6 14 6h154q7 0 13 -6l134 -133q9 -9 4 -21t-18 -12h-421q-13 0 -17.5 12t4.5 21z" />
    <glyph glyph-name="ring" unicode="&#x2da;" horiz-adv-x="258" 
d="M62 944h134q8 0 13.5 -6t5.5 -14v-133q0 -19 -19 -19h-134q-19 0 -19 19v133q0 8 5.5 14t13.5 6z" />
    <glyph glyph-name="tilde" unicode="&#x2dc;" 
d="M43 792v134q0 19 19 19h648q19 0 19 -19v-134q0 -19 -19 -19h-648q-19 0 -19 19z" />
    <glyph glyph-name="uni0401" unicode="&#x401;" 
d="M43 95v496q0 20 7.5 37.5t20.5 30t30.5 20t36.5 7.5h496q40 0 67.5 -27.5t27.5 -67.5v-154q0 -6 -5 -14l-161 -160q-6 -6 -13 -6h-231q-19 0 -19 19v134q0 19 19 19h239v86h-343v-343h495q8 0 13.5 -6t5.5 -14v-133q0 -19 -19 -19h-572q-19 0 -36.5 7.5t-30.5 20.5
t-20.5 30.5t-7.5 36.5zM491 944h133q8 0 13.5 -6t5.5 -14v-133q0 -19 -19 -19h-133q-19 0 -19 19v133q0 8 5.5 14t13.5 6zM148 944h133q8 0 13.5 -6t5.5 -14v-133q0 -19 -19 -19h-133q-19 0 -19 19v133q0 8 5.5 14t13.5 6z" />
    <glyph glyph-name="uni0410" unicode="&#x410;" 
d="M43 249q0 6 5 14l161 160q6 6 13 6h231q19 0 19 -19v-134q0 -19 -19 -19h-239v-85h344v343h-496q-19 0 -19 19v133q0 19 19 19h572q20 0 37 -7.5t30 -20t20.5 -30t7.5 -37.5v-496q0 -19 -7.5 -36.5t-20.5 -30.5t-30 -20.5t-37 -7.5h-496q-19 0 -36.5 7.5t-30.5 20.5
t-20.5 30.5t-7.5 36.5v154z" />
    <glyph glyph-name="uni0411" unicode="&#x411;" 
d="M43 95v496q0 20 7.5 37.5t20.5 30t30.5 20t36.5 7.5h572q19 0 19 -19v-133q0 -19 -19 -19h-495v-343h343v85h-239q-19 0 -19 19v134q0 19 19 19h315q20 0 37.5 -7.5t30 -20.5t20 -30t7.5 -37v-239q0 -19 -7.5 -36.5t-20 -30.5t-30 -20.5t-37.5 -7.5h-496q-19 0 -36.5 7.5
t-30.5 20.5t-20.5 30.5t-7.5 36.5z" />
    <glyph glyph-name="uni0412" unicode="&#x412;" 
d="M43 667q0 19 19 19h572q40 0 67.5 -27.5t27.5 -67.5v-143q0 -19 -19 -19h-133q-19 0 -19 19v67h-343v-343h343v85h-239q-19 0 -19 19v134q0 19 19 19h231q7 0 13 -6l161 -160q5 -8 5 -14v-154q0 -19 -7.5 -36.5t-20 -30.5t-30 -20.5t-37.5 -7.5h-572q-19 0 -19 19v648z
" />
    <glyph glyph-name="uni0413" unicode="&#x413;" horiz-adv-x="686" 
d="M43 667q0 19 19 19h562q19 0 19 -19v-133q0 -19 -19 -19h-409v-496q0 -7 -6 -13t-13 -6h-134q-19 0 -19 19v648z" />
    <glyph glyph-name="uni0414" unicode="&#x414;" 
d="M43 19v648q0 19 19 19h572q40 0 67.5 -27.5t27.5 -67.5v-496q0 -19 -7.5 -36.5t-20 -30.5t-30 -20.5t-37.5 -7.5h-315q-19 0 -19 19v133q0 8 5.5 14t13.5 6h239v343h-343v-496q0 -19 -19 -19h-134q-19 0 -19 19z" />
    <glyph glyph-name="uni0415" unicode="&#x415;" 
d="M43 591q0 20 7.5 37.5t20.5 30t30.5 20t36.5 7.5h496q40 0 67.5 -27.5t27.5 -67.5v-154q0 -6 -5 -14l-161 -160q-6 -6 -13 -6h-231q-19 0 -19 19v134q0 19 19 19h239v86h-343v-343h495q8 0 13.5 -6t5.5 -14v-133q0 -19 -19 -19h-572q-19 0 -36.5 7.5t-30.5 20.5
t-20.5 30.5t-7.5 36.5v496z" />
    <glyph glyph-name="uni0416" unicode="&#x416;" 
d="M43 249q0 6 5 14l81 80l-81 80q-5 8 -5 14v230q0 19 19 19h133q19 0 19 -19v-238h87v238q0 19 18 19h134q19 0 19 -19v-238h86v238q0 19 19 19h133q19 0 19 -19v-230q0 -6 -5 -14l-81 -80l81 -80q5 -8 5 -14v-230q0 -19 -19 -19h-133q-19 0 -19 19v238h-86v-238
q0 -19 -19 -19h-134q-8 0 -13 5.5t-5 13.5v238h-87v-238q0 -19 -19 -19h-133q-19 0 -19 19v230z" />
    <glyph glyph-name="uni0417" unicode="&#x417;" 
d="M43 152q0 8 5.5 14t13.5 6h496v85h-239q-7 0 -13 6t-6 13v134q0 7 6 13t13 6h231q7 0 13 -6l161 -160q5 -8 5 -14v-154q0 -20 -7.5 -37.5t-20.5 -30t-30 -20t-37 -7.5h-572q-19 0 -19 19v133zM62 686h572q20 0 37.5 -7.5t30 -20.5t20 -30t7.5 -37v-143q0 -19 -19 -19
h-133q-19 0 -19 19v67h-496q-19 0 -19 19v133q0 19 19 19z" />
    <glyph glyph-name="uni0418" unicode="&#x418;" 
d="M62 686h133q19 0 19 -19v-495h86v335q0 7 6 13l160 161q8 5 14 5h154q20 0 37.5 -7.5t30 -20.5t20 -30t7.5 -37v-572q0 -19 -19 -19h-134q-7 0 -13 6t-6 13v496h-85v-336q0 -7 -6 -13l-160 -160q-6 -6 -14 -6h-154q-19 0 -36.5 7.5t-30.5 20.5t-20.5 30.5t-7.5 36.5v572
q0 19 19 19z" />
    <glyph glyph-name="uni0419" unicode="&#x419;" 
d="M62 686h133q19 0 19 -19v-495h86v335q0 7 6 13l160 161q8 5 14 5h154q20 0 37.5 -7.5t30 -20.5t20 -30t7.5 -37v-572q0 -19 -19 -19h-134q-7 0 -13 6t-6 13v496h-85v-336q0 -7 -6 -13l-160 -160q-6 -6 -14 -6h-154q-19 0 -36.5 7.5t-30.5 20.5t-20.5 30.5t-7.5 36.5v572
q0 19 19 19zM158 932q5 12 17 12h421q14 0 18 -12q5 -12 -4 -21l-134 -133q-6 -6 -13 -6h-154q-8 0 -14 6l-133 133q-9 9 -4 21z" />
    <glyph glyph-name="uni041A" unicode="&#x41a;" 
d="M43 667q0 19 19 19h134q19 0 19 -19v-238h343v238q0 19 19 19h133q19 0 19 -19v-230q0 -6 -5 -14l-81 -80l81 -80q5 -8 5 -14v-230q0 -19 -19 -19h-133q-19 0 -19 19v238h-343v-238q0 -19 -19 -19h-134q-19 0 -19 19v648z" />
    <glyph glyph-name="uni041B" unicode="&#x41b;" horiz-adv-x="732" 
d="M48 520l161 160q6 6 13 6h488q19 0 19 -19v-648q0 -19 -19 -19h-134q-19 0 -19 19v495h-343v-495q0 -19 -19 -19h-133q-19 0 -19 19v488q0 5 5 13z" />
    <glyph glyph-name="uni041C" unicode="&#x41c;" horiz-adv-x="1030" 
d="M138 686h239q20 0 37 -7.5t30 -20t20.5 -30t7.5 -37.5v-419h86v419q0 40 27.5 67.5t67.5 27.5h238q40 0 68 -27.5t28 -67.5v-572q0 -19 -19 -19h-134q-19 0 -19 19v496h-86v-420q0 -19 -7.5 -36.5t-20 -30.5t-30 -20.5t-37.5 -7.5h-238q-20 0 -37.5 7.5t-30.5 20.5
t-20.5 30.5t-7.5 36.5v420h-85v-496q0 -19 -19 -19h-134q-19 0 -19 19v572q0 20 7.5 37.5t20.5 30t30.5 20t36.5 7.5z" />
    <glyph glyph-name="uni041D" unicode="&#x41d;" 
d="M62 686h134q19 0 19 -19v-238h343v238q0 19 19 19h133q19 0 19 -19v-648q0 -19 -19 -19h-133q-19 0 -19 19v238h-343v-238q0 -19 -19 -19h-134q-19 0 -19 19v648q0 19 19 19z" />
    <glyph glyph-name="uni041E" unicode="&#x41e;" 
d="M43 591q0 20 7.5 37.5t20.5 30t30.5 20t36.5 7.5h496q40 0 67.5 -27.5t27.5 -67.5v-496q0 -19 -7.5 -36.5t-20 -30.5t-30 -20.5t-37.5 -7.5h-496q-19 0 -36.5 7.5t-30.5 20.5t-20.5 30.5t-7.5 36.5v496zM215 172h343v343h-343v-343z" />
    <glyph glyph-name="uni041F" unicode="&#x41f;" 
d="M43 19v572q0 20 7.5 37.5t20.5 30t30.5 20t36.5 7.5h496q19 0 36.5 -7.5t30.5 -20.5t20.5 -30t7.5 -37v-572q0 -19 -19 -19h-134q-19 0 -19 19v495h-343v-495q0 -19 -19 -19h-133q-19 0 -19 19z" />
    <glyph glyph-name="uni0420" unicode="&#x420;" 
d="M43 19v648q0 19 19 19h572q40 0 67.5 -27.5t27.5 -67.5v-238q0 -40 -27.5 -68t-67.5 -28h-315q-19 0 -19 19v134q0 19 19 19h239v86h-343v-496q0 -19 -19 -19h-134q-19 0 -19 19z" />
    <glyph glyph-name="uni0421" unicode="&#x421;" horiz-adv-x="686" 
d="M43 95v496q0 20 7.5 37.5t20.5 30t30.5 20t36.5 7.5h486q19 0 19 -19v-133q0 -19 -19 -19h-409v-343h409q8 0 13.5 -6t5.5 -14v-133q0 -19 -19 -19h-486q-19 0 -36.5 7.5t-30.5 20.5t-20.5 30.5t-7.5 36.5z" />
    <glyph glyph-name="uni0422" unicode="&#x422;" horiz-adv-x="601" 
d="M43 667q0 19 19 19h477q19 0 19 -19v-133q0 -19 -19 -19h-153v-496q0 -19 -19 -19h-133q-19 0 -19 19v496h-153q-19 0 -19 19v133z" />
    <glyph glyph-name="uni0423" unicode="&#x423;" 
d="M43 437v230q0 19 19 19h134q19 0 19 -19v-238h343v238q0 19 19 19h133q19 0 19 -19v-572q0 -19 -7.5 -36.5t-20 -30.5t-30 -20.5t-37.5 -7.5h-572q-19 0 -19 19v133q0 8 5.5 14t13.5 6h496v85h-336q-7 0 -13 6l-160 160q-6 6 -6 14z" />
    <glyph glyph-name="uni0424" unicode="&#x424;" 
d="M43 591q0 20 7.5 37t20 30t30 20.5t37.5 7.5h496q20 0 37.5 -7.5t30 -20.5t20 -30t7.5 -37v-496q0 -20 -7.5 -37.5t-20.5 -30t-30 -20t-37 -7.5h-57q-19 0 -19 19v496h-86v-668q0 -19 -19 -19h-134q-19 0 -19 19v153h-162q-19 0 -36.5 7.5t-30.5 20t-20.5 30t-7.5 37.5
v496zM300 172v343h-85v-343h85z" />
    <glyph glyph-name="uni0425" unicode="&#x425;" 
d="M43 667q0 19 19 19h134q19 0 19 -19v-238h343v238q0 19 19 19h133q19 0 19 -19v-238l-86 -86l86 -86v-238q0 -19 -19 -19h-133q-19 0 -19 19v238h-343v-238q0 -19 -19 -19h-134q-19 0 -19 19v238l86 86l-86 86v238z" />
    <glyph glyph-name="uni0426" unicode="&#x426;" 
d="M43 667q0 19 19 19h134q19 0 19 -19v-495h497q6 -2 10.5 -5t5.5 -9l1 -6v-305q0 -19 -19 -19h-134q-19 0 -19 19v153h-419q-18 0 -34.5 6t-29.5 19l-3 3q-13 13 -20.5 31t-7.5 36v572zM557 276v391q0 19 19 19h134q19 0 19 -19v-391q0 -19 -19 -19h-134q-19 0 -19 19z
" />
    <glyph glyph-name="uni0427" unicode="&#x427;" 
d="M43 667q0 19 19 19h134q19 0 19 -19v-238h343v238q0 19 19 19h133q19 0 19 -19v-648q0 -7 -6 -13t-13 -6h-134q-19 0 -19 19v238h-335q-7 0 -13 6l-160 160q-6 6 -6 14v230z" />
    <glyph glyph-name="uni0428" unicode="&#x428;" 
d="M43 667q0 19 19 19h134q19 0 19 -19v-495h343v495q0 19 19 19h133q19 0 19 -19v-572q0 -20 -7.5 -37.5t-20.5 -30t-30 -20t-37 -7.5h-496q-19 0 -36.5 7.5t-30.5 20.5t-20.5 30.5t-7.5 36.5v572zM300 667q0 19 19 19h134q19 0 19 -19v-391q0 -19 -19 -19h-134
q-19 0 -19 19v391z" />
    <glyph glyph-name="uni0429" unicode="&#x429;" 
d="M43 667q0 19 19 19h134q19 0 19 -19v-495h85v495q0 19 19 19h134q19 0 19 -19v-495h240q6 -2 10.5 -5t5.5 -9l1 -6v-305q0 -19 -19 -19h-134q-19 0 -19 19v153h-419q-10 0 -19 1t-18 6l-11 7h-2l-17 14q-13 13 -20.5 31t-7.5 36v572zM557 667q0 19 19 19h134q19 0 19 -19
v-391q0 -19 -19 -19h-134q-19 0 -19 19v391z" />
    <glyph glyph-name="uni042A" unicode="&#x42a;" horiz-adv-x="837" 
d="M22 667q0 7 6 13t13 6h220q7 0 13 -6t6 -13v-496h343v86h-239q-19 0 -19 19v134q0 19 19 19h315q40 0 67.5 -28t27.5 -68v-238q0 -20 -7.5 -37.5t-20.5 -30t-30 -20t-37 -7.5h-572q-19 0 -19 19v495h-67q-19 0 -19 19v134z" />
    <glyph glyph-name="uni042B" unicode="&#x42b;" 
d="M43 19v648q0 19 19 19h134q7 0 13 -6t6 -13v-496h343v86h-239q-19 0 -19 19v134q0 19 19 19h315q40 0 67.5 -28t27.5 -68v-238q0 -20 -7.5 -37.5t-20.5 -30t-30 -20t-37 -7.5h-572q-19 0 -19 19zM557 533v134q0 7 6 13t13 6h134q19 0 19 -19v-134q0 -19 -19 -19h-134
q-19 0 -19 19z" />
    <glyph glyph-name="uni042C" unicode="&#x42c;" 
d="M43 19v648q0 19 19 19h134q7 0 13 -6t6 -13v-496h343v86h-239q-19 0 -19 19v134q0 19 19 19h315q40 0 67.5 -28t27.5 -68v-238q0 -20 -7.5 -37.5t-20.5 -30t-30 -20t-37 -7.5h-572q-19 0 -19 19z" />
    <glyph glyph-name="uni042D" unicode="&#x42d;" 
d="M43 153q0 19 19 19h495v343h-495q-19 0 -19 19v133q0 19 19 19h572q20 0 37.5 -7.5t30 -20.5t20 -30t7.5 -37v-496q0 -19 -7.5 -36.5t-20.5 -30.5t-30 -20.5t-37 -7.5h-572q-19 0 -19 19v134zM43 276v134q0 19 19 19h391q7 0 13 -6t6 -13v-134q0 -19 -19 -19h-391
q-19 0 -19 19z" />
    <glyph glyph-name="uni042E" unicode="&#x42e;" 
d="M43 667q0 19 19 19h134q19 0 19 -19v-239h85v163q0 20 7.5 37t20.5 30t30.5 20.5t36.5 7.5h239q20 0 37.5 -7.5t30 -20.5t20 -30t7.5 -37v-496q0 -20 -7.5 -37.5t-20.5 -30t-30 -20t-37 -7.5h-239q-19 0 -36.5 7.5t-30.5 20.5t-20.5 30.5t-7.5 36.5v163h-85v-239
q0 -7 -6 -13t-13 -6h-134q-19 0 -19 19v648zM472 515v-343h86v343h-86z" />
    <glyph glyph-name="uni042F" unicode="&#x42f;" 
d="M43 152q0 8 5.5 14t13.5 6h238v85h-162q-40 0 -67.5 28t-27.5 68v238q0 20 7.5 37.5t20.5 30t30.5 20t36.5 7.5h572q19 0 19 -19v-648q0 -19 -19 -19h-134q-7 0 -13 6t-6 13v496h-343v-86h239q7 0 13 -6t6 -13v-315q0 -40 -28 -67.5t-68 -27.5h-314q-19 0 -19 19v133z
" />
    <glyph glyph-name="uni0430" unicode="&#x430;" 
d="M43 249q0 8 6 14l160 160q6 6 13 6h231q19 0 19 -19v-134q0 -19 -19 -19h-238v-85h343v343h-496q-19 0 -19 19v133q0 19 19 19h572q40 0 67.5 -27.5t27.5 -67.5v-496q0 -19 -7.5 -36.5t-20 -30.5t-30 -20.5t-37.5 -7.5h-496q-19 0 -36.5 7.5t-30.5 20.5t-20.5 30.5
t-7.5 36.5v154z" />
    <glyph glyph-name="uni0431" unicode="&#x431;" 
d="M43 95v496q0 20 7.5 37.5t20.5 30t30.5 20t36.5 7.5h572q19 0 19 -19v-133q0 -19 -19 -19h-495v-343h343v85h-239q-19 0 -19 19v134q0 19 19 19h315q20 0 37.5 -7.5t30 -20.5t20 -30t7.5 -37v-239q0 -19 -7.5 -36.5t-20 -30.5t-30 -20.5t-37.5 -7.5h-496q-19 0 -36.5 7.5
t-30.5 20.5t-20.5 30.5t-7.5 36.5z" />
    <glyph glyph-name="uni0432" unicode="&#x432;" 
d="M43 667q0 19 19 19h572q40 0 67.5 -27.5t27.5 -67.5v-143q0 -19 -19 -19h-133q-19 0 -19 19v67h-343v-343h343v85h-239q-19 0 -19 19v134q0 19 19 19h231q7 0 13 -6l161 -160q5 -8 5 -14v-154q0 -19 -7.5 -36.5t-20 -30.5t-30 -20.5t-37.5 -7.5h-572q-19 0 -19 19v648z
" />
    <glyph glyph-name="uni0433" unicode="&#x433;" 
d="M43 19v648q0 19 19 19h648q19 0 19 -19v-133q0 -19 -19 -19h-495v-496q0 -19 -19 -19h-134q-19 0 -19 19zM300 19v391q0 19 19 19h391q19 0 19 -19v-134q0 -19 -19 -19h-238v-238q0 -19 -19 -19h-134q-19 0 -19 19z" />
    <glyph glyph-name="uni0434" unicode="&#x434;" 
d="M43 152q0 8 5.5 14t13.5 6h496v343h-343v-86h238q19 0 19 -19v-134q0 -19 -19 -19h-391q-19 0 -19 19v391q0 19 19 19h572q40 0 67.5 -27.5t27.5 -67.5v-496q0 -19 -7.5 -36.5t-20 -30.5t-30 -20.5t-37.5 -7.5h-572q-19 0 -19 19v133z" />
    <glyph glyph-name="uni0435" unicode="&#x435;" 
d="M43 591q0 20 7.5 37.5t20.5 30t30.5 20t36.5 7.5h496q40 0 67.5 -27.5t27.5 -67.5v-154q0 -6 -5 -14l-161 -160q-6 -6 -13 -6h-231q-19 0 -19 19v134q0 19 19 19h239v86h-343v-343h495q8 0 13.5 -6t5.5 -14v-133q0 -19 -19 -19h-572q-19 0 -36.5 7.5t-30.5 20.5
t-20.5 30.5t-7.5 36.5v496z" />
    <glyph glyph-name="uni0436" unicode="&#x436;" 
d="M43 249q0 6 5 14l81 80l-81 80q-5 8 -5 14v230q0 19 19 19h133q19 0 19 -19v-238h87v238q0 19 18 19h134q19 0 19 -19v-238h86v238q0 19 19 19h133q19 0 19 -19v-230q0 -6 -5 -14l-81 -80l81 -80q5 -8 5 -14v-230q0 -19 -19 -19h-133q-19 0 -19 19v238h-86v-238
q0 -19 -19 -19h-134q-8 0 -13 5.5t-5 13.5v238h-87v-238q0 -19 -19 -19h-133q-19 0 -19 19v230z" />
    <glyph glyph-name="uni0437" unicode="&#x437;" 
d="M43 152q0 8 5.5 14t13.5 6h496v85h-239q-7 0 -13 6t-6 13v134q0 7 6 13t13 6h231q7 0 13 -6l161 -160q5 -8 5 -14v-154q0 -20 -7.5 -37.5t-20.5 -30t-30 -20t-37 -7.5h-572q-19 0 -19 19v133zM62 686h572q20 0 37.5 -7.5t30 -20.5t20 -30t7.5 -37v-143q0 -19 -19 -19
h-133q-19 0 -19 19v67h-496q-19 0 -19 19v133q0 19 19 19z" />
    <glyph glyph-name="uni0438" unicode="&#x438;" 
d="M43 95v572q0 19 19 19h133q19 0 19 -19v-495h86v419q0 20 7.5 37t20.5 30t30.5 20.5t36.5 7.5h239q20 0 37.5 -7.5t30 -20.5t20 -30t7.5 -37v-572q0 -19 -19 -19h-134q-7 0 -13 6t-6 13v496h-85v-420q0 -40 -28 -67.5t-68 -27.5h-238q-19 0 -36.5 7.5t-30.5 20.5
t-20.5 30.5t-7.5 36.5z" />
    <glyph glyph-name="uni0439" unicode="&#x439;" 
d="M43 667q0 19 19 19h133q19 0 19 -19v-495h86v419q0 20 7.5 37t20.5 30t30.5 20.5t36.5 7.5h239q20 0 37.5 -7.5t30 -20.5t20 -30t7.5 -37v-572q0 -19 -19 -19h-134q-7 0 -13 6t-6 13v496h-85v-420q0 -40 -28 -67.5t-68 -27.5h-238q-19 0 -36.5 7.5t-30.5 20.5t-20.5 30.5
t-7.5 36.5v572zM158 932q5 12 17 12h421q14 0 18 -12q5 -12 -4 -21l-134 -133q-6 -6 -13 -6h-154q-8 0 -14 6l-133 133q-9 9 -4 21z" />
    <glyph glyph-name="uni043A" unicode="&#x43a;" 
d="M43 667q0 19 19 19h134q19 0 19 -19v-238h85v162q0 40 28 67.5t68 27.5h314q19 0 19 -19v-133q0 -19 -19 -19h-238v-86h162q20 0 37.5 -7.5t30 -20.5t20 -30t7.5 -37v-239q0 -19 -7.5 -36.5t-20 -30.5t-30 -20.5t-37.5 -7.5h-315q-19 0 -19 19v133q0 8 5.5 14t13.5 6h239
v85h-343v-238q0 -19 -19 -19h-134q-19 0 -19 19v648z" />
    <glyph glyph-name="uni043B" unicode="&#x43b;" horiz-adv-x="732" 
d="M48 520l161 160q6 6 13 6h488q19 0 19 -19v-648q0 -19 -19 -19h-134q-19 0 -19 19v495h-343v-495q0 -19 -19 -19h-133q-19 0 -19 19v488q0 5 5 13z" />
    <glyph glyph-name="uni043C" unicode="&#x43c;" horiz-adv-x="1030" 
d="M138 686h239q20 0 37 -7.5t30 -20t20.5 -30t7.5 -37.5v-419h86v419q0 40 27.5 67.5t67.5 27.5h238q40 0 68 -27.5t28 -67.5v-572q0 -19 -19 -19h-134q-19 0 -19 19v496h-86v-420q0 -19 -7.5 -36.5t-20 -30.5t-30 -20.5t-37.5 -7.5h-238q-20 0 -37.5 7.5t-30.5 20.5
t-20.5 30.5t-7.5 36.5v420h-85v-496q0 -19 -19 -19h-134q-19 0 -19 19v572q0 20 7.5 37.5t20.5 30t30.5 20t36.5 7.5z" />
    <glyph glyph-name="uni043D" unicode="&#x43d;" 
d="M62 686h134q19 0 19 -19v-648q0 -19 -19 -19h-134q-19 0 -19 19v648q0 19 19 19zM558 19v648q0 19 19 19h133q19 0 19 -19v-648q0 -19 -19 -19h-133q-19 0 -19 19zM319 515h134q19 0 19 -19v-305q0 -19 -19 -19h-134q-19 0 -19 19v305q0 19 19 19z" />
    <glyph glyph-name="uni043E" unicode="&#x43e;" 
d="M43 591q0 20 7.5 37.5t20.5 30t30.5 20t36.5 7.5h496q40 0 67.5 -27.5t27.5 -67.5v-496q0 -19 -7.5 -36.5t-20 -30.5t-30 -20.5t-37.5 -7.5h-496q-19 0 -36.5 7.5t-30.5 20.5t-20.5 30.5t-7.5 36.5v496zM558 172v343h-343v-343h343zM300 410q0 19 19 19h134q19 0 19 -19
v-134q0 -19 -19 -19h-134q-19 0 -19 19v134z" />
    <glyph glyph-name="uni043F" unicode="&#x43f;" 
d="M43 19v572q0 20 7.5 37.5t20.5 30t30.5 20t36.5 7.5h496q19 0 36.5 -7.5t30.5 -20.5t20.5 -30t7.5 -37v-572q0 -19 -19 -19h-134q-19 0 -19 19v495h-343v-495q0 -19 -19 -19h-133q-19 0 -19 19z" />
    <glyph glyph-name="uni0440" unicode="&#x440;" 
d="M43 19v648q0 19 19 19h572q40 0 67.5 -27.5t27.5 -67.5v-238q0 -40 -27.5 -68t-67.5 -28h-162v-238q0 -19 -19 -19h-134q-19 0 -19 19v391q0 19 19 19h239v86h-343v-496q0 -19 -19 -19h-134q-19 0 -19 19z" />
    <glyph glyph-name="uni0441" unicode="&#x441;" horiz-adv-x="686" 
d="M43 95v496q0 20 7.5 37.5t20.5 30t30.5 20t36.5 7.5h486q19 0 19 -19v-133q0 -19 -19 -19h-409v-343h409q8 0 13.5 -6t5.5 -14v-133q0 -19 -19 -19h-486q-19 0 -36.5 7.5t-30.5 20.5t-20.5 30.5t-7.5 36.5z" />
    <glyph glyph-name="uni0442" unicode="&#x442;" 
d="M43 591q0 20 7.5 37.5t20.5 30t30.5 20t36.5 7.5h496q19 0 36.5 -7.5t30.5 -20.5t20.5 -30t7.5 -37v-572q0 -19 -19 -19h-134q-19 0 -19 19v495h-343v-495q0 -19 -19 -19h-133q-19 0 -19 19v572zM300 410q0 7 6 13t13 6h134q19 0 19 -19v-391q0 -19 -19 -19h-134
q-19 0 -19 19v391z" />
    <glyph glyph-name="uni0443" unicode="&#x443;" 
d="M43 667q0 19 19 19h391q19 0 19 -19v-152h-257v-86h343v238q0 19 19 19h133q19 0 19 -19v-572q0 -19 -7.5 -36.5t-20 -30.5t-30 -20.5t-37.5 -7.5h-572q-19 0 -19 19v133q0 8 5.5 14t13.5 6h496v85h-336q-7 0 -13 6l-160 160q-6 6 -6 14v230z" />
    <glyph glyph-name="uni0444" unicode="&#x444;" 
d="M43 591q0 20 7.5 37t20 30t30 20.5t37.5 7.5h496q20 0 37.5 -7.5t30 -20.5t20 -30t7.5 -37v-496q0 -20 -7.5 -37.5t-20.5 -30t-30 -20t-37 -7.5h-57q-19 0 -19 19v496h-86v-668q0 -19 -19 -19h-134q-19 0 -19 19v153h-162q-19 0 -36.5 7.5t-30.5 20t-20.5 30t-7.5 37.5
v496zM300 172v343h-85v-343h85z" />
    <glyph glyph-name="uni0445" unicode="&#x445;" 
d="M43 19v230q0 8 6 14l80 80l-80 80q-6 6 -6 14v230q0 19 19 19h134q19 0 19 -19v-238h343v86h-239q-19 0 -19 19v133q0 19 19 19h391q19 0 19 -19v-230q0 -6 -5 -14l-81 -80l81 -80q5 -8 5 -14v-230q0 -19 -19 -19h-133q-19 0 -19 19v238h-343v-85h238q8 0 13.5 -6
t5.5 -14v-133q0 -19 -19 -19h-391q-19 0 -19 19z" />
    <glyph glyph-name="uni0446" unicode="&#x446;" 
d="M43 95v496q0 19 7.5 36.5t20.5 30.5t30.5 20.5t36.5 7.5h154q8 0 14 -6l160 -160q6 -6 6 -13v-231q0 -19 -19 -19h-134q-19 0 -19 19v238h-85v-342h497q6 -2 10.5 -5t5.5 -9l1 -6v-305q0 -19 -19 -19h-134q-19 0 -19 19v153h-419q-41 0 -68 27t-27 68zM557 667
q0 19 19 19h134q19 0 19 -19v-391q0 -19 -19 -19h-134q-19 0 -19 19v391z" />
    <glyph glyph-name="uni0447" unicode="&#x447;" 
d="M43 667q0 19 19 19h134q19 0 19 -19v-238h343v238q0 19 19 19h133q19 0 19 -19v-648q0 -7 -6 -13t-13 -6h-134q-19 0 -19 19v238h-335q-7 0 -13 6l-160 160q-6 6 -6 14v230z" />
    <glyph glyph-name="uni0448" unicode="&#x448;" 
d="M43 667q0 19 19 19h134q19 0 19 -19v-495h343v495q0 19 19 19h133q19 0 19 -19v-572q0 -20 -7.5 -37.5t-20.5 -30t-30 -20t-37 -7.5h-496q-19 0 -36.5 7.5t-30.5 20.5t-20.5 30.5t-7.5 36.5v572zM300 667q0 19 19 19h134q19 0 19 -19v-391q0 -19 -19 -19h-134
q-19 0 -19 19v391z" />
    <glyph glyph-name="uni0449" unicode="&#x449;" 
d="M43 667q0 19 19 19h134q19 0 19 -19v-495h85v495q0 19 19 19h134q19 0 19 -19v-495h240q6 -2 10.5 -5t5.5 -9l1 -6v-305q0 -19 -19 -19h-134q-19 0 -19 19v153h-419q-10 0 -19 1t-18 6l-11 7h-2l-17 14q-13 13 -20.5 31t-7.5 36v572zM557 667q0 19 19 19h134q19 0 19 -19
v-391q0 -19 -19 -19h-134q-19 0 -19 19v391z" />
    <glyph glyph-name="uni044A" unicode="&#x44a;" horiz-adv-x="837" 
d="M22 667q0 7 6 13t13 6h220q7 0 13 -6t6 -13v-496h343v86h-239q-19 0 -19 19v134q0 19 19 19h315q40 0 67.5 -28t27.5 -68v-238q0 -20 -7.5 -37.5t-20.5 -30t-30 -20t-37 -7.5h-572q-19 0 -19 19v495h-67q-19 0 -19 19v134z" />
    <glyph glyph-name="uni044B" unicode="&#x44b;" 
d="M43 19v648q0 19 19 19h134q7 0 13 -6t6 -13v-496h343v86h-239q-19 0 -19 19v134q0 19 19 19h315q40 0 67.5 -28t27.5 -68v-238q0 -20 -7.5 -37.5t-20.5 -30t-30 -20t-37 -7.5h-572q-19 0 -19 19zM557 533v134q0 7 6 13t13 6h134q19 0 19 -19v-134q0 -19 -19 -19h-134
q-19 0 -19 19z" />
    <glyph glyph-name="uni044C" unicode="&#x44c;" 
d="M43 19v648q0 19 19 19h134q7 0 13 -6t6 -13v-496h343v86h-239q-19 0 -19 19v134q0 19 19 19h315q40 0 67.5 -28t27.5 -68v-238q0 -20 -7.5 -37.5t-20.5 -30t-30 -20t-37 -7.5h-572q-19 0 -19 19z" />
    <glyph glyph-name="uni044D" unicode="&#x44d;" 
d="M43 153q0 19 19 19h495v343h-495q-19 0 -19 19v133q0 19 19 19h572q20 0 37.5 -7.5t30 -20.5t20 -30t7.5 -37v-496q0 -19 -7.5 -36.5t-20.5 -30.5t-30 -20.5t-37 -7.5h-572q-19 0 -19 19v134zM43 276v134q0 19 19 19h391q7 0 13 -6t6 -13v-134q0 -19 -19 -19h-391
q-19 0 -19 19z" />
    <glyph glyph-name="uni044E" unicode="&#x44e;" 
d="M43 667q0 19 19 19h134q19 0 19 -19v-239h85v163q0 20 7.5 37t20.5 30t30.5 20.5t36.5 7.5h239q20 0 37.5 -7.5t30 -20.5t20 -30t7.5 -37v-496q0 -20 -7.5 -37.5t-20.5 -30t-30 -20t-37 -7.5h-239q-19 0 -36.5 7.5t-30.5 20.5t-20.5 30.5t-7.5 36.5v163h-85v-239
q0 -7 -6 -13t-13 -6h-134q-19 0 -19 19v648zM472 515v-343h86v343h-86z" />
    <glyph glyph-name="uni044F" unicode="&#x44f;" 
d="M43 152q0 8 5.5 14t13.5 6h238v85h-162q-40 0 -67.5 28t-27.5 68v238q0 20 7.5 37.5t20.5 30t30.5 20t36.5 7.5h572q19 0 19 -19v-648q0 -19 -19 -19h-134q-7 0 -13 6t-6 13v496h-343v-86h239q7 0 13 -6t6 -13v-315q0 -40 -28 -67.5t-68 -27.5h-314q-19 0 -19 19v133z
" />
    <glyph glyph-name="uni0451" unicode="&#x451;" 
d="M43 95v496q0 20 7.5 37.5t20.5 30t30.5 20t36.5 7.5h496q40 0 67.5 -27.5t27.5 -67.5v-154q0 -6 -5 -14l-161 -160q-6 -6 -13 -6h-231q-19 0 -19 19v134q0 19 19 19h239v86h-343v-343h495q8 0 13.5 -6t5.5 -14v-133q0 -19 -19 -19h-572q-19 0 -36.5 7.5t-30.5 20.5
t-20.5 30.5t-7.5 36.5zM491 944h133q8 0 13.5 -6t5.5 -14v-133q0 -19 -19 -19h-133q-19 0 -19 19v133q0 8 5.5 14t13.5 6zM148 944h133q8 0 13.5 -6t5.5 -14v-133q0 -19 -19 -19h-133q-19 0 -19 19v133q0 8 5.5 14t13.5 6z" />
    <glyph glyph-name="endash" unicode="&#x2013;" horiz-adv-x="601" 
d="M62 429h477q19 0 19 -19v-134q0 -19 -19 -19h-477q-19 0 -19 19v134q0 19 19 19z" />
    <glyph glyph-name="emdash" unicode="&#x2014;" horiz-adv-x="601" 
d="M62 429h477q19 0 19 -19v-134q0 -19 -19 -19h-477q-19 0 -19 19v134q0 19 19 19z" />
    <glyph glyph-name="quoteleft" unicode="&#x2018;" horiz-adv-x="258" 
 />
    <glyph glyph-name="quoteright" unicode="&#x2019;" horiz-adv-x="258" 
 />
    <glyph glyph-name="quotesinglbase" unicode="&#x201a;" 
d="M367 131q0 9 6.5 15t14.5 6h53q9 0 15 -6t6 -15v-93h19v93q0 9 6.5 15t15.5 6h53q8 0 14.5 -6t6.5 -15v-127l-34 -4l-4 114h-19v-93q0 -9 -6.5 -15t-15.5 -6h-53q-8 0 -14.5 6t-6.5 15v93h-19v-110l-34 -4zM215 473q0 8 6 14.5t15 6.5h110q9 0 15 -6.5t6 -14.5v-111
q0 -8 -6 -14.5t-15 -6.5h-110q-9 0 -15 6.5t-6 14.5v111zM196 21v110q0 9 6 15t15 6h110q9 0 15 -6t6 -15v-110q0 -9 -6 -15t-15 -6h-110q-9 0 -15 6t-6 15zM174 494q9 0 15.5 -6.5t6.5 -14.5v-53q0 -9 -6.5 -15.5t-15.5 -6.5h-36v-19h53l5 -33l-75 -5q-8 0 -14.5 6.5
t-6.5 14.5v70l57 5v19h-76v-110l-34 -5l-4 149zM541 323h110q9 0 15 -6t6 -15v-34l-37 -39l-54 -1l-4 34l57 4v19h-76v-76h110l4 -34l-131 -4q-9 0 -15 6t-6 15v110q0 9 6 15t15 6zM500 379v19h-74l-39 37l-1 38q0 8 6.5 14.5t14.5 6.5h127l5 -34l-115 -4v-19h75l38 -37
l2 -38q0 -8 -6.5 -14.5t-15.5 -6.5h-127l-4 34zM348 319l131 4q9 0 15 -6t6 -15v-53q0 -9 -6 -15t-15 -6h-36v-53l-34 -4l-4 91l57 4v19h-76v-110l-34 -4zM291 209v19h-75l-38 37l-2 54l34 4l5 -57h76v53l34 4l4 -131q0 -9 -6.5 -15t-14.5 -6h-127l-5 34zM43 131q0 9 6 15
t15 6h108l4 -33l-95 -5v-76h91l4 -34l-112 -4q-9 0 -15 6t-6 15v110zM153 323l4 -4v-30l-38 -4v-110l-34 -4l-4 114h-34l-4 34zM253 456v-77h76v77h-76zM234 38h76v76h-76v-76zM306 437l4 -34l-4 -5h-30l-4 34zM253 91l34 4l4 -34l-4 -4h-30zM725 209l4 -34l-34 -4l-4 34z
" />
    <glyph glyph-name="quotedblleft" unicode="&#x201c;" 
d="M367 131q0 9 6.5 15t14.5 6h53q9 0 15 -6t6 -15v-93h19v93q0 9 6.5 15t15.5 6h53q8 0 14.5 -6t6.5 -15v-127l-34 -4l-4 114h-19v-93q0 -9 -6.5 -15t-15.5 -6h-53q-8 0 -14.5 6t-6.5 15v93h-19v-110l-34 -4zM215 473q0 8 6 14.5t15 6.5h110q9 0 15 -6.5t6 -14.5v-111
q0 -8 -6 -14.5t-15 -6.5h-110q-9 0 -15 6.5t-6 14.5v111zM196 21v110q0 9 6 15t15 6h110q9 0 15 -6t6 -15v-110q0 -9 -6 -15t-15 -6h-110q-9 0 -15 6t-6 15zM174 494q9 0 15.5 -6.5t6.5 -14.5v-53q0 -9 -6.5 -15.5t-15.5 -6.5h-36v-19h53l5 -33l-75 -5q-8 0 -14.5 6.5
t-6.5 14.5v70l57 5v19h-76v-110l-34 -5l-4 149zM541 323h110q9 0 15 -6t6 -15v-34l-37 -39l-54 -1l-4 34l57 4v19h-76v-76h110l4 -34l-131 -4q-9 0 -15 6t-6 15v110q0 9 6 15t15 6zM500 379v19h-74l-39 37l-1 38q0 8 6.5 14.5t14.5 6.5h127l5 -34l-115 -4v-19h75l38 -37
l2 -38q0 -8 -6.5 -14.5t-15.5 -6.5h-127l-4 34zM348 319l131 4q9 0 15 -6t6 -15v-53q0 -9 -6 -15t-15 -6h-36v-53l-34 -4l-4 91l57 4v19h-76v-110l-34 -4zM291 209v19h-75l-38 37l-2 54l34 4l5 -57h76v53l34 4l4 -131q0 -9 -6.5 -15t-14.5 -6h-127l-5 34zM43 131q0 9 6 15
t15 6h108l4 -33l-95 -5v-76h91l4 -34l-112 -4q-9 0 -15 6t-6 15v110zM153 323l4 -4v-30l-38 -4v-110l-34 -4l-4 114h-34l-4 34zM253 456v-77h76v77h-76zM234 38h76v76h-76v-76zM306 437l4 -34l-4 -5h-30l-4 34zM253 91l34 4l4 -34l-4 -4h-30zM725 209l4 -34l-34 -4l-4 34z
" />
    <glyph glyph-name="quotedblright" unicode="&#x201d;" 
d="M367 131q0 9 6.5 15t14.5 6h53q9 0 15 -6t6 -15v-93h19v93q0 9 6.5 15t15.5 6h53q8 0 14.5 -6t6.5 -15v-127l-34 -4l-4 114h-19v-93q0 -9 -6.5 -15t-15.5 -6h-53q-8 0 -14.5 6t-6.5 15v93h-19v-110l-34 -4zM215 473q0 8 6 14.5t15 6.5h110q9 0 15 -6.5t6 -14.5v-111
q0 -8 -6 -14.5t-15 -6.5h-110q-9 0 -15 6.5t-6 14.5v111zM196 21v110q0 9 6 15t15 6h110q9 0 15 -6t6 -15v-110q0 -9 -6 -15t-15 -6h-110q-9 0 -15 6t-6 15zM174 494q9 0 15.5 -6.5t6.5 -14.5v-53q0 -9 -6.5 -15.5t-15.5 -6.5h-36v-19h53l5 -33l-75 -5q-8 0 -14.5 6.5
t-6.5 14.5v70l57 5v19h-76v-110l-34 -5l-4 149zM541 323h110q9 0 15 -6t6 -15v-34l-37 -39l-54 -1l-4 34l57 4v19h-76v-76h110l4 -34l-131 -4q-9 0 -15 6t-6 15v110q0 9 6 15t15 6zM500 379v19h-74l-39 37l-1 38q0 8 6.5 14.5t14.5 6.5h127l5 -34l-115 -4v-19h75l38 -37
l2 -38q0 -8 -6.5 -14.5t-15.5 -6.5h-127l-4 34zM348 319l131 4q9 0 15 -6t6 -15v-53q0 -9 -6 -15t-15 -6h-36v-53l-34 -4l-4 91l57 4v19h-76v-110l-34 -4zM291 209v19h-75l-38 37l-2 54l34 4l5 -57h76v53l34 4l4 -131q0 -9 -6.5 -15t-14.5 -6h-127l-5 34zM43 131q0 9 6 15
t15 6h108l4 -33l-95 -5v-76h91l4 -34l-112 -4q-9 0 -15 6t-6 15v110zM153 323l4 -4v-30l-38 -4v-110l-34 -4l-4 114h-34l-4 34zM253 456v-77h76v77h-76zM234 38h76v76h-76v-76zM306 437l4 -34l-4 -5h-30l-4 34zM253 91l34 4l4 -34l-4 -4h-30zM725 209l4 -34l-34 -4l-4 34z
" />
    <glyph glyph-name="quotedblbase" unicode="&#x201e;" 
d="M388 152h53q9 0 15 -6t6 -15v-93h19v93q0 9 6.5 15t15.5 6h53q8 0 14.5 -6t6.5 -15v-127l-34 -4l-4 114h-19v-93q0 -9 -6.5 -15t-15.5 -6h-53q-8 0 -14.5 6t-6.5 15v93h-19v-110l-34 -4l-4 131q0 9 6.5 15t14.5 6zM215 362v111q0 8 6 14.5t15 6.5h110q9 0 15 -6.5
t6 -14.5v-111q0 -8 -6 -14.5t-15 -6.5h-110q-9 0 -15 6.5t-6 14.5zM196 21v110q0 9 6 15t15 6h110q9 0 15 -6t6 -15v-110q0 -9 -6 -15t-15 -6h-110q-9 0 -15 6t-6 15zM174 494q9 0 15.5 -6.5t6.5 -14.5v-53q0 -9 -6.5 -15.5t-15.5 -6.5h-36v-19h53l5 -33l-75 -5
q-8 0 -14.5 6.5t-6.5 14.5v70l57 5v19h-76v-110l-34 -5l-4 149zM541 323h110q9 0 15 -6t6 -15v-34l-37 -39l-54 -1l-4 34l57 4v19h-76v-76h110l4 -34l-131 -4q-9 0 -15 6t-6 15v110q0 9 6 15t15 6zM386 375l114 4v19h-74l-39 37l-1 38q0 8 6.5 14.5t14.5 6.5h127l5 -34
l-115 -4v-19h75l38 -37l2 -38q0 -8 -6.5 -14.5t-15.5 -6.5h-127zM348 319l131 4q9 0 15 -6t6 -15v-53q0 -9 -6 -15t-15 -6h-36v-53l-34 -4l-4 91l57 4v19h-76v-110l-34 -4zM210 323l5 -57h76v53l34 4l4 -131q0 -9 -6.5 -15t-14.5 -6h-127l-5 34l115 4v19h-75l-38 37l-2 54z
M43 131q0 9 6 15t15 6h108l4 -33l-95 -5v-76h91l4 -34l-112 -4q-9 0 -15 6t-6 15v110zM43 319l110 4l4 -34l-38 -4v-110l-34 -4l-4 114h-34zM329 379v77h-76v-77h76zM234 114v-76h76v76h-76zM272 432l34 5l4 -34l-4 -5h-30zM253 91l34 4l4 -34l-4 -4h-30zM725 209l4 -34
l-34 -4l-4 34z" />
    <glyph glyph-name="bullet" unicode="&#x2022;" horiz-adv-x="258" 
d="M62 429h134q19 0 19 -19v-134q0 -19 -19 -19h-134q-19 0 -19 19v134q0 19 19 19z" />
    <glyph glyph-name="guilsinglleft" unicode="&#x2039;" horiz-adv-x="495" 
d="M49 357l276 276q5 5 13 5q9 0 14 -5l94 -94q6 -6 5.5 -13.5t-5.5 -13.5l-168 -169l168 -168q6 -6 5.5 -13.5t-5.5 -13.5l-94 -95q-8 -5 -14 -5q-5 0 -13 5l-276 277q-13 14 0 27z" />
    <glyph glyph-name="guilsinglright" unicode="&#x203a;" horiz-adv-x="495" 
d="M49 175l168 168l-168 169q-5 6 -5.5 13.5t5.5 13.5l94 94q5 5 13 5q9 0 14 -5l276 -276q14 -13 0 -27l-276 -277q-8 -5 -14 -5q-5 0 -13 5l-94 95q-5 6 -5.5 13.5t5.5 13.5z" />
    <glyph glyph-name="fraction" unicode="&#x2044;" horiz-adv-x="258" 
d="M62 858h134q8 0 13.5 -6t5.5 -14v-991q0 -19 -19 -19h-134q-19 0 -19 19v991q0 8 5.5 14t13.5 6z" />
    <glyph glyph-name="Euro" unicode="&#x20ac;" 
d="M367 131q0 9 6.5 15t14.5 6h53q9 0 15 -6t6 -15v-93h19v93q0 9 6.5 15t15.5 6h53q8 0 14.5 -6t6.5 -15v-127l-34 -4l-4 114h-19v-93q0 -9 -6.5 -15t-15.5 -6h-53q-8 0 -14.5 6t-6.5 15v93h-19v-110l-34 -4zM215 473q0 8 6 14.5t15 6.5h110q9 0 15 -6.5t6 -14.5v-111
q0 -8 -6 -14.5t-15 -6.5h-110q-9 0 -15 6.5t-6 14.5v111zM196 21v110q0 9 6 15t15 6h110q9 0 15 -6t6 -15v-110q0 -9 -6 -15t-15 -6h-110q-9 0 -15 6t-6 15zM174 494q9 0 15.5 -6.5t6.5 -14.5v-53q0 -9 -6.5 -15.5t-15.5 -6.5h-36v-19h53l5 -33l-75 -5q-8 0 -14.5 6.5
t-6.5 14.5v70l57 5v19h-76v-110l-34 -5l-4 149zM541 323h110q9 0 15 -6t6 -15v-34l-37 -39l-54 -1l-4 34l57 4v19h-76v-76h110l4 -34l-131 -4q-9 0 -15 6t-6 15v110q0 9 6 15t15 6zM500 379v19h-74l-39 37l-1 38q0 8 6.5 14.5t14.5 6.5h127l5 -34l-115 -4v-19h75l38 -37
l2 -38q0 -8 -6.5 -14.5t-15.5 -6.5h-127l-4 34zM348 319l131 4q9 0 15 -6t6 -15v-53q0 -9 -6 -15t-15 -6h-36v-53l-34 -4l-4 91l57 4v19h-76v-110l-34 -4zM291 209v19h-75l-38 37l-2 54l34 4l5 -57h76v53l34 4l4 -131q0 -9 -6.5 -15t-14.5 -6h-127l-5 34zM43 131q0 9 6 15
t15 6h108l4 -33l-95 -5v-76h91l4 -34l-112 -4q-9 0 -15 6t-6 15v110zM153 323l4 -4v-30l-38 -4v-110l-34 -4l-4 114h-34l-4 34zM253 456v-77h76v77h-76zM234 38h76v76h-76v-76zM306 437l4 -34l-4 -5h-30l-4 34zM253 91l34 4l4 -34l-4 -4h-30zM725 209l4 -34l-34 -4l-4 34z
" />
    <glyph glyph-name="uni2224" unicode="&#x2224;" horiz-adv-x="540" 
d="M320 360v-100h-100v100h100z" />
    <glyph glyph-name="approxequal" unicode="&#x2248;" 
d="M367 131q0 9 6.5 15t14.5 6h53q9 0 15 -6t6 -15v-93h19v93q0 9 6.5 15t15.5 6h53q8 0 14.5 -6t6.5 -15v-127l-34 -4l-4 114h-19v-93q0 -9 -6.5 -15t-15.5 -6h-53q-8 0 -14.5 6t-6.5 15v93h-19v-110l-34 -4zM215 473q0 8 6 14.5t15 6.5h110q9 0 15 -6.5t6 -14.5v-111
q0 -8 -6 -14.5t-15 -6.5h-110q-9 0 -15 6.5t-6 14.5v111zM196 21v110q0 9 6 15t15 6h110q9 0 15 -6t6 -15v-110q0 -9 -6 -15t-15 -6h-110q-9 0 -15 6t-6 15zM174 494q9 0 15.5 -6.5t6.5 -14.5v-53q0 -9 -6.5 -15.5t-15.5 -6.5h-36v-19h53l5 -33l-75 -5q-8 0 -14.5 6.5
t-6.5 14.5v70l57 5v19h-76v-110l-34 -5l-4 149zM541 323h110q9 0 15 -6t6 -15v-34l-37 -39l-54 -1l-4 34l57 4v19h-76v-76h110l4 -34l-131 -4q-9 0 -15 6t-6 15v110q0 9 6 15t15 6zM500 379v19h-74l-39 37l-1 38q0 8 6.5 14.5t14.5 6.5h127l5 -34l-115 -4v-19h75l38 -37
l2 -38q0 -8 -6.5 -14.5t-15.5 -6.5h-127l-4 34zM348 319l131 4q9 0 15 -6t6 -15v-53q0 -9 -6 -15t-15 -6h-36v-53l-34 -4l-4 91l57 4v19h-76v-110l-34 -4zM291 209v19h-75l-38 37l-2 54l34 4l5 -57h76v53l34 4l4 -131q0 -9 -6.5 -15t-14.5 -6h-127l-5 34zM43 131q0 9 6 15
t15 6h108l4 -33l-95 -5v-76h91l4 -34l-112 -4q-9 0 -15 6t-6 15v110zM153 323l4 -4v-30l-38 -4v-110l-34 -4l-4 114h-34l-4 34zM253 456v-77h76v77h-76zM234 38h76v76h-76v-76zM306 437l4 -34l-4 -5h-30l-4 34zM253 91l34 4l4 -34l-4 -4h-30zM725 209l4 -34l-34 -4l-4 34z
" />
    <glyph glyph-name="dotmath" unicode="&#x22c5;" horiz-adv-x="258" 
d="M62 429h134q19 0 19 -19v-134q0 -19 -19 -19h-134q-19 0 -19 19v134q0 19 19 19z" />
    <glyph glyph-name="uni25AF" unicode="&#x25af;" horiz-adv-x="696" 
d="M74 773q0 9 6 15.5t15 6.5h506q9 0 15 -6.5t6 -15.5v-752q0 -9 -6 -15t-15 -6h-506q-9 0 -15 6t-6 15v752zM211 658v-521h274v521h-274z" />
    <glyph glyph-name="Ydieresis.001" 
d="M62 686h134q19 0 19 -19v-238h343v238q0 19 19 19h133q19 0 19 -19v-572q0 -19 -7.5 -36.5t-20 -30.5t-30 -20.5t-37.5 -7.5h-572q-19 0 -19 19v133q0 8 5.5 14t13.5 6h496v85h-336q-7 0 -13 6l-160 160q-6 6 -6 14v230q0 19 19 19zM491 944h133q8 0 13.5 -6t5.5 -14
v-133q0 -19 -19 -19h-133q-19 0 -19 19v133q0 8 5.5 14t13.5 6zM129 924q0 8 5.5 14t13.5 6h133q8 0 13.5 -6t5.5 -14v-133q0 -19 -19 -19h-133q-19 0 -19 19v133z" />
    <glyph glyph-name="ordfeminine" 
d="M43 249q0 8 6 14l160 160q6 6 13 6h231q19 0 19 -19v-134q0 -19 -19 -19h-238v-85h343v343h-496q-19 0 -19 19v133q0 19 19 19h572q40 0 67.5 -27.5t27.5 -67.5v-496q0 -19 -7.5 -36.5t-20 -30.5t-30 -20.5t-37.5 -7.5h-496q-19 0 -36.5 7.5t-30.5 20.5t-20.5 30.5
t-7.5 36.5v154z" />
    <glyph glyph-name="ordmasculine" 
d="M43 591q0 20 7.5 37.5t20.5 30t30.5 20t36.5 7.5h496q40 0 67.5 -27.5t27.5 -67.5v-496q0 -19 -7.5 -36.5t-20 -30.5t-30 -20.5t-37.5 -7.5h-496q-19 0 -36.5 7.5t-30.5 20.5t-20.5 30.5t-7.5 36.5v496zM558 172v343h-343v-343h343zM300 410q0 19 19 19h134q19 0 19 -19
v-134q0 -19 -19 -19h-134q-19 0 -19 19v134z" />
    <glyph glyph-name="onesuperior" horiz-adv-x="333" 
 />
    <glyph glyph-name="twosuperior" horiz-adv-x="333" 
 />
    <glyph glyph-name="threesuperior" horiz-adv-x="333" 
 />
    </font>
</defs>
</svg>
