<svg width="1240" height="1388" viewBox="0 0 1240 1388" fill="none" xmlns="http://www.w3.org/2000/svg">
<path d="M-399.59 656.302C-390.59 654.726 -385.156 651.418 -376.227 647.551C-248.275 592.148 -119.163 539.019 14.7505 491.559C287.832 394.776 570.688 314.648 846.654 222.774C858.707 218.762 887.191 207.376 885.118 216.377C882.032 229.768 872.339 242.358 865.485 255.256C828.711 324.458 838.701 306.166 791.038 395.182C672.836 615.938 88.2997 824.909 -49.5117 1041.15C-95.7646 1113.72 -145.774 1186.13 -204.484 1254.89C-208.412 1259.49 -219.951 1273.23 -217.364 1268.25C-206.486 1247.28 -115.357 1200.45 -115.357 1200.45C186.857 1022.69 980.712 883.642 1307.52 730.481C1396.88 688.604 1487.15 647.284 1573.1 601.817C1603.87 585.547 1632.62 566.594 1664.37 551.291C1673.15 547.053 1670.7 553.444 1669.02 557.498C1648.2 607.385 1623.01 656.804 1600.65 706.434C1542.36 835.861 1482.52 965.488 1428.65 1095.63C1424.57 1105.51 1408.67 1119.04 1418.94 1125.59C1423.31 1128.37 1428.08 1119.32 1432.21 1115.93C1456.88 1095.64 1468.21 1086.8 1498.36 1065.67C1680.57 938.01 1883.94 830.004 2092.81 725.309C2098.33 722.538 2195.18 666.377 2205.64 676.46C2216.66 687.056 2220.35 738.23 2220.74 741.231C2224.46 770.049 2228.31 806.747 2230.95 836.05C2231.56 842.741 2226.06 946.196 2233.89 948.366C2244.39 951.288 2253.6 938.626 2263.17 933.481C2341.89 891.175 2421.14 849.214 2492.62 800.73C2719.73 646.686 2878.63 460.565 3044.35 276.22C3092.73 222.389 3142.69 162.526 3210.03 118.259" stroke="white" stroke-opacity="0.2" stroke-width="236.15" stroke-linecap="round"/>
</svg>
