<svg width="47" height="46" viewBox="0 0 47 46" fill="none" xmlns="http://www.w3.org/2000/svg">
<path d="M45.386 29.3934L42.4098 28.8973C42.2834 28.5371 42.1375 28.1843 41.9731 27.8397L43.7259 25.3856H43.7255C43.9389 25.0869 43.9049 24.6774 43.6454 24.4178L40.4563 21.2287C40.1967 20.9691 39.7872 20.9352 39.4881 21.1485L37.034 22.9014C36.8084 22.7947 36.5764 22.7082 36.3441 22.6164L36.4254 22.5963V22.5959C36.7599 22.512 36.9945 22.2114 36.9945 21.8668V15.854C36.9945 15.509 36.7595 15.2084 36.4246 15.1249L31.7205 13.9524V13.9527C31.5978 13.9195 31.4994 13.8285 31.4568 13.7092C31.4501 13.6928 31.4434 13.6767 31.436 13.6603H31.4356C31.3882 13.544 31.3946 13.4127 31.4531 13.3016L33.9486 9.14615H33.9482C34.1261 8.85039 34.0795 8.47185 33.8356 8.22794L29.5891 3.97888C29.3452 3.73497 28.9663 3.68872 28.6705 3.86624L24.524 6.35798C24.4113 6.42063 24.2763 6.42921 24.1566 6.3811L24.1078 6.36021C23.9884 6.31732 23.8978 6.21923 23.8642 6.09691L22.6917 1.39214C22.6081 1.0576 22.3075 0.822648 21.9626 0.822266H15.9498C15.6048 0.822639 15.3042 1.05759 15.2206 1.39214L14.0485 6.09624C14.0153 6.21895 13.9243 6.3174 13.8049 6.36029L13.7561 6.38118C13.6397 6.42929 13.5084 6.42295 13.3973 6.36402L9.24191 3.86856C8.94615 3.69104 8.56761 3.73729 8.3237 3.98157L4.07464 8.22805C3.83073 8.47197 3.78448 8.85051 3.962 9.14626L6.45106 13.2928H6.45143C6.51446 13.4054 6.52304 13.5408 6.47456 13.6605C6.4671 13.6769 6.46039 13.693 6.45367 13.7094C6.41078 13.8287 6.31269 13.9193 6.19037 13.9529L1.4856 15.1255V15.1251C1.15181 15.2097 0.917969 15.51 0.917969 15.8542V21.867C0.918342 22.212 1.1533 22.5126 1.48785 22.5961L6.19195 23.7687C6.31465 23.8018 6.41311 23.8929 6.45599 24.0122C6.46271 24.0286 6.46942 24.0446 6.47688 24.0611C6.52462 24.1767 6.51828 24.3079 6.45972 24.4187L3.96427 28.5674C3.78674 28.8632 3.83299 29.2417 4.07727 29.486L8.32376 33.7392C8.5673 33.9835 8.94621 34.0301 9.24197 33.8526L13.3885 31.3635C13.5011 31.2997 13.6365 31.2911 13.7562 31.34L13.8051 31.3609V31.3613C13.9244 31.4038 14.0151 31.5019 14.0486 31.6242L15.2212 36.329H15.2208C15.3043 36.6639 15.6049 36.8988 15.9499 36.8988H21.9627C22.3073 36.8988 22.6079 36.6642 22.6918 36.3297L22.7142 36.2488C22.8059 36.4811 22.8925 36.7153 22.9991 36.9388L21.2463 39.3928L21.2467 39.3924C21.0333 39.6915 21.0673 40.101 21.3268 40.3606L24.5159 43.5497C24.7755 43.8093 25.185 43.8432 25.4842 43.6299L27.9382 41.877L27.9378 41.8774C28.2824 42.0419 28.6352 42.1877 28.9955 42.3141L29.4915 45.2903C29.5519 45.6517 29.8641 45.9169 30.2303 45.918H34.7397C35.107 45.9176 35.4203 45.6525 35.4807 45.2903L35.9767 42.3141C36.337 42.1877 36.6898 42.0419 37.0344 41.8774L39.4884 43.6303L39.4881 43.6299C39.7872 43.8432 40.1967 43.8093 40.4563 43.5497L43.6454 40.3606C43.905 40.101 43.9389 39.6915 43.7256 39.3924L41.9727 36.9384L41.9731 36.9388C42.1376 36.5941 42.2834 36.2413 42.4098 35.8811L45.386 35.385C45.7481 35.3246 46.0133 35.0113 46.0137 34.644V30.1347C46.0133 29.7673 45.7481 29.454 45.386 29.3936L45.386 29.3934ZM15.5068 31.2618C15.3572 30.6778 14.9388 30.1997 14.3793 29.9744C14.3681 29.97 14.3577 29.9647 14.3461 29.961L14.3465 29.9606C13.7852 29.7223 13.1441 29.7633 12.6179 30.071L8.96518 32.2633L5.55487 28.8384L7.75788 25.1835C8.06035 24.6595 8.09913 24.0233 7.86232 23.4665C7.85859 23.4553 7.85337 23.4448 7.84889 23.4333C7.62102 22.8742 7.14065 22.4572 6.55548 22.3103L2.42166 21.2798V16.4411L6.55548 15.4106C7.13952 15.2611 7.61727 14.8426 7.84288 14.2832C7.84735 14.272 7.85257 14.2615 7.8563 14.25V14.2503C8.09462 13.689 8.05359 13.0479 7.74591 12.5217L5.55292 8.86903L8.96953 5.45242L12.6334 7.66183C13.1578 7.96393 13.7936 8.00271 14.3508 7.76626C14.362 7.76253 14.3725 7.75731 14.384 7.75283H14.3837C14.9427 7.52496 15.3597 7.04459 15.5067 6.45942L16.5371 2.3256H21.3758L22.4063 6.45942C22.5559 7.04347 22.9747 7.52121 23.5338 7.74682C23.545 7.7513 23.5554 7.75652 23.567 7.76025C24.1283 7.99819 24.769 7.95717 25.2956 7.64986L28.9483 5.45687L32.3649 8.87348L30.1656 12.5352C29.8631 13.0595 29.8247 13.6954 30.0612 14.2526C30.0612 14.2638 30.0701 14.2742 30.0746 14.2858L30.075 14.2854C30.3002 14.8448 30.7787 15.2637 31.3631 15.4129L35.4913 16.4412V19.5498L35.4809 19.4882C35.4205 19.1261 35.1072 18.8605 34.7398 18.8605H30.2305C29.8631 18.8605 29.5499 19.1261 29.4894 19.4882L28.9934 22.4644C28.6332 22.5908 28.2803 22.7367 27.9357 22.9011L27.2353 22.4014C28.3579 19.7989 28.1987 16.8213 26.8053 14.353C25.4119 11.8848 22.9445 10.2102 20.1365 9.8269C17.3282 9.44314 14.5023 10.3949 12.4981 12.3991C10.4938 14.4033 9.54203 17.2292 9.92584 20.0376C10.3092 22.8455 11.9838 25.313 14.452 26.7064C16.9202 28.0998 19.8978 28.259 22.5003 27.1364L23.0001 27.8361C22.8416 28.1807 22.7002 28.5331 22.5771 28.8922L19.5872 29.3905C19.2228 29.4498 18.9554 29.7653 18.9565 30.1345V34.6438C18.9565 35.0112 19.2221 35.3245 19.5842 35.3849L19.6458 35.3953H16.5372L15.5068 31.2618ZM21.2443 25.3875L21.6072 25.8947H21.6076C19.4478 26.7089 17.0333 26.4855 15.0596 25.2887C13.086 24.0918 11.7714 22.0544 11.495 19.7626C11.2182 17.4712 12.0096 15.1794 13.642 13.5473C15.2741 11.9149 17.5659 11.1235 19.8573 11.4002C22.1491 11.677 24.1866 12.9913 25.3834 14.9649C26.5801 16.9386 26.8036 19.3531 25.9894 21.5129L25.4822 21.15H25.4818C25.1831 20.9366 24.7736 20.9706 24.514 21.2302L21.3249 24.4193C21.0661 24.6788 21.0321 25.0872 21.2447 25.3856L21.2443 25.3875ZM44.5108 34.0071L41.7133 34.473L41.7137 34.4733C41.4306 34.5207 41.1997 34.7247 41.1173 34.9992C40.9454 35.5717 40.7168 36.1259 40.4352 36.6528C40.2998 36.905 40.3192 37.2119 40.4855 37.445L42.1329 39.7525L39.8452 42.0402L37.5377 40.3928C37.3046 40.2265 36.9977 40.2071 36.7456 40.3425C36.2182 40.624 35.6644 40.8527 35.0919 41.025C34.8174 41.107 34.6134 41.3382 34.5661 41.621L34.1036 44.4144H30.8674L30.4016 41.6168L30.4013 41.6172C30.3539 41.3341 30.1499 41.1033 29.8754 41.0209C29.3029 40.8489 28.7487 40.6203 28.2217 40.3387C27.9696 40.2034 27.6627 40.2228 27.4296 40.3891L25.1221 42.0364L22.8344 39.7487L24.4818 37.4413C24.6481 37.2082 24.6675 36.9012 24.5321 36.6491C24.2502 36.1218 24.0215 35.5679 23.8496 34.9955C23.7676 34.721 23.5363 34.517 23.2536 34.4696L20.4602 34.0071V30.771L23.2577 30.3052L23.2574 30.3048C23.5293 30.2548 23.7534 30.0639 23.8459 29.8035C24.0253 29.2258 24.2561 28.6653 24.5359 28.129C24.6712 27.8769 24.6518 27.5699 24.4855 27.3368L22.8382 25.0294L25.1259 22.7417L27.4333 24.389C27.6664 24.5554 27.9734 24.5747 28.2255 24.4394C28.7525 24.1578 29.3067 23.9292 29.8791 23.7569C30.1536 23.6748 30.3576 23.444 30.405 23.1609L30.8675 20.3637H34.1039L34.5697 23.1613V23.1609C34.6171 23.444 34.8211 23.6748 35.0956 23.7569C35.6681 23.9292 36.2223 24.1578 36.7492 24.4394C37.0013 24.5748 37.3083 24.5554 37.5414 24.389L39.8488 22.7417L42.1365 25.0294L40.4892 27.3368C40.3229 27.5699 40.3035 27.8769 40.4389 28.129C40.7204 28.656 40.9491 29.2102 41.1214 29.7826C41.2034 30.0571 41.4346 30.2611 41.7173 30.3085L44.5149 30.7743L44.5108 34.0071Z" fill="white"/>
<path d="M32.485 25.624C30.6911 25.624 28.9706 26.3367 27.7022 27.6055C26.4334 28.8739 25.7207 30.5944 25.7207 32.3883C25.7207 34.1826 26.4334 35.903 27.7022 37.1715C28.9706 38.4402 30.6911 39.153 32.485 39.153C34.2793 39.153 35.9996 38.4403 37.2681 37.1715C38.5369 35.9031 39.2496 34.1826 39.2496 32.3883C39.2474 30.5952 38.5339 28.8758 37.2659 27.6078C35.9979 26.3398 34.2786 25.6263 32.4851 25.6241L32.485 25.624ZM32.485 37.6492C31.0898 37.6492 29.7516 37.095 28.7651 36.1081C27.7783 35.1217 27.2241 33.7835 27.2241 32.3879C27.2241 30.9927 27.7783 29.6545 28.7651 28.6681C29.7516 27.6812 31.0898 27.127 32.485 27.127C33.8806 27.127 35.2187 27.6812 36.2052 28.6681C37.192 29.6545 37.7463 30.9927 37.7463 32.3879C37.7448 33.7827 37.1898 35.1202 36.2038 36.1066C35.2173 37.0927 33.8799 37.6477 32.4851 37.6491L32.485 37.6492Z" fill="white"/>
<path d="M33.2363 4.58008H34.7393V6.08306H33.2363V4.58008Z" fill="white"/>
<path d="M41.5031 20.3632H43.0061L43.0065 5.33146C43.0065 5.13193 42.927 4.94098 42.7864 4.8C42.6455 4.65902 42.4541 4.57996 42.255 4.57996H36.2422V6.08294H41.5034L41.5031 20.3632Z" fill="white"/>
<path d="M18.957 42.9109H20.46V44.4139H18.957V42.9109Z" fill="white"/>
<path d="M6.17876 33.1407H4.67578V43.6631C4.67578 43.8627 4.75485 44.0536 4.89582 44.1946C5.0368 44.3356 5.22776 44.4146 5.42728 44.4146H17.4525V42.9117H6.17868L6.17876 33.1407Z" fill="white"/>
</svg>
