<svg width="46" height="46" viewBox="0 0 46 46" fill="none" xmlns="http://www.w3.org/2000/svg">
<g clip-path="url(#clip0_1201_16161)">
<path d="M13.8253 33.4948C13.8253 35.9064 11.8701 37.8612 9.45855 37.8612C7.04701 37.8612 5.0918 35.9064 5.0918 33.4948C5.0918 31.083 7.04701 29.1281 9.45855 29.1281C11.8701 29.1281 13.8253 31.0829 13.8253 33.4948Z" fill="white"/>
<path d="M39.9796 33.4948C39.9796 35.9064 38.0244 37.8612 35.6129 37.8612C33.2013 37.8612 31.2461 35.9064 31.2461 33.4948C31.2461 31.083 33.2013 29.1281 35.6129 29.1281C38.0244 29.1281 39.9796 31.0829 39.9796 33.4948Z" fill="white"/>
<path d="M39.9861 17.744H39.9871C40.5286 17.6819 41.0294 18.1731 41.0796 18.6123L41.4047 21.4536C41.4669 21.995 41.0779 22.4843 40.5365 22.5461H40.5355C39.994 22.6082 39.4932 22.1169 39.443 21.6778L39.1178 18.8365C39.0557 18.295 39.4447 17.8058 39.9861 17.744Z" fill="white"/>
<mask id="mask0_1201_16161" style="mask-type:luminance" maskUnits="userSpaceOnUse" x="0" y="7" width="45" height="28">
<path d="M0.373047 7.70508H44.6532V34.9512H0.373047V7.70508Z" fill="white"/>
</mask>
<g mask="url(#mask0_1201_16161)">
<path d="M44.5349 21.2851C44.2754 18.1805 43.977 15.9059 43.4867 14.2339C42.6497 11.4801 41.6983 9.03807 38.8934 8.50247C37.1895 8.16601 25.5428 7.75093 22.4394 7.78458C19.3354 7.7499 9.85784 8.08567 8.15715 8.42213C5.35836 8.95736 2.50816 11.4801 1.69922 14.2339C1.22543 15.9056 0.710796 18.18 0.482456 21.2851C0.266166 24.3897 0.382208 28.2834 0.727935 29.9396C1.07744 31.6129 2.08233 32.4425 3.56821 32.862C3.88476 29.8922 6.4047 27.57 9.45794 27.57C12.7243 27.57 15.3813 30.2276 15.3813 33.4934C15.3813 33.917 15.3353 34.3297 15.2509 34.7283C17.855 34.8217 22.8294 34.878 24.1832 34.865C25.5115 34.878 27.6237 34.8245 29.8202 34.7335C29.7347 34.3332 29.6887 33.9188 29.6887 33.4934C29.6887 30.2271 32.3464 27.57 35.6121 27.57C38.6831 27.57 41.2155 29.9197 41.507 32.9155C43.0436 32.5193 44.0911 31.9044 44.361 30.2459C44.6024 28.5742 44.7823 24.3901 44.5341 21.2854L44.5349 21.2851ZM12.4443 21.0534C12.4443 21.5766 12.0172 21.9985 11.494 21.9927C10.6821 21.9831 8.2664 21.9739 7.45447 21.9625C6.47361 21.9478 5.37981 21.1773 5.36162 20.3565C5.24317 18.8006 5.57001 17.2388 6.29027 15.6732C6.62054 15.035 7.47609 14.5629 8.23283 14.5523C8.78558 14.5454 10.9416 14.5386 11.494 14.5324C12.0172 14.5262 12.4437 14.9492 12.4437 15.4718V21.0535L12.4443 21.0534ZM22.2133 21.1279C22.2133 21.6483 21.7897 22.0707 21.2689 22.0679C19.727 22.06 17.3821 22.049 15.8402 22.0359C15.3249 22.0315 14.9087 21.6123 14.9087 21.0966V15.43C14.9087 14.9147 15.3248 14.4951 15.8402 14.49C17.3821 14.4769 19.727 14.4656 21.2689 14.4581C21.7893 14.4553 22.2133 14.8766 22.2133 15.3981V21.1284V21.1279ZM31.8215 21.1443C31.8215 21.6624 31.402 22.0837 30.8832 22.0837C29.3413 22.0865 26.9964 22.0854 25.4546 22.0827C24.9365 22.0817 24.5169 21.6607 24.5169 21.1427V15.381C24.5169 14.863 24.9365 14.4427 25.4546 14.441C26.9964 14.4383 29.3413 14.4376 30.8832 14.441C31.4013 14.441 31.8215 14.8623 31.8215 15.3804V21.1443ZM42.1707 23.9352C41.9104 24.1203 41.5729 24.1584 41.2687 24.0599L34.85 21.9876C34.5005 21.8743 34.2358 21.568 34.209 21.2014C34.2073 21.178 34.2062 21.1554 34.2062 21.132V15.392C34.2062 14.8722 34.6292 14.4509 35.1491 14.4526C36.5934 14.4588 38.3578 14.4673 39.8018 14.4787C40.5362 14.4849 41.1943 14.8852 41.412 15.4802C41.413 15.4836 41.4147 15.4871 41.4154 15.4905C42.1937 18.2614 42.4065 20.5456 42.5398 23.1919C42.5666 23.4868 42.4179 23.7584 42.1704 23.9349L42.1707 23.9352Z" fill="white"/>
</g>
</g>
<defs>
<clipPath id="clip0_1201_16161">
<rect width="45" height="45" fill="white" transform="translate(0.0136719 0.322266)"/>
</clipPath>
</defs>
</svg>
