<svg width="46" height="46" viewBox="0 0 46 46" fill="none" xmlns="http://www.w3.org/2000/svg">
<g clip-path="url(#clip0_1201_16159)">
<path d="M21.0548 44.0478C21.0548 44.4145 20.7575 44.7121 20.3905 44.7121H1.4905C1.12349 44.7121 0.826172 44.4145 0.826172 44.0478C0.826172 43.6811 1.12349 43.3835 1.4905 43.3835H2.67184V42.6573C2.67184 41.0949 3.94283 39.8243 5.50526 39.8243H7.26579C8.82823 39.8243 10.0992 41.0953 10.0992 42.6573V43.3835H11.7815V42.6573C11.7815 41.0949 13.0525 39.8243 14.6149 39.8243H16.3755C17.9379 39.8243 19.2089 41.0953 19.2089 42.6573V43.3835H20.3902C20.7569 43.3835 21.0542 43.6811 21.0542 44.0478H21.0548ZM6.38589 39.3851C7.80418 39.3851 8.95774 38.2316 8.95774 36.8136C8.95774 35.3957 7.80418 34.2421 6.38589 34.2421C4.96795 34.2421 3.81438 35.3957 3.81438 36.8136C3.81438 38.2312 4.96795 39.3851 6.38589 39.3851ZM12.9242 36.8133C12.9242 38.2312 14.0777 39.3848 15.4957 39.3848C16.914 39.3848 18.0675 38.2312 18.0675 36.8133C18.0675 35.3953 16.914 34.2418 15.4957 34.2418C14.0777 34.2418 12.9242 35.3953 12.9242 36.8133ZM41.3427 43.3834H40.1614V42.6573C40.1614 41.0949 38.8904 39.8242 37.3283 39.8242H35.5674C34.005 39.8242 32.7344 41.0952 32.7344 42.6573V43.3834H31.052V42.6573C31.052 41.0949 29.7807 39.8242 28.2183 39.8242H26.4577C24.8953 39.8242 23.624 41.0952 23.624 42.6573V43.3834H22.4429C22.0759 43.3834 21.7786 43.6811 21.7786 44.0478C21.7786 44.4144 22.0759 44.7121 22.4429 44.7121H41.3429C41.7096 44.7121 42.0072 44.4144 42.0072 44.0478C42.0072 43.6811 41.7099 43.3834 41.3432 43.3834H41.3427ZM24.7657 36.8133C24.7657 38.2312 25.9192 39.3848 27.3379 39.3848C28.7558 39.3848 29.9094 38.2312 29.9094 36.8133C29.9094 35.3953 28.7558 34.2418 27.3379 34.2418C25.9196 34.2418 24.7657 35.3953 24.7657 36.8133ZM36.4472 34.2418C35.0293 34.2418 33.8757 35.3953 33.8757 36.8133C33.8757 38.2312 35.0293 39.3848 36.4472 39.3848C37.8651 39.3848 39.0187 38.2312 39.0187 36.8133C39.0187 35.3953 37.8651 34.2418 36.4472 34.2418ZM4.85228 32.9409H20.3043C20.6713 32.9409 20.9687 32.6432 20.9687 32.2766C20.9687 31.9099 20.6713 31.6122 20.3043 31.6122H19.4193V30.9568C19.4193 29.7359 18.426 28.7428 17.2052 28.7428H15.399C14.1781 28.7428 13.1849 29.736 13.1849 30.9568V31.6122L11.9716 31.6126V30.9572C11.9716 29.7363 10.9783 28.7431 9.75755 28.7431H7.95131C6.73042 28.7431 5.73725 29.7364 5.73725 30.9572V31.6126H4.8522C4.48518 31.6126 4.18786 31.9102 4.18786 32.2769C4.18821 32.6436 4.48552 32.9409 4.85254 32.9409L4.85228 32.9409ZM8.85438 28.4574C10.0584 28.4574 11.0376 27.4779 11.0376 26.2742C11.0376 25.0702 10.058 24.091 8.85438 24.091C7.65037 24.091 6.67118 25.0705 6.67118 26.2742C6.67084 27.4782 7.65037 28.4574 8.85438 28.4574ZM14.1186 26.2742C14.1186 27.4782 15.0981 28.4574 16.3021 28.4574C17.5062 28.4574 18.4853 27.4779 18.4853 26.2742C18.4853 25.0702 17.5058 24.091 16.3021 24.091C15.0981 24.091 14.1186 25.0705 14.1186 26.2742ZM28.7137 26.2742C28.7137 25.0702 27.7342 24.091 26.5305 24.091C25.3265 24.091 24.3473 25.0705 24.3473 26.2742C24.3473 27.4782 25.3268 28.4574 26.5305 28.4574C27.7342 28.4574 28.7137 27.4782 28.7137 26.2742ZM33.9782 24.091C32.7742 24.091 31.795 25.0705 31.795 26.2742C31.795 27.4782 32.7745 28.4574 33.9782 28.4574C35.1822 28.4574 36.1614 27.4779 36.1614 26.2742C36.1617 25.0705 35.1822 24.091 33.9782 24.091ZM34.8811 28.7431H33.0748C31.854 28.7431 30.8608 29.7363 30.8608 30.9571V31.6125H29.6475V30.9571C29.6475 29.7362 28.6542 28.7431 27.4334 28.7431H25.6272C24.4063 28.7431 23.4131 29.7363 23.4131 30.9571V31.6125H22.5281C22.161 31.6125 21.8637 31.9102 21.8637 32.2768C21.8637 32.6435 22.161 32.9412 22.5281 32.9412H37.9801C38.3468 32.9412 38.6444 32.6435 38.6444 32.2768C38.6444 31.9102 38.3468 31.6125 37.9801 31.6125H37.095V30.9571C37.095 29.7362 36.1019 28.7431 34.8811 28.7431ZM34.11 4.86493V16.2784C34.613 16.3824 34.992 16.8288 34.992 17.3623V18.1045C34.992 18.715 34.4955 19.2114 33.8851 19.2114L8.94699 19.2118C8.33656 19.2118 7.84009 18.715 7.84009 18.1049V17.3626C7.84009 16.8294 8.21946 16.3831 8.72207 16.2788V4.86528C8.2191 4.76091 7.84009 4.31493 7.84009 3.78141V3.03915C7.84009 2.42872 8.33687 1.93225 8.94699 1.93225H33.8859C34.4964 1.93225 34.9928 2.42904 34.9928 3.03915V3.78141C34.9928 4.31459 34.6138 4.76095 34.1105 4.86528L34.11 4.86493ZM32.7817 4.07392H10.0505V17.0685H32.7817V4.07392ZM14.4459 8.43443H22.1C22.467 8.43443 22.7643 8.13712 22.7643 7.7701C22.7643 7.40309 22.467 7.10578 22.1 7.10578H14.4459C14.0789 7.10578 13.7816 7.40309 13.7816 7.7701C13.7816 8.13712 14.0789 8.43443 14.4459 8.43443ZM28.3872 7.10579H24.5601C24.1935 7.10579 23.8958 7.40311 23.8958 7.77012C23.8958 8.13714 24.1935 8.43445 24.5601 8.43445H28.3872C28.7538 8.43445 29.0515 8.13714 29.0515 7.77012C29.0515 7.40311 28.7538 7.10579 28.3872 7.10579ZM19.439 9.91724H14.446C14.079 9.91724 13.7817 10.2146 13.7817 10.5816C13.7817 10.9486 14.079 11.2459 14.446 11.2459H19.439C19.806 11.2459 20.1033 10.9486 20.1033 10.5816C20.1033 10.2146 19.806 9.91724 19.439 9.91724ZM19.439 12.728H14.446C14.079 12.728 13.7817 13.0253 13.7817 13.3923C13.7817 13.7593 14.079 14.0566 14.446 14.0566H19.439C19.806 14.0566 20.1033 13.7593 20.1033 13.3923C20.1033 13.0253 19.806 12.728 19.439 12.728ZM23.9272 12.728H21.9988C21.6318 12.728 21.3345 13.0253 21.3345 13.3923C21.3345 13.7593 21.6318 14.0566 21.9988 14.0566H23.9272C24.2939 14.0566 24.5916 13.7593 24.5916 13.3923C24.5912 13.0253 24.2939 12.728 23.9272 12.728ZM36.2513 17.8346V23.3453C36.2513 23.5897 36.4494 23.7881 36.6942 23.7881H43.3996C43.6444 23.7881 43.8425 23.5897 43.8425 23.3453V17.8346H36.2513ZM41.2772 12.6899H40.1823C39.793 12.6899 39.4325 12.7998 39.1143 12.9766C39.0388 13.0051 38.9646 13.0405 38.8966 13.0913L37.5923 14.0625L36.6073 12.7404C36.3155 12.3483 35.7607 12.267 35.3683 12.5591C34.9755 12.8513 34.8948 13.4061 35.187 13.7986L36.2296 15.1983H43.4909V14.9037C43.4909 13.6832 42.4976 12.69 41.2771 12.69L41.2772 12.6899ZM38.7778 10.6846C38.7778 9.6083 39.6536 8.73282 40.7295 8.73282C41.8059 8.73282 42.6813 9.60864 42.6813 10.6846C42.6813 11.7609 41.8055 12.6364 40.7295 12.6364C39.6532 12.6367 38.7778 11.7609 38.7778 10.6846ZM40.0837 11.5879C40.0837 11.868 40.3728 12.0953 40.7295 12.0953C41.0862 12.0953 41.3753 11.868 41.3753 11.5879C41.3753 11.5693 41.3709 11.5515 41.3685 11.5333C41.3334 11.2789 41.0626 11.0804 40.7299 11.0804C40.3969 11.0804 40.1263 11.2792 40.091 11.5333C40.0882 11.5515 40.0837 11.569 40.0837 11.5879ZM36.6591 9.97525L37.895 10.4919C37.9369 10.5095 37.9801 10.5177 38.023 10.5177C38.1528 10.5177 38.2761 10.4411 38.3296 10.3138C38.4 10.1445 38.3207 9.94984 38.1511 9.87912L36.9152 9.36242C36.7466 9.29135 36.552 9.371 36.4806 9.5406C36.4102 9.70986 36.4895 9.90452 36.6591 9.97525ZM36.7871 12.215C36.83 12.215 36.8733 12.2068 36.9152 12.1893L38.1511 11.6726C38.3207 11.6019 38.4 11.4072 38.3296 11.2383C38.2582 11.0687 38.0642 10.9894 37.895 11.0598L36.6591 11.5765C36.4895 11.6472 36.4102 11.8419 36.4805 12.0108C36.5341 12.1381 36.6574 12.215 36.7871 12.215ZM35.8931 16.3054V16.7273C35.8931 16.9718 36.0912 17.1702 36.336 17.1702H43.7576C44.002 17.1702 44.2005 16.9721 44.2005 16.7273V16.3054C44.2005 16.061 44.0024 15.8625 43.7576 15.8625H36.336C36.0916 15.8625 35.8931 16.0609 35.8931 16.3054Z" fill="white"/>
</g>
<defs>
<clipPath id="clip0_1201_16159">
<rect width="45" height="45" fill="white" transform="translate(0.0136719 0.822266)"/>
</clipPath>
</defs>
</svg>
