<?xml version="1.0" encoding="UTF-8"?>
<svg id="_Слой_1" data-name="Слой 1" xmlns="http://www.w3.org/2000/svg" viewBox="0 0 296.32 111.14">
  <path d="m214.87,83.36l-4.49-7.52,4.25-7.62,8.74-.12,4.47,7.49-4.25,7.62-8.72.15Zm-4.91-7.51l4.63,7.78.08.11,9.02-.13.14-.03,4.45-7.99-4.65-7.77-.04-.06-9.06.1h-.1s-4.45,7.99-4.45,7.99Z" style="fill: #ffffff;"/>
  <path d="m209.76,99.51l-6.38,11.44h-.16s-12.94.19-12.94.19l-.08-.12-6.65-11.12,6.38-11.44h.15s12.95-.19,12.95-.19l.09.13,6.63,11.11Zm-6.69,10.91l6.08-10.9-6.41-10.71-12.47.18-6.08,10.91,6.39,10.71,12.49-.19Z" style="fill: #ffffff;"/>
  <path d="m290.94,75.49l-10.47,18.77-.25.02-21.27.33-.11-.22-10.9-18.27,10.47-18.77h.23s21.28-.33,21.28-.33l.13.24,10.9,18.24Zm-10.98,17.92l9.99-17.91-10.52-17.61-20.52.3-9.99,17.91,10.53,17.62,20.51-.31Z" style="fill: #ffffff;"/>
  <polygon points="227.74 75.8 248.63 76.31 248.64 75.67 227.75 75.18 227.74 75.8" style="fill: #ffffff;"/>
  <polygon points="109.5 0 115.86 10.65 101.39 36.61 71.67 37.06 56.42 11.54 62.85 0 61.43 0 54.98 11.56 70.79 38 70.97 38.32 101.76 37.85 102.13 37.85 117.31 10.63 110.96 0 109.5 0" style="fill: #ffffff;"/>
  <polygon points="174.99 0 183.09 13.54 170.83 35.52 145.67 35.9 132.75 14.29 140.71 0 139.5 0 131.53 14.3 144.91 36.71 145.08 36.96 171.15 36.57 171.46 36.56 184.31 13.52 176.23 0 174.99 0" style="fill: #ffffff;"/>
  <path d="m205.63,63.48l-7.4,13.27h-.17s-15,.22-15,.22l-.1-.15-7.7-12.88,7.4-13.28h.18l15-.21.1.14,7.68,12.88Zm-7.74,12.66l7.05-12.64-7.43-12.42-14.49.2-7.05,12.64,7.44,12.45,14.48-.22Z" style="fill: #ffffff;"/>
  <path d="m139.09,70.2l-6.26,11.23h-.15s-12.69.19-12.69.19l-.07-.12-6.51-10.9,6.26-11.23h.14l12.69-.2.08.15,6.5,10.87Zm-6.56,10.72l5.96-10.69-6.28-10.53-12.25.2-5.96,10.7,6.28,10.51,12.25-.18Z" style="fill: #ffffff;"/>
  <path d="m.62,11.14L6.7.23l12.48-.17,6.41,10.71-6.08,10.91-12.48.18L.62,11.14ZM6.22,0L0,11.16l6.63,11.11.09.13,12.95-.22.15.02,6.38-11.44L19.77,0H6.22Z" style="fill: #ffffff;"/>
  <path d="m43.97,57.13l-6.96,12.49-.17-.02-14.13.24-.1-.15-7.23-12.13,6.96-12.49.15-.02,14.14-.19.08.15,7.26,12.12Zm-7.31,11.91l6.63-11.89-6.98-11.71-13.65.21-6.63,11.89,7,11.72,13.63-.21Z" style="fill: #ffffff;"/>
  <polygon points="291.35 19.94 296.32 28.28 296.32 27.15 291.99 19.92 296.32 12.16 296.32 11.01 291.35 19.94" style="fill: #ffffff;"/>
  <polygon points="25.59 11.16 56.44 11.93 56.45 11.14 25.6 10.38 25.59 11.16" style="fill: #ffffff;"/>
  <path d="m234.84,24.37l-8.74.28-4.61-7.41,4.11-7.71,8.73-.28,4.61,7.41-4.11,7.72Zm-8.94.65l9.06-.29h.1s4.27-7.98,4.27-7.98l.04-.11-4.83-7.76-9.06.29h-.1s-4.27,8-4.27,8l-.04.09,4.83,7.76Z" style="fill: #ffffff;"/>
  <polygon points="239.26 0 233.92 9.12 234.48 9.43 240 0 239.26 0" style="fill: #ffffff;"/>
  <polygon points="119.66 60.11 120.26 59.64 101.69 36.36 101.09 36.83 119.66 60.11" style="fill: #ffffff;"/>
  <rect x="125.32" y="47.56" width="26.87" height=".81" transform="translate(29.29 145.8) rotate(-60.86)" style="fill: #ffffff;"/>
  <polygon points="182.71 51.51 183.34 51.04 171.45 35.55 170.81 36.04 182.71 51.51" style="fill: #ffffff;"/>
</svg>