<?xml version="1.0" encoding="UTF-8"?>
<svg id="_Слой_1" data-name="Слой 1" xmlns="http://www.w3.org/2000/svg" viewBox="0 0 290.62 119.7">
  <polygon points="0 52.67 0 53.17 2.38 53.13 8.32 63.05 2.7 73.13 0 73.16 0 73.66 2.83 73.62 2.99 73.6 8.87 63.04 2.72 52.77 2.66 52.63 0 52.67" style="fill: #ffffff;"/>
  <path d="m64.53,15.89l3.69,6.2-3.51,6.29-7.21.12-3.69-6.19,3.51-6.29,7.21-.12Zm4.04,6.19l-3.83-6.42-.04-.07-7.47.1-.09.02-3.67,6.59,3.83,6.42.04.07,7.48-.12h.08s3.67-6.6,3.67-6.6Z" style="fill: #ffffff;"/>
  <path d="m36.14,59.9l5.75-10.3h.14s11.66-.18,11.66-.18l.08.12,5.97,10.01-5.75,10.31-.12.02-11.67.16-.07-.12-5.99-10Zm6.03-9.83l-5.47,9.81,5.76,9.66,11.26-.17,5.47-9.81-5.78-9.67-11.25.17Z" style="fill: #ffffff;"/>
  <path d="m1.75,22.39L10.39,6.9l.21-.02,17.54-.25.1.17,8.99,15.07-8.64,15.49h-.2l-17.55.27-.11-.18L1.75,22.39ZM10.82,7.6L2.57,22.38l8.68,14.53,16.93-.25,8.24-14.78-8.69-14.53-16.92.25Z" style="fill: #ffffff;"/>
  <polygon points="0 101.08 17.56 110.87 17.69 119.7 18.73 119.7 18.59 110.55 18.58 110.27 0 99.91 0 101.08" style="fill: #ffffff;"/>
  <polygon points="36.65 22.24 53.88 22.66 53.88 22.12 36.66 21.71 36.65 22.24" style="fill: #ffffff;"/>
  <polygon points="272.44 103.06 272.3 103.07 266.42 113.62 270.04 119.7 270.62 119.7 266.98 113.62 272.6 103.55 284.13 103.37 290.06 113.29 286.49 119.7 287.04 119.7 290.62 113.28 284.47 103 284.41 102.87 272.44 103.06" style="fill: #ffffff;"/>
  <polygon points="203.98 91.24 203.68 91.24 191.15 113.71 194.74 119.7 195.94 119.7 192.35 113.69 204.29 92.26 228.81 91.89 241.39 112.95 237.63 119.7 238.8 119.7 242.58 112.94 229.53 91.12 229.39 90.85 203.98 91.24" style="fill: #ffffff;"/>
  <path d="m237.17,63.95l7.21-.23,3.8,6.11-3.39,6.36-7.21.23-3.8-6.11,3.39-6.37Zm7.38-.53l-7.47.24h-.08s-3.52,6.59-3.52,6.59l-.03.09,3.99,6.41,7.47-.24h.08s3.52-6.6,3.52-6.6l.04-.08-3.99-6.41Z" style="fill: #ffffff;"/>
  <polygon points="237.47 76.28 228.76 91.15 229.22 91.41 237.93 76.54 237.47 76.28" style="fill: #ffffff;"/>
  <polygon points="149.28 94.65 127.46 107.68 127.48 107.98 127.65 119.7 128.67 119.7 128.5 108.26 149.55 95.68 170.97 107.63 171.15 119.7 172.19 119.7 172 107.02 149.54 94.49 149.28 94.65" style="fill: #ffffff;"/>
  <path d="m112.93,92.51l-.02,7.2-6.25,3.59-6.23-3.63.02-7.2,6.25-3.6,6.23,3.64Zm-12.81,7.33l.07.05,6.46,3.76.07-.04,6.49-3.72.02-7.54-.07-.06-6.46-3.75-.07.04-6.48,3.73-.02,7.54Z" style="fill: #ffffff;"/>
  <polygon points="112.93 99.52 128.15 107.6 127.9 108.06 112.67 99.99 112.93 99.52" style="fill: #ffffff;"/>
  <path d="m130.39,0l13.68,21.78-.14.27-11.87,22.47h-.31s-25.4.96-25.4.96l-13.68-21.78.13-.25L104.69.95h.31s25.39-.95,25.39-.95Zm12.49,21.82l-13.04-20.77-24.5.92-11.48,21.68,13.04,20.77,24.52-.92,11.46-21.68Z" style="fill: #ffffff;"/>
  <polygon points="68.02 21.85 67.97 22.48 92.5 24.01 92.55 23.38 68.02 21.85" style="fill: #ffffff;"/>
  <rect x="-2.12" y="44.71" width="18.05" height=".67" transform="translate(-35.8 29.14) rotate(-60.86)" style="fill: #ffffff;"/>
  <path d="m183.13,69.36l-5.75,10.3h-.14s-11.66.18-11.66.18l-.08-.12-5.97-10.01,5.75-10.31.12-.02,11.67-.16.07.12,5.99,10Zm-6.03,9.83l5.47-9.81-5.76-9.66-11.26.17-5.47,9.81,5.78,9.67,11.25-.17Z" style="fill: #ffffff;"/>
  <path d="m49.66,96.76l-.11-.17,8.36-15.43.09-.18,17.73-.49,9.2,14.95.1.17-8.34,15.43-.11.18-17.73.49-9.19-14.95Zm34.55-1.12l-8.86-14.43-16.92.46-8.06,14.9,8.86,14.42,16.92-.46,8.05-14.88Z" style="fill: #ffffff;"/>
</svg>